<?xml version="1.0" encoding="UTF-8" standalone="no"?>
<!DOCTYPE svg PUBLIC "-//W3C//DTD SVG 1.1//EN"
 "http://www.w3.org/Graphics/SVG/1.1/DTD/svg11.dtd">
<!-- Generated by graphviz version 12.2.1 (20241206.2353)
 -->
<!-- Pages: 1 -->
<svg width="470pt" height="182pt"
 viewBox="0.00 0.00 470.00 182.00" xmlns="http://www.w3.org/2000/svg" xmlns:xlink="http://www.w3.org/1999/xlink">
<g id="graph0" class="graph" transform="scale(1 1) rotate(0) translate(4 178)">
<polygon fill="#ffffff" stroke="none" points="-4,4 -4,-178 466,-178 466,4 -4,4"/>
<!-- X1 -->
<g id="node1" class="node">
<title>X1</title>
<polygon fill="#ffffff" stroke="black" points="38,-149.25 0,-149.25 0,-6.75 38,-6.75 38,-149.25"/>
<polygon fill="#ffffff" stroke="none" points="0,-6.75 0,-149.25 38,-149.25 38,-6.75 0,-6.75"/>
<polygon fill="none" stroke="black" points="0,-125.5 0,-149.25 38,-149.25 38,-125.5 0,-125.5"/>
<text text-anchor="start" x="10.75" y="-131.95" font-family="arial" font-size="14.00">X1</text>
<polygon fill="none" stroke="black" points="0,-101.75 0,-125.5 38,-125.5 38,-101.75 0,-101.75"/>
<text text-anchor="start" x="4" y="-108.2" font-family="arial" font-size="14.00">4&#45;pin</text>
<polygon fill="none" stroke="black" points="0,-78 0,-101.75 38,-101.75 38,-78 0,-78"/>
<text text-anchor="start" x="15.25" y="-84.45" font-family="arial" font-size="14.00">1</text>
<polygon fill="none" stroke="black" points="0,-54.25 0,-78 38,-78 38,-54.25 0,-54.25"/>
<text text-anchor="start" x="15.25" y="-60.7" font-family="arial" font-size="14.00">2</text>
<polygon fill="none" stroke="black" points="0,-30.5 0,-54.25 38,-54.25 38,-30.5 0,-30.5"/>
<text text-anchor="start" x="15.25" y="-36.95" font-family="arial" font-size="14.00">3</text>
<polygon fill="none" stroke="black" points="0,-6.75 0,-30.5 38,-30.5 38,-6.75 0,-6.75"/>
<text text-anchor="start" x="15.25" y="-13.2" font-family="arial" font-size="14.00">4</text>
</g>
<!-- W1 -->
<g id="node3" class="node">
<title>W1</title>
<polygon fill="#ffffff" stroke="black" points="280,-174 182,-174 182,0 280,0 280,-174"/>
<polygon fill="#ffffff" stroke="none" points="182,0 182,-174 280,-174 280,0 182,0"/>
<polygon fill="none" stroke="black" points="182,-150.25 182,-174 280,-174 280,-150.25 182,-150.25"/>
<text text-anchor="start" x="220.5" y="-156.7" font-family="arial" font-size="14.00">W1</text>
<polygon fill="none" stroke="black" points="182,-126.5 182,-150.25 226.5,-150.25 226.5,-126.5 182,-126.5"/>
<text text-anchor="start" x="197.12" y="-132.95" font-family="arial" font-size="14.00">4x</text>
<polygon fill="none" stroke="black" points="226.5,-126.5 226.5,-150.25 280,-150.25 280,-126.5 226.5,-126.5"/>
<text text-anchor="start" x="241.62" y="-132.95" font-family="arial" font-size="14.00">1 m</text>
<text text-anchor="start" x="197.88" y="-111.2" font-family="arial" font-size="14.00"> </text>
<text text-anchor="start" x="184" y="-91.45" font-family="arial" font-size="14.00"> X1:1</text>
<text text-anchor="start" x="219.5" y="-91.45" font-family="arial" font-size="14.00"> </text>
<text text-anchor="start" x="227.25" y="-91.45" font-family="arial" font-size="14.00">1</text>
<text text-anchor="start" x="238.75" y="-91.45" font-family="arial" font-size="14.00"> </text>
<text text-anchor="start" x="246.5" y="-91.45" font-family="arial" font-size="14.00">X2:1 </text>
<polygon fill="#000000" stroke="none" points="182,-85 182,-87 280,-87 280,-85 182,-85"/>
<text text-anchor="start" x="184" y="-69.7" font-family="arial" font-size="14.00"> X1:2</text>
<text text-anchor="start" x="219.5" y="-69.7" font-family="arial" font-size="14.00"> </text>
<text text-anchor="start" x="227.25" y="-69.7" font-family="arial" font-size="14.00">2</text>
<text text-anchor="start" x="238.75" y="-69.7" font-family="arial" font-size="14.00"> </text>
<text text-anchor="start" x="246.5" y="-69.7" font-family="arial" font-size="14.00">X2:2 </text>
<polygon fill="#000000" stroke="none" points="182,-63.25 182,-65.25 280,-65.25 280,-63.25 182,-63.25"/>
<text text-anchor="start" x="184" y="-47.95" font-family="arial" font-size="14.00"> X1:3</text>
<text text-anchor="start" x="219.5" y="-47.95" font-family="arial" font-size="14.00"> </text>
<text text-anchor="start" x="227.25" y="-47.95" font-family="arial" font-size="14.00">3</text>
<text text-anchor="start" x="238.75" y="-47.95" font-family="arial" font-size="14.00"> </text>
<text text-anchor="start" x="246.5" y="-47.95" font-family="arial" font-size="14.00">X2:3 </text>
<polygon fill="#000000" stroke="none" points="182,-41.5 182,-43.5 280,-43.5 280,-41.5 182,-41.5"/>
<text text-anchor="start" x="184" y="-26.2" font-family="arial" font-size="14.00"> X1:4</text>
<text text-anchor="start" x="219.5" y="-26.2" font-family="arial" font-size="14.00"> </text>
<text text-anchor="start" x="227.25" y="-26.2" font-family="arial" font-size="14.00">4</text>
<text text-anchor="start" x="238.75" y="-26.2" font-family="arial" font-size="14.00"> </text>
<text text-anchor="start" x="246.5" y="-26.2" font-family="arial" font-size="14.00">X2:4 </text>
<polygon fill="#000000" stroke="none" points="182,-19.75 182,-21.75 280,-21.75 280,-19.75 182,-19.75"/>
<text text-anchor="start" x="197.88" y="-4.45" font-family="arial" font-size="14.00"> </text>
</g>
<!-- X1&#45;&#45;W1 -->
<g id="edge1" class="edge">
<title>X1:e&#45;&#45;W1:w</title>
<path fill="none" stroke="#000000" stroke-width="2" d="M38,-89.88C102.02,-89.88 117.98,-86 182,-86"/>
</g>
<!-- X1&#45;&#45;W1 -->
<g id="edge3" class="edge">
<title>X1:e&#45;&#45;W1:w</title>
<path fill="none" stroke="#000000" stroke-width="2" d="M38,-66.12C102.01,-66.12 117.99,-64.25 182,-64.25"/>
</g>
<!-- X1&#45;&#45;W1 -->
<g id="edge5" class="edge">
<title>X1:e&#45;&#45;W1:w</title>
<path fill="none" stroke="#000000" stroke-width="2" d="M38,-42.38C102,-42.38 118,-42.5 182,-42.5"/>
</g>
<!-- X1&#45;&#45;W1 -->
<g id="edge7" class="edge">
<title>X1:e&#45;&#45;W1:w</title>
<path fill="none" stroke="#000000" stroke-width="2" d="M38,-18.62C102.01,-18.62 117.99,-20.75 182,-20.75"/>
</g>
<!-- X2 -->
<g id="node2" class="node">
<title>X2</title>
<polygon fill="#ffffff" stroke="black" points="462,-149.25 424,-149.25 424,-6.75 462,-6.75 462,-149.25"/>
<polygon fill="#ffffff" stroke="none" points="424,-6.75 424,-149.25 462,-149.25 462,-6.75 424,-6.75"/>
<polygon fill="none" stroke="black" points="424,-125.5 424,-149.25 462,-149.25 462,-125.5 424,-125.5"/>
<text text-anchor="start" x="434.75" y="-131.95" font-family="arial" font-size="14.00">X2</text>
<polygon fill="none" stroke="black" points="424,-101.75 424,-125.5 462,-125.5 462,-101.75 424,-101.75"/>
<text text-anchor="start" x="428" y="-108.2" font-family="arial" font-size="14.00">4&#45;pin</text>
<polygon fill="none" stroke="black" points="424,-78 424,-101.75 462,-101.75 462,-78 424,-78"/>
<text text-anchor="start" x="439.25" y="-84.45" font-family="arial" font-size="14.00">1</text>
<polygon fill="none" stroke="black" points="424,-54.25 424,-78 462,-78 462,-54.25 424,-54.25"/>
<text text-anchor="start" x="439.25" y="-60.7" font-family="arial" font-size="14.00">2</text>
<polygon fill="none" stroke="black" points="424,-30.5 424,-54.25 462,-54.25 462,-30.5 424,-30.5"/>
<text text-anchor="start" x="439.25" y="-36.95" font-family="arial" font-size="14.00">3</text>
<polygon fill="none" stroke="black" points="424,-6.75 424,-30.5 462,-30.5 462,-6.75 424,-6.75"/>
<text text-anchor="start" x="439.25" y="-13.2" font-family="arial" font-size="14.00">4</text>
</g>
<!-- W1&#45;&#45;X2 -->
<g id="edge2" class="edge">
<title>W1:e&#45;&#45;X2:w</title>
<path fill="none" stroke="#000000" stroke-width="2" d="M280,-86C344.02,-86 359.98,-89.88 424,-89.88"/>
</g>
<!-- W1&#45;&#45;X2 -->
<g id="edge4" class="edge">
<title>W1:e&#45;&#45;X2:w</title>
<path fill="none" stroke="#000000" stroke-width="2" d="M280,-64.25C344.01,-64.25 359.99,-66.12 424,-66.12"/>
</g>
<!-- W1&#45;&#45;X2 -->
<g id="edge6" class="edge">
<title>W1:e&#45;&#45;X2:w</title>
<path fill="none" stroke="#000000" stroke-width="2" d="M280,-42.5C344,-42.5 360,-42.38 424,-42.38"/>
</g>
<!-- W1&#45;&#45;X2 -->
<g id="edge8" class="edge">
<title>W1:e&#45;&#45;X2:w</title>
<path fill="none" stroke="#000000" stroke-width="2" d="M280,-20.75C344.01,-20.75 359.99,-18.62 424,-18.62"/>
</g>
</g>
</svg>
