<?xml version="1.0" encoding="UTF-8" standalone="no"?>
<!DOCTYPE svg PUBLIC "-//W3C//DTD SVG 1.1//EN"
 "http://www.w3.org/Graphics/SVG/1.1/DTD/svg11.dtd">
<!-- Generated by graphviz version 11.0.0 (20240428.1522)
 -->
<!-- Pages: 1 -->
<svg width="475pt" height="201pt"
 viewBox="0.00 0.00 475.00 201.00" xmlns="http://www.w3.org/2000/svg" xmlns:xlink="http://www.w3.org/1999/xlink">
<g id="graph0" class="graph" transform="scale(1 1) rotate(0) translate(4 197)">
<polygon fill="#ffffff" stroke="none" points="-4,4 -4,-197 471,-197 471,4 -4,4"/>
<!-- X1 -->
<g id="node1" class="node">
<title>X1</title>
<polygon fill="#ffffff" stroke="black" points="39.5,-161 0,-161 0,-14 39.5,-14 39.5,-161"/>
<polygon fill="#ffffff" stroke="none" points="0,-14 0,-161 39.5,-161 39.5,-14 0,-14"/>
<polygon fill="none" stroke="black" points="0,-136.5 0,-161 39.5,-161 39.5,-136.5 0,-136.5"/>
<text text-anchor="start" x="10.75" y="-143.7" font-family="arial" font-size="14.00">X1</text>
<polygon fill="none" stroke="black" points="0,-112 0,-136.5 39.5,-136.5 39.5,-112 0,-112"/>
<text text-anchor="start" x="4" y="-119.2" font-family="arial" font-size="14.00">4&#45;pin</text>
<polygon fill="none" stroke="black" points="0,-87.5 0,-112 39.5,-112 39.5,-87.5 0,-87.5"/>
<text text-anchor="start" x="15.62" y="-94.7" font-family="arial" font-size="14.00">1</text>
<polygon fill="none" stroke="black" points="0,-63 0,-87.5 39.5,-87.5 39.5,-63 0,-63"/>
<text text-anchor="start" x="15.62" y="-70.2" font-family="arial" font-size="14.00">2</text>
<polygon fill="none" stroke="black" points="0,-38.5 0,-63 39.5,-63 39.5,-38.5 0,-38.5"/>
<text text-anchor="start" x="15.62" y="-45.7" font-family="arial" font-size="14.00">3</text>
<polygon fill="none" stroke="black" points="0,-14 0,-38.5 39.5,-38.5 39.5,-14 0,-14"/>
<text text-anchor="start" x="15.62" y="-21.2" font-family="arial" font-size="14.00">4</text>
</g>
<!-- W1 -->
<g id="node2" class="node">
<title>W1</title>
<polygon fill="#ffffff" stroke="black" points="283.5,-193 183.5,-193 183.5,0 283.5,0 283.5,-193"/>
<polygon fill="#ffffff" stroke="none" points="183.5,0 183.5,-193 283.5,-193 283.5,0 183.5,0"/>
<polygon fill="none" stroke="black" points="183.5,-168.5 183.5,-193 283.5,-193 283.5,-168.5 183.5,-168.5"/>
<text text-anchor="start" x="222.25" y="-175.7" font-family="arial" font-size="14.00">W1</text>
<polygon fill="none" stroke="black" points="183.5,-144 183.5,-168.5 229,-168.5 229,-144 183.5,-144"/>
<text text-anchor="start" x="198.75" y="-151.2" font-family="arial" font-size="14.00">4x</text>
<polygon fill="none" stroke="black" points="229,-144 229,-168.5 283.5,-168.5 283.5,-144 229,-144"/>
<text text-anchor="start" x="244.25" y="-151.2" font-family="arial" font-size="14.00">1 m</text>
<text text-anchor="start" x="200.12" y="-128.7" font-family="arial" font-size="14.00"> </text>
<text text-anchor="start" x="185.12" y="-108.7" font-family="arial" font-size="14.00"> X1:1</text>
<text text-anchor="start" x="222.12" y="-108.7" font-family="arial" font-size="14.00"> </text>
<text text-anchor="start" x="229.38" y="-108.7" font-family="arial" font-size="14.00">1</text>
<text text-anchor="start" x="241.12" y="-108.7" font-family="arial" font-size="14.00"> </text>
<text text-anchor="start" x="248.12" y="-108.7" font-family="arial" font-size="14.00">X2:1 </text>
<text text-anchor="start" x="185.12" y="-82.7" font-family="arial" font-size="14.00"> X1:2</text>
<text text-anchor="start" x="222.12" y="-82.7" font-family="arial" font-size="14.00"> </text>
<text text-anchor="start" x="229.38" y="-82.7" font-family="arial" font-size="14.00">2</text>
<text text-anchor="start" x="241.12" y="-82.7" font-family="arial" font-size="14.00"> </text>
<text text-anchor="start" x="248.12" y="-82.7" font-family="arial" font-size="14.00">X2:2 </text>
<text text-anchor="start" x="185.12" y="-56.7" font-family="arial" font-size="14.00"> X1:3</text>
<text text-anchor="start" x="222.12" y="-56.7" font-family="arial" font-size="14.00"> </text>
<text text-anchor="start" x="229.38" y="-56.7" font-family="arial" font-size="14.00">3</text>
<text text-anchor="start" x="241.12" y="-56.7" font-family="arial" font-size="14.00"> </text>
<text text-anchor="start" x="248.12" y="-56.7" font-family="arial" font-size="14.00">X2:3 </text>
<text text-anchor="start" x="185.12" y="-30.7" font-family="arial" font-size="14.00"> X1:4</text>
<text text-anchor="start" x="222.12" y="-30.7" font-family="arial" font-size="14.00"> </text>
<text text-anchor="start" x="229.38" y="-30.7" font-family="arial" font-size="14.00">4</text>
<text text-anchor="start" x="241.12" y="-30.7" font-family="arial" font-size="14.00"> </text>
<text text-anchor="start" x="248.12" y="-30.7" font-family="arial" font-size="14.00">X2:4 </text>
<text text-anchor="start" x="200.12" y="-4.7" font-family="arial" font-size="14.00"> </text>
</g>
<!-- X1&#45;&#45;W1 -->
<g id="edge1" class="edge">
<title>X1:e&#45;&#45;W1:w</title>
<path fill="none" stroke="#000000" stroke-width="2" d="M39.5,-99.75C103.5,-99.75 119.5,-101 183.5,-101"/>
</g>
<!-- X1&#45;&#45;W1 -->
<g id="edge2" class="edge">
<title>X1:e&#45;&#45;W1:w</title>
<path fill="none" stroke="#000000" stroke-width="2" d="M39.5,-75.25C103.5,-75.25 119.5,-75 183.5,-75"/>
</g>
<!-- X1&#45;&#45;W1 -->
<g id="edge3" class="edge">
<title>X1:e&#45;&#45;W1:w</title>
<path fill="none" stroke="#000000" stroke-width="2" d="M39.5,-50.75C103.5,-50.75 119.5,-49 183.5,-49"/>
</g>
<!-- X1&#45;&#45;W1 -->
<g id="edge4" class="edge">
<title>X1:e&#45;&#45;W1:w</title>
<path fill="none" stroke="#000000" stroke-width="2" d="M39.5,-26.25C103.52,-26.25 119.48,-23 183.5,-23"/>
</g>
<!-- W1&#45;&#45;W1 -->
<g id="edge5" class="edge">
<title>W1:e&#45;&#45;W1:w</title>
<path fill="none" stroke="#000000" stroke-width="2" d="M283.5,-101C250.17,-101 216.83,-101 183.5,-101"/>
</g>
<!-- W1&#45;&#45;W1 -->
<g id="edge6" class="edge">
<title>W1:e&#45;&#45;W1:w</title>
<path fill="none" stroke="#000000" stroke-width="2" d="M283.5,-75C250.17,-75 216.83,-75 183.5,-75"/>
</g>
<!-- W1&#45;&#45;W1 -->
<g id="edge7" class="edge">
<title>W1:e&#45;&#45;W1:w</title>
<path fill="none" stroke="#000000" stroke-width="2" d="M283.5,-49C250.17,-49 216.83,-49 183.5,-49"/>
</g>
<!-- W1&#45;&#45;W1 -->
<g id="edge8" class="edge">
<title>W1:e&#45;&#45;W1:w</title>
<path fill="none" stroke="#000000" stroke-width="2" d="M283.5,-23C250.17,-23 216.83,-23 183.5,-23"/>
</g>
<!-- X2 -->
<g id="node3" class="node">
<title>X2</title>
<polygon fill="#ffffff" stroke="black" points="467,-161 427.5,-161 427.5,-14 467,-14 467,-161"/>
<polygon fill="#ffffff" stroke="none" points="427.5,-14 427.5,-161 467,-161 467,-14 427.5,-14"/>
<polygon fill="none" stroke="black" points="427.5,-136.5 427.5,-161 467,-161 467,-136.5 427.5,-136.5"/>
<text text-anchor="start" x="438.25" y="-143.7" font-family="arial" font-size="14.00">X2</text>
<polygon fill="none" stroke="black" points="427.5,-112 427.5,-136.5 467,-136.5 467,-112 427.5,-112"/>
<text text-anchor="start" x="431.5" y="-119.2" font-family="arial" font-size="14.00">4&#45;pin</text>
<polygon fill="none" stroke="black" points="427.5,-87.5 427.5,-112 467,-112 467,-87.5 427.5,-87.5"/>
<text text-anchor="start" x="443.12" y="-94.7" font-family="arial" font-size="14.00">1</text>
<polygon fill="none" stroke="black" points="427.5,-63 427.5,-87.5 467,-87.5 467,-63 427.5,-63"/>
<text text-anchor="start" x="443.12" y="-70.2" font-family="arial" font-size="14.00">2</text>
<polygon fill="none" stroke="black" points="427.5,-38.5 427.5,-63 467,-63 467,-38.5 427.5,-38.5"/>
<text text-anchor="start" x="443.12" y="-45.7" font-family="arial" font-size="14.00">3</text>
<polygon fill="none" stroke="black" points="427.5,-14 427.5,-38.5 467,-38.5 467,-14 427.5,-14"/>
<text text-anchor="start" x="443.12" y="-21.2" font-family="arial" font-size="14.00">4</text>
</g>
<!-- W1&#45;&#45;X2 -->
<g id="edge9" class="edge">
<title>W1:e&#45;&#45;X2:w</title>
<path fill="none" stroke="#000000" stroke-width="2" d="M283.5,-101C347.5,-101 363.5,-99.75 427.5,-99.75"/>
</g>
<!-- W1&#45;&#45;X2 -->
<g id="edge10" class="edge">
<title>W1:e&#45;&#45;X2:w</title>
<path fill="none" stroke="#000000" stroke-width="2" d="M283.5,-75C347.5,-75 363.5,-75.25 427.5,-75.25"/>
</g>
<!-- W1&#45;&#45;X2 -->
<g id="edge11" class="edge">
<title>W1:e&#45;&#45;X2:w</title>
<path fill="none" stroke="#000000" stroke-width="2" d="M283.5,-49C347.5,-49 363.5,-50.75 427.5,-50.75"/>
</g>
<!-- W1&#45;&#45;X2 -->
<g id="edge12" class="edge">
<title>W1:e&#45;&#45;X2:w</title>
<path fill="none" stroke="#000000" stroke-width="2" d="M283.5,-23C347.52,-23 363.48,-26.25 427.5,-26.25"/>
</g>
</g>
</svg>
