<?xml version="1.0" encoding="UTF-8" standalone="no"?>
<!DOCTYPE svg PUBLIC "-//W3C//DTD SVG 1.1//EN"
 "http://www.w3.org/Graphics/SVG/1.1/DTD/svg11.dtd">
<!-- Generated by graphviz version 11.0.0 (20240428.1522)
 -->
<!-- Pages: 1 -->
<svg width="894pt" height="247pt"
 viewBox="0.00 0.00 894.25 247.00" xmlns="http://www.w3.org/2000/svg" xmlns:xlink="http://www.w3.org/1999/xlink">
<g id="graph0" class="graph" transform="scale(1 1) rotate(0) translate(4 243)">
<polygon fill="#ffffff" stroke="none" points="-4,4 -4,-243 890.25,-243 890.25,4 -4,4"/>
<!-- X1 -->
<g id="node1" class="node">
<title>X1</title>
<polygon fill="#ffffff" stroke="black" points="188.25,-204 0,-204 0,-59 188.25,-59 188.25,-204"/>
<polygon fill="#ffffff" stroke="none" points="0,-59 0,-204 188.25,-204 188.25,-59 0,-59"/>
<polygon fill="none" stroke="black" points="0,-179.5 0,-204 188.25,-204 188.25,-179.5 0,-179.5"/>
<text text-anchor="start" x="85.13" y="-186.7" font-family="arial" font-size="14.00">X1</text>
<polygon fill="none" stroke="black" points="0,-155 0,-179.5 97.25,-179.5 97.25,-155 0,-155"/>
<text text-anchor="start" x="4" y="-162.2" font-family="arial" font-size="14.00">Molex KK 254</text>
<polygon fill="none" stroke="black" points="97.25,-155 97.25,-179.5 148.75,-179.5 148.75,-155 97.25,-155"/>
<text text-anchor="start" x="101.25" y="-162.2" font-family="arial" font-size="14.00">female</text>
<polygon fill="none" stroke="black" points="148.75,-155 148.75,-179.5 188.25,-179.5 188.25,-155 148.75,-155"/>
<text text-anchor="start" x="152.75" y="-162.2" font-family="arial" font-size="14.00">4&#45;pin</text>
<polygon fill="none" stroke="black" points="0,-131 0,-155 105.63,-155 105.63,-131 0,-131"/>
<text text-anchor="start" x="37.06" y="-137.7" font-family="arial" font-size="14.00">GND</text>
<polygon fill="none" stroke="black" points="105.63,-131 105.63,-155 188.25,-155 188.25,-131 105.63,-131"/>
<text text-anchor="start" x="142.81" y="-137.7" font-family="arial" font-size="14.00">1</text>
<polygon fill="none" stroke="black" points="0,-107 0,-131 105.63,-131 105.63,-107 0,-107"/>
<text text-anchor="start" x="37.44" y="-113.7" font-family="arial" font-size="14.00">VCC</text>
<polygon fill="none" stroke="black" points="105.63,-107 105.63,-131 188.25,-131 188.25,-107 105.63,-107"/>
<text text-anchor="start" x="142.81" y="-113.7" font-family="arial" font-size="14.00">2</text>
<polygon fill="none" stroke="black" points="0,-83 0,-107 105.63,-107 105.63,-83 0,-83"/>
<text text-anchor="start" x="42.69" y="-89.7" font-family="arial" font-size="14.00">RX</text>
<polygon fill="none" stroke="black" points="105.63,-83 105.63,-107 188.25,-107 188.25,-83 105.63,-83"/>
<text text-anchor="start" x="142.81" y="-89.7" font-family="arial" font-size="14.00">3</text>
<polygon fill="none" stroke="black" points="0,-59 0,-83 105.63,-83 105.63,-59 0,-59"/>
<text text-anchor="start" x="43.44" y="-65.7" font-family="arial" font-size="14.00">TX</text>
<polygon fill="none" stroke="black" points="105.63,-59 105.63,-83 188.25,-83 188.25,-59 105.63,-59"/>
<text text-anchor="start" x="142.81" y="-65.7" font-family="arial" font-size="14.00">4</text>
</g>
<!-- W1 -->
<g id="node2" class="node">
<title>W1</title>
<polygon fill="#ffffff" stroke="black" points="554,-239 332.24,-239 332.24,0 554,0 554,-239"/>
<polygon fill="#ffffff" stroke="none" points="332.25,0 332.25,-239 554,-239 554,0 332.25,0"/>
<polygon fill="none" stroke="black" points="332.25,-214.5 332.25,-239 554,-239 554,-214.5 332.25,-214.5"/>
<text text-anchor="start" x="431.87" y="-221.7" font-family="arial" font-size="14.00">W1</text>
<polygon fill="none" stroke="black" points="332.25,-190 332.25,-214.5 355.25,-214.5 355.25,-190 332.25,-190"/>
<text text-anchor="start" x="336.25" y="-197.2" font-family="arial" font-size="14.00">4x</text>
<polygon fill="none" stroke="black" points="355.25,-190 355.25,-214.5 492.25,-214.5 492.25,-190 355.25,-190"/>
<text text-anchor="start" x="359.25" y="-197.2" font-family="arial" font-size="14.00">0.25 mm² (24 AWG)</text>
<polygon fill="none" stroke="black" points="492.25,-190 492.25,-214.5 522,-214.5 522,-190 492.25,-190"/>
<text text-anchor="start" x="496.25" y="-197.2" font-family="arial" font-size="14.00">+ S</text>
<polygon fill="none" stroke="black" points="522,-190 522,-214.5 554,-214.5 554,-190 522,-190"/>
<text text-anchor="start" x="526" y="-197.2" font-family="arial" font-size="14.00">1 m</text>
<text text-anchor="start" x="368.75" y="-174.7" font-family="arial" font-size="14.00"> </text>
<text text-anchor="start" x="334.25" y="-154.7" font-family="arial" font-size="14.00"> X1:1:GND</text>
<text text-anchor="start" x="412.5" y="-154.7" font-family="arial" font-size="14.00"> </text>
<text text-anchor="start" x="425.12" y="-154.7" font-family="arial" font-size="14.00">1:WH</text>
<text text-anchor="start" x="470" y="-154.7" font-family="arial" font-size="14.00"> </text>
<text text-anchor="start" x="483" y="-154.7" font-family="arial" font-size="14.00">X2:1:GND </text>
<text text-anchor="start" x="334.25" y="-128.7" font-family="arial" font-size="14.00"> X1:2:VCC</text>
<text text-anchor="start" x="412.5" y="-128.7" font-family="arial" font-size="14.00"> </text>
<text text-anchor="start" x="427.37" y="-128.7" font-family="arial" font-size="14.00">2:BN</text>
<text text-anchor="start" x="470" y="-128.7" font-family="arial" font-size="14.00"> </text>
<text text-anchor="start" x="483.75" y="-128.7" font-family="arial" font-size="14.00">X2:2:VCC </text>
<text text-anchor="start" x="334.25" y="-102.7" font-family="arial" font-size="14.00"> X1:3:RX</text>
<text text-anchor="start" x="412.5" y="-102.7" font-family="arial" font-size="14.00"> </text>
<text text-anchor="start" x="426.62" y="-102.7" font-family="arial" font-size="14.00">3:GN</text>
<text text-anchor="start" x="470" y="-102.7" font-family="arial" font-size="14.00"> </text>
<text text-anchor="start" x="495.75" y="-102.7" font-family="arial" font-size="14.00">X2:4:TX </text>
<text text-anchor="start" x="334.25" y="-76.7" font-family="arial" font-size="14.00"> X1:4:TX</text>
<text text-anchor="start" x="412.5" y="-76.7" font-family="arial" font-size="14.00"> </text>
<text text-anchor="start" x="427.75" y="-76.7" font-family="arial" font-size="14.00">4:YE</text>
<text text-anchor="start" x="470" y="-76.7" font-family="arial" font-size="14.00"> </text>
<text text-anchor="start" x="494.25" y="-76.7" font-family="arial" font-size="14.00">X2:3:RX </text>
<text text-anchor="start" x="368.75" y="-50.7" font-family="arial" font-size="14.00"> </text>
<text text-anchor="start" x="334.25" y="-30.7" font-family="arial" font-size="14.00"> X1:1:GND</text>
<text text-anchor="start" x="412.5" y="-30.7" font-family="arial" font-size="14.00"> </text>
<text text-anchor="start" x="423.25" y="-30.7" font-family="arial" font-size="14.00">Shield</text>
<text text-anchor="start" x="470" y="-30.7" font-family="arial" font-size="14.00"> </text>
<text text-anchor="start" x="548.25" y="-30.7" font-family="arial" font-size="14.00"> </text>
<text text-anchor="start" x="368.75" y="-4.7" font-family="arial" font-size="14.00"> </text>
</g>
<!-- X1&#45;&#45;W1 -->
<g id="edge1" class="edge">
<title>X1:e&#45;&#45;W1:w</title>
<path fill="none" stroke="#000000" stroke-width="2" d="M188.25,-141C252.76,-141.06 268.72,-145.06 332.25,-145"/>
<path fill="none" stroke="#ffffff" stroke-width="2" d="M188.25,-143C252.27,-143 268.23,-147 332.25,-147"/>
<path fill="none" stroke="#000000" stroke-width="2" d="M188.25,-145C251.78,-144.94 267.74,-148.94 332.25,-149"/>
</g>
<!-- X1&#45;&#45;W1 -->
<g id="edge2" class="edge">
<title>X1:e&#45;&#45;W1:w</title>
<path fill="none" stroke="#000000" stroke-width="2" d="M188.25,-117C252.51,-117.02 268.49,-119.02 332.25,-119"/>
<path fill="none" stroke="#895956" stroke-width="2" d="M188.25,-119C252.26,-119 268.24,-121 332.25,-121"/>
<path fill="none" stroke="#000000" stroke-width="2" d="M188.25,-121C252.01,-120.98 267.99,-122.98 332.25,-123"/>
</g>
<!-- X1&#45;&#45;W1 -->
<g id="edge3" class="edge">
<title>X1:e&#45;&#45;W1:w</title>
<path fill="none" stroke="#000000" stroke-width="2" d="M188.25,-93C252.25,-93 268.25,-93 332.25,-93"/>
<path fill="none" stroke="#00aa00" stroke-width="2" d="M188.25,-95C252.25,-95 268.25,-95 332.25,-95"/>
<path fill="none" stroke="#000000" stroke-width="2" d="M188.25,-97C252.25,-97 268.25,-97 332.25,-97"/>
</g>
<!-- X1&#45;&#45;W1 -->
<g id="edge4" class="edge">
<title>X1:e&#45;&#45;W1:w</title>
<path fill="none" stroke="#000000" stroke-width="2" d="M188.25,-69C252.01,-69.02 267.99,-67.02 332.25,-67"/>
<path fill="none" stroke="#ffff00" stroke-width="2" d="M188.25,-71C252.26,-71 268.24,-69 332.25,-69"/>
<path fill="none" stroke="#000000" stroke-width="2" d="M188.25,-73C252.51,-72.98 268.49,-70.98 332.25,-71"/>
</g>
<!-- X1&#45;&#45;W1 -->
<g id="edge5" class="edge">
<title>X1:e&#45;&#45;W1:w</title>
<path fill="none" stroke="#000000" stroke-width="2" d="M188.25,-143C271.56,-143 248.94,-23 332.25,-23"/>
</g>
<!-- W1&#45;&#45;W1 -->
<g id="edge6" class="edge">
<title>W1:e&#45;&#45;W1:w</title>
<path fill="none" stroke="#000000" stroke-width="2" d="M554,-149C480.08,-149 406.17,-149 332.25,-149"/>
<path fill="none" stroke="#ffffff" stroke-width="2" d="M554,-147C480.08,-147 406.17,-147 332.25,-147"/>
<path fill="none" stroke="#000000" stroke-width="2" d="M554,-145C480.08,-145 406.17,-145 332.25,-145"/>
</g>
<!-- W1&#45;&#45;W1 -->
<g id="edge7" class="edge">
<title>W1:e&#45;&#45;W1:w</title>
<path fill="none" stroke="#000000" stroke-width="2" d="M554,-123C480.08,-123 406.17,-123 332.25,-123"/>
<path fill="none" stroke="#895956" stroke-width="2" d="M554,-121C480.08,-121 406.17,-121 332.25,-121"/>
<path fill="none" stroke="#000000" stroke-width="2" d="M554,-119C480.08,-119 406.17,-119 332.25,-119"/>
</g>
<!-- W1&#45;&#45;W1 -->
<g id="edge8" class="edge">
<title>W1:e&#45;&#45;W1:w</title>
<path fill="none" stroke="#000000" stroke-width="2" d="M554,-97C480.08,-97 406.17,-97 332.25,-97"/>
<path fill="none" stroke="#00aa00" stroke-width="2" d="M554,-95C480.08,-95 406.17,-95 332.25,-95"/>
<path fill="none" stroke="#000000" stroke-width="2" d="M554,-93C480.08,-93 406.17,-93 332.25,-93"/>
</g>
<!-- W1&#45;&#45;W1 -->
<g id="edge9" class="edge">
<title>W1:e&#45;&#45;W1:w</title>
<path fill="none" stroke="#000000" stroke-width="2" d="M554,-71C480.08,-71 406.17,-71 332.25,-71"/>
<path fill="none" stroke="#ffff00" stroke-width="2" d="M554,-69C480.08,-69 406.17,-69 332.25,-69"/>
<path fill="none" stroke="#000000" stroke-width="2" d="M554,-67C480.08,-67 406.17,-67 332.25,-67"/>
</g>
<!-- W1&#45;&#45;W1 -->
<g id="edge10" class="edge">
<title>W1:e&#45;&#45;W1:w</title>
<path fill="none" stroke="#000000" stroke-width="2" d="M554,-23C480.08,-23 406.17,-23 332.25,-23"/>
</g>
<!-- X2 -->
<g id="node3" class="node">
<title>X2</title>
<polygon fill="#ffffff" stroke="black" points="886.25,-207 698,-207 698,-62 886.25,-62 886.25,-207"/>
<polygon fill="#ffffff" stroke="none" points="698,-62 698,-207 886.25,-207 886.25,-62 698,-62"/>
<polygon fill="none" stroke="black" points="698,-182.5 698,-207 886.25,-207 886.25,-182.5 698,-182.5"/>
<text text-anchor="start" x="783.12" y="-189.7" font-family="arial" font-size="14.00">X2</text>
<polygon fill="none" stroke="black" points="698,-158 698,-182.5 795.25,-182.5 795.25,-158 698,-158"/>
<text text-anchor="start" x="702" y="-165.2" font-family="arial" font-size="14.00">Molex KK 254</text>
<polygon fill="none" stroke="black" points="795.25,-158 795.25,-182.5 846.75,-182.5 846.75,-158 795.25,-158"/>
<text text-anchor="start" x="799.25" y="-165.2" font-family="arial" font-size="14.00">female</text>
<polygon fill="none" stroke="black" points="846.75,-158 846.75,-182.5 886.25,-182.5 886.25,-158 846.75,-158"/>
<text text-anchor="start" x="850.75" y="-165.2" font-family="arial" font-size="14.00">4&#45;pin</text>
<polygon fill="none" stroke="black" points="698,-134 698,-158 780.62,-158 780.62,-134 698,-134"/>
<text text-anchor="start" x="735.18" y="-140.7" font-family="arial" font-size="14.00">1</text>
<polygon fill="none" stroke="black" points="780.62,-134 780.62,-158 886.25,-158 886.25,-134 780.62,-134"/>
<text text-anchor="start" x="817.68" y="-140.7" font-family="arial" font-size="14.00">GND</text>
<polygon fill="none" stroke="black" points="698,-110 698,-134 780.62,-134 780.62,-110 698,-110"/>
<text text-anchor="start" x="735.18" y="-116.7" font-family="arial" font-size="14.00">2</text>
<polygon fill="none" stroke="black" points="780.62,-110 780.62,-134 886.25,-134 886.25,-110 780.62,-110"/>
<text text-anchor="start" x="818.06" y="-116.7" font-family="arial" font-size="14.00">VCC</text>
<polygon fill="none" stroke="black" points="698,-86 698,-110 780.62,-110 780.62,-86 698,-86"/>
<text text-anchor="start" x="735.18" y="-92.7" font-family="arial" font-size="14.00">3</text>
<polygon fill="none" stroke="black" points="780.62,-86 780.62,-110 886.25,-110 886.25,-86 780.62,-86"/>
<text text-anchor="start" x="823.31" y="-92.7" font-family="arial" font-size="14.00">RX</text>
<polygon fill="none" stroke="black" points="698,-62 698,-86 780.62,-86 780.62,-62 698,-62"/>
<text text-anchor="start" x="735.18" y="-68.7" font-family="arial" font-size="14.00">4</text>
<polygon fill="none" stroke="black" points="780.62,-62 780.62,-86 886.25,-86 886.25,-62 780.62,-62"/>
<text text-anchor="start" x="824.06" y="-68.7" font-family="arial" font-size="14.00">TX</text>
</g>
<!-- W1&#45;&#45;X2 -->
<g id="edge11" class="edge">
<title>W1:e&#45;&#45;X2:w</title>
<path fill="none" stroke="#000000" stroke-width="2" d="M554,-145C617.88,-145 633.88,-144 698,-144"/>
<path fill="none" stroke="#ffffff" stroke-width="2" d="M554,-147C618,-147 634,-146 698,-146"/>
<path fill="none" stroke="#000000" stroke-width="2" d="M554,-149C618.13,-149 634.13,-148 698,-148"/>
</g>
<!-- W1&#45;&#45;X2 -->
<g id="edge12" class="edge">
<title>W1:e&#45;&#45;X2:w</title>
<path fill="none" stroke="#000000" stroke-width="2" d="M554,-119C618.13,-119 634.13,-120 698,-120"/>
<path fill="none" stroke="#895956" stroke-width="2" d="M554,-121C618,-121 634,-122 698,-122"/>
<path fill="none" stroke="#000000" stroke-width="2" d="M554,-123C617.88,-123 633.88,-124 698,-124"/>
</g>
<!-- W1&#45;&#45;X2 -->
<g id="edge13" class="edge">
<title>W1:e&#45;&#45;X2:w</title>
<path fill="none" stroke="#000000" stroke-width="2" d="M554,-93C617.04,-93.86 631.68,-72.86 698,-72"/>
<path fill="none" stroke="#00aa00" stroke-width="2" d="M554,-95C618.68,-95 633.32,-74 698,-74"/>
<path fill="none" stroke="#000000" stroke-width="2" d="M554,-97C620.32,-96.14 634.96,-75.14 698,-76"/>
</g>
<!-- W1&#45;&#45;X2 -->
<g id="edge14" class="edge">
<title>W1:e&#45;&#45;X2:w</title>
<path fill="none" stroke="#000000" stroke-width="2" d="M554,-67C621.1,-68.16 634.54,-97.16 698,-96"/>
<path fill="none" stroke="#ffff00" stroke-width="2" d="M554,-69C619.28,-69 632.72,-98 698,-98"/>
<path fill="none" stroke="#000000" stroke-width="2" d="M554,-71C617.47,-69.84 630.91,-98.84 698,-100"/>
</g>
</g>
</svg>
