<?xml version="1.0" encoding="UTF-8" standalone="no"?>
<!DOCTYPE svg PUBLIC "-//W3C//DTD SVG 1.1//EN"
 "http://www.w3.org/Graphics/SVG/1.1/DTD/svg11.dtd">
<!-- Generated by graphviz version 12.2.1 (20241206.2353)
 -->
<!-- Pages: 1 -->
<svg width="784pt" height="198pt"
 viewBox="0.00 0.00 784.00 198.00" xmlns="http://www.w3.org/2000/svg" xmlns:xlink="http://www.w3.org/1999/xlink">
<g id="graph0" class="graph" transform="scale(1 1) rotate(0) translate(4 194)">
<polygon fill="#ffffff" stroke="none" points="-4,4 -4,-194 780,-194 780,4 -4,4"/>
<!-- AUTOGENERATED_F_05_1 -->
<g id="node1" class="node">
<title>AUTOGENERATED_F_05_1</title>
<polygon fill="#ffffff" stroke="black" points="184.25,-121.88 0,-121.88 0,-98.12 184.25,-98.12 184.25,-121.88"/>
<polygon fill="#ffffff" stroke="none" points="0,-98.12 0,-121.88 184.25,-121.88 184.25,-98.12 0,-98.12"/>
<polygon fill="none" stroke="black" points="0,-98.12 0,-121.88 86.75,-121.88 86.75,-98.12 0,-98.12"/>
<text text-anchor="start" x="4" y="-104.58" font-family="arial" font-size="14.00">Crimp ferrule</text>
<polygon fill="none" stroke="black" points="86.75,-98.12 86.75,-121.88 145.75,-121.88 145.75,-98.12 86.75,-98.12"/>
<text text-anchor="start" x="90.75" y="-104.58" font-family="arial" font-size="14.00">0.5 mm²</text>
<polygon fill="none" stroke="black" points="145.75,-98.12 145.75,-121.88 176.25,-121.88 176.25,-98.12 145.75,-98.12"/>
<text text-anchor="start" x="149.75" y="-104.58" font-family="arial" font-size="14.00">OG</text>
<polygon fill="#ff8000" stroke="none" points="176.25,-98.12 176.25,-121.88 184.25,-121.88 184.25,-98.12 176.25,-98.12"/>
<polygon fill="none" stroke="black" points="176.25,-98.12 176.25,-121.88 184.25,-121.88 184.25,-98.12 176.25,-98.12"/>
</g>
<!-- W1 -->
<g id="node5" class="node">
<title>W1</title>
<polygon fill="#ffffff" stroke="black" stroke-dasharray="5,2" points="466.25,-190 328.25,-190 328.25,0 466.25,0 466.25,-190"/>
<polygon fill="#ffffff" stroke="none" points="328.25,0 328.25,-190 466.25,-190 466.25,0 328.25,0"/>
<polygon fill="none" stroke="black" points="328.25,-166.25 328.25,-190 466.25,-190 466.25,-166.25 328.25,-166.25"/>
<text text-anchor="start" x="386.75" y="-172.7" font-family="arial" font-size="14.00">W1</text>
<polygon fill="none" stroke="black" points="328.25,-142.5 328.25,-166.25 355.25,-166.25 355.25,-142.5 328.25,-142.5"/>
<text text-anchor="start" x="334.62" y="-148.95" font-family="arial" font-size="14.00">4x</text>
<polygon fill="none" stroke="black" points="355.25,-142.5 355.25,-166.25 419,-166.25 419,-142.5 355.25,-142.5"/>
<text text-anchor="start" x="361.62" y="-148.95" font-family="arial" font-size="14.00">0.5 mm²</text>
<polygon fill="none" stroke="black" points="419,-142.5 419,-166.25 466.25,-166.25 466.25,-142.5 419,-142.5"/>
<text text-anchor="start" x="425.38" y="-148.95" font-family="arial" font-size="14.00">0.3 m</text>
<text text-anchor="start" x="338.12" y="-127.2" font-family="arial" font-size="14.00"> </text>
<text text-anchor="start" x="330.25" y="-107.45" font-family="arial" font-size="14.00"> </text>
<text text-anchor="start" x="353.75" y="-107.45" font-family="arial" font-size="14.00"> </text>
<text text-anchor="start" x="366.25" y="-107.45" font-family="arial" font-size="14.00">YE</text>
<text text-anchor="start" x="389" y="-107.45" font-family="arial" font-size="14.00"> </text>
<text text-anchor="start" x="396.75" y="-107.45" font-family="arial" font-size="14.00">X1:1:+12V </text>
<polygon fill="#000000" stroke="none" points="328.25,-101 328.25,-103 466.25,-103 466.25,-101 328.25,-101"/>
<polygon fill="#ffff00" stroke="none" points="328.25,-99 328.25,-101 466.25,-101 466.25,-99 328.25,-99"/>
<polygon fill="#000000" stroke="none" points="328.25,-97 328.25,-99 466.25,-99 466.25,-97 328.25,-97"/>
<text text-anchor="start" x="330.25" y="-81.7" font-family="arial" font-size="14.00"> F1</text>
<text text-anchor="start" x="353.75" y="-81.7" font-family="arial" font-size="14.00"> </text>
<text text-anchor="start" x="366.25" y="-81.7" font-family="arial" font-size="14.00">BK</text>
<text text-anchor="start" x="389" y="-81.7" font-family="arial" font-size="14.00"> </text>
<text text-anchor="start" x="398.25" y="-81.7" font-family="arial" font-size="14.00">X1:2:GND </text>
<polygon fill="#000000" stroke="none" points="328.25,-75.25 328.25,-77.25 466.25,-77.25 466.25,-75.25 328.25,-75.25"/>
<polygon fill="#000000" stroke="none" points="328.25,-73.25 328.25,-75.25 466.25,-75.25 466.25,-73.25 328.25,-73.25"/>
<polygon fill="#000000" stroke="none" points="328.25,-71.25 328.25,-73.25 466.25,-73.25 466.25,-71.25 328.25,-71.25"/>
<text text-anchor="start" x="330.25" y="-55.95" font-family="arial" font-size="14.00"> F1</text>
<text text-anchor="start" x="353.75" y="-55.95" font-family="arial" font-size="14.00"> </text>
<text text-anchor="start" x="366.25" y="-55.95" font-family="arial" font-size="14.00">BK</text>
<text text-anchor="start" x="389" y="-55.95" font-family="arial" font-size="14.00"> </text>
<text text-anchor="start" x="398.25" y="-55.95" font-family="arial" font-size="14.00">X1:3:GND </text>
<polygon fill="#000000" stroke="none" points="328.25,-49.5 328.25,-51.5 466.25,-51.5 466.25,-49.5 328.25,-49.5"/>
<polygon fill="#000000" stroke="none" points="328.25,-47.5 328.25,-49.5 466.25,-49.5 466.25,-47.5 328.25,-47.5"/>
<polygon fill="#000000" stroke="none" points="328.25,-45.5 328.25,-47.5 466.25,-47.5 466.25,-45.5 328.25,-45.5"/>
<text text-anchor="start" x="330.25" y="-30.2" font-family="arial" font-size="14.00"> </text>
<text text-anchor="start" x="353.75" y="-30.2" font-family="arial" font-size="14.00"> </text>
<text text-anchor="start" x="365.5" y="-30.2" font-family="arial" font-size="14.00">RD</text>
<text text-anchor="start" x="389" y="-30.2" font-family="arial" font-size="14.00"> </text>
<text text-anchor="start" x="404.25" y="-30.2" font-family="arial" font-size="14.00">X1:4:+5V </text>
<polygon fill="#000000" stroke="none" points="328.25,-23.75 328.25,-25.75 466.25,-25.75 466.25,-23.75 328.25,-23.75"/>
<polygon fill="#ff0000" stroke="none" points="328.25,-21.75 328.25,-23.75 466.25,-23.75 466.25,-21.75 328.25,-21.75"/>
<polygon fill="#000000" stroke="none" points="328.25,-19.75 328.25,-21.75 466.25,-21.75 466.25,-19.75 328.25,-19.75"/>
<text text-anchor="start" x="338.12" y="-4.45" font-family="arial" font-size="14.00"> </text>
</g>
<!-- AUTOGENERATED_F_05_1&#45;&#45;W1 -->
<g id="edge1" class="edge">
<title>AUTOGENERATED_F_05_1:e&#45;&#45;W1:w</title>
<path fill="none" stroke="#000000" stroke-width="2" d="M184.25,-108C247.33,-108.31 263.02,-98.31 328.25,-98"/>
<path fill="none" stroke="#ffff00" stroke-width="2" d="M184.25,-110C248.4,-110 264.1,-100 328.25,-100"/>
<path fill="none" stroke="#000000" stroke-width="2" d="M184.25,-112C249.48,-111.69 265.17,-101.69 328.25,-102"/>
</g>
<!-- F1 -->
<g id="node2" class="node">
<title>F1</title>
<polygon fill="#ffffff" stroke="black" points="182,-73.88 2.25,-73.88 2.25,-50.12 182,-50.12 182,-73.88"/>
<polygon fill="#ffffff" stroke="none" points="2.25,-50.12 2.25,-73.88 182,-73.88 182,-50.12 2.25,-50.12"/>
<polygon fill="none" stroke="black" points="2.25,-50.12 2.25,-73.88 89,-73.88 89,-50.12 2.25,-50.12"/>
<text text-anchor="start" x="6.25" y="-56.58" font-family="arial" font-size="14.00">Crimp ferrule</text>
<polygon fill="none" stroke="black" points="89,-50.12 89,-73.88 148,-73.88 148,-50.12 89,-50.12"/>
<text text-anchor="start" x="93" y="-56.58" font-family="arial" font-size="14.00">1.0 mm²</text>
<polygon fill="none" stroke="black" points="148,-50.12 148,-73.88 174,-73.88 174,-50.12 148,-50.12"/>
<text text-anchor="start" x="152" y="-56.58" font-family="arial" font-size="14.00">YE</text>
<polygon fill="#ffff00" stroke="none" points="174,-50.12 174,-73.88 182,-73.88 182,-50.12 174,-50.12"/>
<polygon fill="none" stroke="black" points="174,-50.12 174,-73.88 182,-73.88 182,-50.12 174,-50.12"/>
</g>
<!-- F1&#45;&#45;W1 -->
<g id="edge3" class="edge">
<title>F1:e&#45;&#45;W1:w</title>
<path fill="none" stroke="#000000" stroke-width="2" d="M183,-60C249.02,-60.42 264.7,-72.67 328.25,-72.25"/>
<path fill="none" stroke="#000000" stroke-width="2" d="M183,-62C247.78,-62 263.47,-74.25 328.25,-74.25"/>
<path fill="none" stroke="#000000" stroke-width="2" d="M183,-64C246.55,-63.58 262.23,-75.83 328.25,-76.25"/>
</g>
<!-- F1&#45;&#45;W1 -->
<g id="edge5" class="edge">
<title>F1:e&#45;&#45;W1:w</title>
<path fill="none" stroke="#000000" stroke-width="2" d="M183,-60C246.52,-60.49 262.11,-46.99 328.25,-46.5"/>
<path fill="none" stroke="#000000" stroke-width="2" d="M183,-62C247.83,-62 263.42,-48.5 328.25,-48.5"/>
<path fill="none" stroke="#000000" stroke-width="2" d="M183,-64C249.14,-63.51 264.73,-50.01 328.25,-50.5"/>
</g>
<!-- AUTOGENERATED_F_05_2 -->
<g id="node3" class="node">
<title>AUTOGENERATED_F_05_2</title>
<polygon fill="#ffffff" stroke="black" points="184.25,-25.88 0,-25.88 0,-2.12 184.25,-2.12 184.25,-25.88"/>
<polygon fill="#ffffff" stroke="none" points="0,-2.12 0,-25.88 184.25,-25.88 184.25,-2.12 0,-2.12"/>
<polygon fill="none" stroke="black" points="0,-2.12 0,-25.88 86.75,-25.88 86.75,-2.12 0,-2.12"/>
<text text-anchor="start" x="4" y="-8.57" font-family="arial" font-size="14.00">Crimp ferrule</text>
<polygon fill="none" stroke="black" points="86.75,-2.12 86.75,-25.88 145.75,-25.88 145.75,-2.12 86.75,-2.12"/>
<text text-anchor="start" x="90.75" y="-8.57" font-family="arial" font-size="14.00">0.5 mm²</text>
<polygon fill="none" stroke="black" points="145.75,-2.12 145.75,-25.88 176.25,-25.88 176.25,-2.12 145.75,-2.12"/>
<text text-anchor="start" x="149.75" y="-8.57" font-family="arial" font-size="14.00">OG</text>
<polygon fill="#ff8000" stroke="none" points="176.25,-2.12 176.25,-25.88 184.25,-25.88 184.25,-2.12 176.25,-2.12"/>
<polygon fill="none" stroke="black" points="176.25,-2.12 176.25,-25.88 184.25,-25.88 184.25,-2.12 176.25,-2.12"/>
</g>
<!-- AUTOGENERATED_F_05_2&#45;&#45;W1 -->
<g id="edge7" class="edge">
<title>AUTOGENERATED_F_05_2:e&#45;&#45;W1:w</title>
<path fill="none" stroke="#000000" stroke-width="2" d="M184.25,-12C249.34,-12.25 265.1,-21 328.25,-20.75"/>
<path fill="none" stroke="#ff0000" stroke-width="2" d="M184.25,-14C248.37,-14 264.13,-22.75 328.25,-22.75"/>
<path fill="none" stroke="#000000" stroke-width="2" d="M184.25,-16C247.4,-15.75 263.16,-24.5 328.25,-24.75"/>
</g>
<!-- X1 -->
<g id="node4" class="node">
<title>X1</title>
<polygon fill="#ffffff" stroke="black" points="776,-157.25 610.25,-157.25 610.25,-14.75 776,-14.75 776,-157.25"/>
<polygon fill="#ffffff" stroke="none" points="610.25,-14.75 610.25,-157.25 776,-157.25 776,-14.75 610.25,-14.75"/>
<polygon fill="none" stroke="black" points="610.25,-133.5 610.25,-157.25 776,-157.25 776,-133.5 610.25,-133.5"/>
<text text-anchor="start" x="684.88" y="-139.95" font-family="arial" font-size="14.00">X1</text>
<polygon fill="none" stroke="black" points="610.25,-109.75 610.25,-133.5 688.75,-133.5 688.75,-109.75 610.25,-109.75"/>
<text text-anchor="start" x="614.25" y="-116.2" font-family="arial" font-size="14.00">Molex 8981</text>
<polygon fill="none" stroke="black" points="688.75,-109.75 688.75,-133.5 738,-133.5 738,-109.75 688.75,-109.75"/>
<text text-anchor="start" x="692.75" y="-116.2" font-family="arial" font-size="14.00">female</text>
<polygon fill="none" stroke="black" points="738,-109.75 738,-133.5 776,-133.5 776,-109.75 738,-109.75"/>
<text text-anchor="start" x="742" y="-116.2" font-family="arial" font-size="14.00">4&#45;pin</text>
<polygon fill="none" stroke="black" points="610.25,-86 610.25,-109.75 680.75,-109.75 680.75,-86 610.25,-86"/>
<text text-anchor="start" x="641.75" y="-92.45" font-family="arial" font-size="14.00">1</text>
<polygon fill="none" stroke="black" points="680.75,-86 680.75,-109.75 776,-109.75 776,-86 680.75,-86"/>
<text text-anchor="start" x="712.25" y="-92.45" font-family="arial" font-size="14.00">+12V</text>
<polygon fill="none" stroke="black" points="610.25,-62.25 610.25,-86 680.75,-86 680.75,-62.25 610.25,-62.25"/>
<text text-anchor="start" x="641.75" y="-68.7" font-family="arial" font-size="14.00">2</text>
<polygon fill="none" stroke="black" points="680.75,-62.25 680.75,-86 776,-86 776,-62.25 680.75,-62.25"/>
<text text-anchor="start" x="713" y="-68.7" font-family="arial" font-size="14.00">GND</text>
<polygon fill="none" stroke="black" points="610.25,-38.5 610.25,-62.25 680.75,-62.25 680.75,-38.5 610.25,-38.5"/>
<text text-anchor="start" x="641.75" y="-44.95" font-family="arial" font-size="14.00">3</text>
<polygon fill="none" stroke="black" points="680.75,-38.5 680.75,-62.25 776,-62.25 776,-38.5 680.75,-38.5"/>
<text text-anchor="start" x="713" y="-44.95" font-family="arial" font-size="14.00">GND</text>
<polygon fill="none" stroke="black" points="610.25,-14.75 610.25,-38.5 680.75,-38.5 680.75,-14.75 610.25,-14.75"/>
<text text-anchor="start" x="641.75" y="-21.2" font-family="arial" font-size="14.00">4</text>
<polygon fill="none" stroke="black" points="680.75,-14.75 680.75,-38.5 776,-38.5 776,-14.75 680.75,-14.75"/>
<text text-anchor="start" x="716" y="-21.2" font-family="arial" font-size="14.00">+5V</text>
</g>
<!-- W1&#45;&#45;X1 -->
<g id="edge2" class="edge">
<title>W1:e&#45;&#45;X1:w</title>
<path fill="none" stroke="#000000" stroke-width="2" d="M466.25,-98C529.99,-98.02 545.98,-95.89 610.25,-95.88"/>
<path fill="none" stroke="#ffff00" stroke-width="2" d="M466.25,-100C530.26,-100 546.24,-97.88 610.25,-97.88"/>
<path fill="none" stroke="#000000" stroke-width="2" d="M466.25,-102C530.52,-101.98 546.51,-99.86 610.25,-99.87"/>
</g>
<!-- W1&#45;&#45;X1 -->
<g id="edge4" class="edge">
<title>W1:e&#45;&#45;X1:w</title>
<path fill="none" stroke="#000000" stroke-width="2" d="M466.25,-72.25C530.23,-72.25 546.23,-72.13 610.25,-72.13"/>
<path fill="none" stroke="#000000" stroke-width="2" d="M466.25,-74.25C530.25,-74.25 546.25,-74.12 610.25,-74.12"/>
<path fill="none" stroke="#000000" stroke-width="2" d="M466.25,-76.25C530.27,-76.25 546.27,-76.12 610.25,-76.12"/>
</g>
<!-- W1&#45;&#45;X1 -->
<g id="edge6" class="edge">
<title>W1:e&#45;&#45;X1:w</title>
<path fill="none" stroke="#000000" stroke-width="2" d="M466.25,-46.5C530.49,-46.51 546.48,-48.39 610.25,-48.38"/>
<path fill="none" stroke="#000000" stroke-width="2" d="M466.25,-48.5C530.26,-48.5 546.24,-50.38 610.25,-50.38"/>
<path fill="none" stroke="#000000" stroke-width="2" d="M466.25,-50.5C530.02,-50.49 546.01,-52.36 610.25,-52.37"/>
</g>
<!-- W1&#45;&#45;X1 -->
<g id="edge8" class="edge">
<title>W1:e&#45;&#45;X1:w</title>
<path fill="none" stroke="#000000" stroke-width="2" d="M466.25,-20.75C530.75,-20.81 546.7,-24.68 610.25,-24.63"/>
<path fill="none" stroke="#ff0000" stroke-width="2" d="M466.25,-22.75C530.27,-22.75 546.23,-26.63 610.25,-26.62"/>
<path fill="none" stroke="#000000" stroke-width="2" d="M466.25,-24.75C529.8,-24.69 545.75,-28.57 610.25,-28.62"/>
</g>
</g>
</svg>
