<?xml version="1.0" encoding="UTF-8" standalone="no"?>
<!DOCTYPE svg PUBLIC "-//W3C//DTD SVG 1.1//EN"
 "http://www.w3.org/Graphics/SVG/1.1/DTD/svg11.dtd">
<!-- Generated by graphviz version 11.0.0 (20240428.1522)
 -->
<!-- Pages: 1 -->
<svg width="950pt" height="247pt"
 viewBox="0.00 0.00 950.25 247.00" xmlns="http://www.w3.org/2000/svg" xmlns:xlink="http://www.w3.org/1999/xlink">
<g id="graph0" class="graph" transform="scale(1 1) rotate(0) translate(4 243)">
<polygon fill="#ffffff" stroke="none" points="-4,4 -4,-243 946.25,-243 946.25,4 -4,4"/>
<!-- X1 -->
<g id="node1" class="node">
<title>X1</title>
<polygon fill="#ffffff" stroke="black" points="188.25,-204 0,-204 0,-59 188.25,-59 188.25,-204"/>
<polygon fill="#ffffff" stroke="none" points="0,-59 0,-204 188.25,-204 188.25,-59 0,-59"/>
<polygon fill="none" stroke="black" points="0,-179.5 0,-204 188.25,-204 188.25,-179.5 0,-179.5"/>
<text text-anchor="start" x="85.13" y="-186.7" font-family="arial" font-size="14.00">X1</text>
<polygon fill="none" stroke="black" points="0,-155 0,-179.5 97.25,-179.5 97.25,-155 0,-155"/>
<text text-anchor="start" x="4" y="-162.2" font-family="arial" font-size="14.00">Molex KK 254</text>
<polygon fill="none" stroke="black" points="97.25,-155 97.25,-179.5 148.75,-179.5 148.75,-155 97.25,-155"/>
<text text-anchor="start" x="101.25" y="-162.2" font-family="arial" font-size="14.00">female</text>
<polygon fill="none" stroke="black" points="148.75,-155 148.75,-179.5 188.25,-179.5 188.25,-155 148.75,-155"/>
<text text-anchor="start" x="152.75" y="-162.2" font-family="arial" font-size="14.00">4&#45;pin</text>
<polygon fill="none" stroke="black" points="0,-131 0,-155 105.63,-155 105.63,-131 0,-131"/>
<text text-anchor="start" x="37.06" y="-137.7" font-family="arial" font-size="14.00">GND</text>
<polygon fill="none" stroke="black" points="105.63,-131 105.63,-155 188.25,-155 188.25,-131 105.63,-131"/>
<text text-anchor="start" x="142.81" y="-137.7" font-family="arial" font-size="14.00">1</text>
<polygon fill="none" stroke="black" points="0,-107 0,-131 105.63,-131 105.63,-107 0,-107"/>
<text text-anchor="start" x="37.44" y="-113.7" font-family="arial" font-size="14.00">VCC</text>
<polygon fill="none" stroke="black" points="105.63,-107 105.63,-131 188.25,-131 188.25,-107 105.63,-107"/>
<text text-anchor="start" x="142.81" y="-113.7" font-family="arial" font-size="14.00">2</text>
<polygon fill="none" stroke="black" points="0,-83 0,-107 105.63,-107 105.63,-83 0,-83"/>
<text text-anchor="start" x="42.69" y="-89.7" font-family="arial" font-size="14.00">RX</text>
<polygon fill="none" stroke="black" points="105.63,-83 105.63,-107 188.25,-107 188.25,-83 105.63,-83"/>
<text text-anchor="start" x="142.81" y="-89.7" font-family="arial" font-size="14.00">3</text>
<polygon fill="none" stroke="black" points="0,-59 0,-83 105.63,-83 105.63,-59 0,-59"/>
<text text-anchor="start" x="43.44" y="-65.7" font-family="arial" font-size="14.00">TX</text>
<polygon fill="none" stroke="black" points="105.63,-59 105.63,-83 188.25,-83 188.25,-59 105.63,-59"/>
<text text-anchor="start" x="142.81" y="-65.7" font-family="arial" font-size="14.00">4</text>
</g>
<!-- W1 -->
<g id="node2" class="node">
<title>W1</title>
<polygon fill="#ffffff" stroke="black" points="610,-239 332.25,-239 332.25,0 610,0 610,-239"/>
<polygon fill="#ffffff" stroke="none" points="332.25,0 332.25,-239 610,-239 610,0 332.25,0"/>
<polygon fill="none" stroke="black" points="332.25,-214.5 332.25,-239 610,-239 610,-214.5 332.25,-214.5"/>
<text text-anchor="start" x="459.87" y="-221.7" font-family="arial" font-size="14.00">W1</text>
<polygon fill="none" stroke="black" points="332.25,-190 332.25,-214.5 376.25,-214.5 376.25,-190 332.25,-190"/>
<text text-anchor="start" x="336.25" y="-197.2" font-family="arial" font-size="14.00">Serial</text>
<polygon fill="none" stroke="black" points="376.25,-190 376.25,-214.5 399.25,-214.5 399.25,-190 376.25,-190"/>
<text text-anchor="start" x="380.25" y="-197.2" font-family="arial" font-size="14.00">4x</text>
<polygon fill="none" stroke="black" points="399.25,-190 399.25,-214.5 536.25,-214.5 536.25,-190 399.25,-190"/>
<text text-anchor="start" x="403.25" y="-197.2" font-family="arial" font-size="14.00">0.25 mm² (24 AWG)</text>
<polygon fill="none" stroke="black" points="536.25,-190 536.25,-214.5 566,-214.5 566,-190 536.25,-190"/>
<text text-anchor="start" x="540.25" y="-197.2" font-family="arial" font-size="14.00">+ S</text>
<polygon fill="none" stroke="black" points="566,-190 566,-214.5 610,-214.5 610,-190 566,-190"/>
<text text-anchor="start" x="570" y="-197.2" font-family="arial" font-size="14.00">0.2 m</text>
<text text-anchor="start" x="374.35" y="-174.7" font-family="arial" font-size="14.00"> </text>
<text text-anchor="start" x="334.25" y="-154.7" font-family="arial" font-size="14.00"> X1:1:GND</text>
<text text-anchor="start" x="429.3" y="-154.7" font-family="arial" font-size="14.00"> </text>
<text text-anchor="start" x="455.37" y="-154.7" font-family="arial" font-size="14.00">1:BN</text>
<text text-anchor="start" x="509.2" y="-154.7" font-family="arial" font-size="14.00"> </text>
<text text-anchor="start" x="539" y="-154.7" font-family="arial" font-size="14.00">X2:1:GND </text>
<text text-anchor="start" x="334.25" y="-128.7" font-family="arial" font-size="14.00"> X1:2:VCC</text>
<text text-anchor="start" x="429.3" y="-128.7" font-family="arial" font-size="14.00"> </text>
<text text-anchor="start" x="454.62" y="-128.7" font-family="arial" font-size="14.00">2:RD</text>
<text text-anchor="start" x="509.2" y="-128.7" font-family="arial" font-size="14.00"> </text>
<text text-anchor="start" x="539.75" y="-128.7" font-family="arial" font-size="14.00">X2:2:VCC </text>
<text text-anchor="start" x="334.25" y="-102.7" font-family="arial" font-size="14.00"> X1:3:RX</text>
<text text-anchor="start" x="429.3" y="-102.7" font-family="arial" font-size="14.00"> </text>
<text text-anchor="start" x="453.87" y="-102.7" font-family="arial" font-size="14.00">3:OG</text>
<text text-anchor="start" x="509.2" y="-102.7" font-family="arial" font-size="14.00"> </text>
<text text-anchor="start" x="551.75" y="-102.7" font-family="arial" font-size="14.00">X2:4:TX </text>
<text text-anchor="start" x="334.25" y="-76.7" font-family="arial" font-size="14.00"> X1:4:TX</text>
<text text-anchor="start" x="429.3" y="-76.7" font-family="arial" font-size="14.00"> </text>
<text text-anchor="start" x="455.75" y="-76.7" font-family="arial" font-size="14.00">4:YE</text>
<text text-anchor="start" x="509.2" y="-76.7" font-family="arial" font-size="14.00"> </text>
<text text-anchor="start" x="550.25" y="-76.7" font-family="arial" font-size="14.00">X2:3:RX </text>
<text text-anchor="start" x="374.35" y="-50.7" font-family="arial" font-size="14.00"> </text>
<text text-anchor="start" x="334.25" y="-30.7" font-family="arial" font-size="14.00"> X1:1:GND</text>
<text text-anchor="start" x="429.3" y="-30.7" font-family="arial" font-size="14.00"> </text>
<text text-anchor="start" x="451.25" y="-30.7" font-family="arial" font-size="14.00">Shield</text>
<text text-anchor="start" x="509.2" y="-30.7" font-family="arial" font-size="14.00"> </text>
<text text-anchor="start" x="604.25" y="-30.7" font-family="arial" font-size="14.00"> </text>
<text text-anchor="start" x="374.35" y="-4.7" font-family="arial" font-size="14.00"> </text>
</g>
<!-- X1&#45;&#45;W1 -->
<g id="edge1" class="edge">
<title>X1:e&#45;&#45;W1:w</title>
<path fill="none" stroke="#000000" stroke-width="2" d="M188.25,-141C252.76,-141.06 268.72,-145.06 332.25,-145"/>
<path fill="none" stroke="#895956" stroke-width="2" d="M188.25,-143C252.27,-143 268.23,-147 332.25,-147"/>
<path fill="none" stroke="#000000" stroke-width="2" d="M188.25,-145C251.78,-144.94 267.74,-148.94 332.25,-149"/>
</g>
<!-- X1&#45;&#45;W1 -->
<g id="edge2" class="edge">
<title>X1:e&#45;&#45;W1:w</title>
<path fill="none" stroke="#000000" stroke-width="2" d="M188.25,-117C252.51,-117.02 268.49,-119.02 332.25,-119"/>
<path fill="none" stroke="#ff0000" stroke-width="2" d="M188.25,-119C252.26,-119 268.24,-121 332.25,-121"/>
<path fill="none" stroke="#000000" stroke-width="2" d="M188.25,-121C252.01,-120.98 267.99,-122.98 332.25,-123"/>
</g>
<!-- X1&#45;&#45;W1 -->
<g id="edge3" class="edge">
<title>X1:e&#45;&#45;W1:w</title>
<path fill="none" stroke="#000000" stroke-width="2" d="M188.25,-93C252.25,-93 268.25,-93 332.25,-93"/>
<path fill="none" stroke="#ff8000" stroke-width="2" d="M188.25,-95C252.25,-95 268.25,-95 332.25,-95"/>
<path fill="none" stroke="#000000" stroke-width="2" d="M188.25,-97C252.25,-97 268.25,-97 332.25,-97"/>
</g>
<!-- X1&#45;&#45;W1 -->
<g id="edge4" class="edge">
<title>X1:e&#45;&#45;W1:w</title>
<path fill="none" stroke="#000000" stroke-width="2" d="M188.25,-69C252.01,-69.02 267.99,-67.02 332.25,-67"/>
<path fill="none" stroke="#ffff00" stroke-width="2" d="M188.25,-71C252.26,-71 268.24,-69 332.25,-69"/>
<path fill="none" stroke="#000000" stroke-width="2" d="M188.25,-73C252.51,-72.98 268.49,-70.98 332.25,-71"/>
</g>
<!-- X1&#45;&#45;W1 -->
<g id="edge5" class="edge">
<title>X1:e&#45;&#45;W1:w</title>
<path fill="none" stroke="#000000" stroke-width="2" d="M188.25,-143C271.56,-143 248.94,-23 332.25,-23"/>
</g>
<!-- W1&#45;&#45;W1 -->
<g id="edge6" class="edge">
<title>W1:e&#45;&#45;W1:w</title>
<path fill="none" stroke="#000000" stroke-width="2" d="M610,-149C517.42,-149 424.83,-149 332.25,-149"/>
<path fill="none" stroke="#895956" stroke-width="2" d="M610,-147C517.42,-147 424.83,-147 332.25,-147"/>
<path fill="none" stroke="#000000" stroke-width="2" d="M610,-145C517.42,-145 424.83,-145 332.25,-145"/>
</g>
<!-- W1&#45;&#45;W1 -->
<g id="edge7" class="edge">
<title>W1:e&#45;&#45;W1:w</title>
<path fill="none" stroke="#000000" stroke-width="2" d="M610,-123C517.42,-123 424.83,-123 332.25,-123"/>
<path fill="none" stroke="#ff0000" stroke-width="2" d="M610,-121C517.42,-121 424.83,-121 332.25,-121"/>
<path fill="none" stroke="#000000" stroke-width="2" d="M610,-119C517.42,-119 424.83,-119 332.25,-119"/>
</g>
<!-- W1&#45;&#45;W1 -->
<g id="edge8" class="edge">
<title>W1:e&#45;&#45;W1:w</title>
<path fill="none" stroke="#000000" stroke-width="2" d="M610,-97C517.42,-97 424.83,-97 332.25,-97"/>
<path fill="none" stroke="#ff8000" stroke-width="2" d="M610,-95C517.42,-95 424.83,-95 332.25,-95"/>
<path fill="none" stroke="#000000" stroke-width="2" d="M610,-93C517.42,-93 424.83,-93 332.25,-93"/>
</g>
<!-- W1&#45;&#45;W1 -->
<g id="edge9" class="edge">
<title>W1:e&#45;&#45;W1:w</title>
<path fill="none" stroke="#000000" stroke-width="2" d="M610,-71C517.42,-71 424.83,-71 332.25,-71"/>
<path fill="none" stroke="#ffff00" stroke-width="2" d="M610,-69C517.42,-69 424.83,-69 332.25,-69"/>
<path fill="none" stroke="#000000" stroke-width="2" d="M610,-67C517.42,-67 424.83,-67 332.25,-67"/>
</g>
<!-- W1&#45;&#45;W1 -->
<g id="edge10" class="edge">
<title>W1:e&#45;&#45;W1:w</title>
<path fill="none" stroke="#000000" stroke-width="2" d="M610,-23C517.42,-23 424.83,-23 332.25,-23"/>
</g>
<!-- X2 -->
<g id="node3" class="node">
<title>X2</title>
<polygon fill="#ffffff" stroke="black" points="942.25,-207 754,-207 754,-62 942.25,-62 942.25,-207"/>
<polygon fill="#ffffff" stroke="none" points="754,-62 754,-207 942.25,-207 942.25,-62 754,-62"/>
<polygon fill="none" stroke="black" points="754,-182.5 754,-207 942.25,-207 942.25,-182.5 754,-182.5"/>
<text text-anchor="start" x="839.12" y="-189.7" font-family="arial" font-size="14.00">X2</text>
<polygon fill="none" stroke="black" points="754,-158 754,-182.5 851.25,-182.5 851.25,-158 754,-158"/>
<text text-anchor="start" x="758" y="-165.2" font-family="arial" font-size="14.00">Molex KK 254</text>
<polygon fill="none" stroke="black" points="851.25,-158 851.25,-182.5 902.75,-182.5 902.75,-158 851.25,-158"/>
<text text-anchor="start" x="855.25" y="-165.2" font-family="arial" font-size="14.00">female</text>
<polygon fill="none" stroke="black" points="902.75,-158 902.75,-182.5 942.25,-182.5 942.25,-158 902.75,-158"/>
<text text-anchor="start" x="906.75" y="-165.2" font-family="arial" font-size="14.00">4&#45;pin</text>
<polygon fill="none" stroke="black" points="754,-134 754,-158 836.62,-158 836.62,-134 754,-134"/>
<text text-anchor="start" x="791.18" y="-140.7" font-family="arial" font-size="14.00">1</text>
<polygon fill="none" stroke="black" points="836.62,-134 836.62,-158 942.25,-158 942.25,-134 836.62,-134"/>
<text text-anchor="start" x="873.68" y="-140.7" font-family="arial" font-size="14.00">GND</text>
<polygon fill="none" stroke="black" points="754,-110 754,-134 836.62,-134 836.62,-110 754,-110"/>
<text text-anchor="start" x="791.18" y="-116.7" font-family="arial" font-size="14.00">2</text>
<polygon fill="none" stroke="black" points="836.62,-110 836.62,-134 942.25,-134 942.25,-110 836.62,-110"/>
<text text-anchor="start" x="874.06" y="-116.7" font-family="arial" font-size="14.00">VCC</text>
<polygon fill="none" stroke="black" points="754,-86 754,-110 836.62,-110 836.62,-86 754,-86"/>
<text text-anchor="start" x="791.18" y="-92.7" font-family="arial" font-size="14.00">3</text>
<polygon fill="none" stroke="black" points="836.62,-86 836.62,-110 942.25,-110 942.25,-86 836.62,-86"/>
<text text-anchor="start" x="879.31" y="-92.7" font-family="arial" font-size="14.00">RX</text>
<polygon fill="none" stroke="black" points="754,-62 754,-86 836.62,-86 836.62,-62 754,-62"/>
<text text-anchor="start" x="791.18" y="-68.7" font-family="arial" font-size="14.00">4</text>
<polygon fill="none" stroke="black" points="836.62,-62 836.62,-86 942.25,-86 942.25,-62 836.62,-62"/>
<text text-anchor="start" x="880.06" y="-68.7" font-family="arial" font-size="14.00">TX</text>
</g>
<!-- W1&#45;&#45;X2 -->
<g id="edge11" class="edge">
<title>W1:e&#45;&#45;X2:w</title>
<path fill="none" stroke="#000000" stroke-width="2" d="M610,-145C673.88,-145 689.88,-144 754,-144"/>
<path fill="none" stroke="#895956" stroke-width="2" d="M610,-147C674,-147 690,-146 754,-146"/>
<path fill="none" stroke="#000000" stroke-width="2" d="M610,-149C674.13,-149 690.13,-148 754,-148"/>
</g>
<!-- W1&#45;&#45;X2 -->
<g id="edge12" class="edge">
<title>W1:e&#45;&#45;X2:w</title>
<path fill="none" stroke="#000000" stroke-width="2" d="M610,-119C674.13,-119 690.13,-120 754,-120"/>
<path fill="none" stroke="#ff0000" stroke-width="2" d="M610,-121C674,-121 690,-122 754,-122"/>
<path fill="none" stroke="#000000" stroke-width="2" d="M610,-123C673.88,-123 689.88,-124 754,-124"/>
</g>
<!-- W1&#45;&#45;X2 -->
<g id="edge13" class="edge">
<title>W1:e&#45;&#45;X2:w</title>
<path fill="none" stroke="#000000" stroke-width="2" d="M610,-93C673.04,-93.86 687.68,-72.86 754,-72"/>
<path fill="none" stroke="#ff8000" stroke-width="2" d="M610,-95C674.68,-95 689.32,-74 754,-74"/>
<path fill="none" stroke="#000000" stroke-width="2" d="M610,-97C676.32,-96.14 690.96,-75.14 754,-76"/>
</g>
<!-- W1&#45;&#45;X2 -->
<g id="edge14" class="edge">
<title>W1:e&#45;&#45;X2:w</title>
<path fill="none" stroke="#000000" stroke-width="2" d="M610,-67C677.1,-68.16 690.54,-97.16 754,-96"/>
<path fill="none" stroke="#ffff00" stroke-width="2" d="M610,-69C675.28,-69 688.72,-98 754,-98"/>
<path fill="none" stroke="#000000" stroke-width="2" d="M610,-71C673.47,-69.84 686.91,-98.84 754,-100"/>
</g>
</g>
</svg>
