<?xml version="1.0" encoding="UTF-8" standalone="no"?>
<!DOCTYPE svg PUBLIC "-//W3C//DTD SVG 1.1//EN"
 "http://www.w3.org/Graphics/SVG/1.1/DTD/svg11.dtd">
<!-- Generated by graphviz version 12.2.1 (20241206.2353)
 -->
<!-- Pages: 1 -->
<svg width="859pt" height="341pt"
 viewBox="0.00 0.00 858.50 341.00" xmlns="http://www.w3.org/2000/svg" xmlns:xlink="http://www.w3.org/1999/xlink">
<g id="graph0" class="graph" transform="scale(1 1) rotate(0) translate(4 337)">
<polygon fill="#ffffff" stroke="none" points="-4,4 -4,-337 854.5,-337 854.5,4 -4,4"/>
<!-- X1 -->
<g id="node1" class="node">
<title>X1</title>
<polygon fill="#ffffff" stroke="black" points="177.75,-214 0,-214 0,-119 177.75,-119 177.75,-214"/>
<polygon fill="#ffffff" stroke="none" points="0,-119 0,-214 177.75,-214 177.75,-119 0,-119"/>
<polygon fill="none" stroke="black" points="0,-190.25 0,-214 177.75,-214 177.75,-190.25 0,-190.25"/>
<text text-anchor="start" x="80.62" y="-196.7" font-family="arial" font-size="14.00">X1</text>
<polygon fill="none" stroke="black" points="0,-166.5 0,-190.25 101.75,-190.25 101.75,-166.5 0,-166.5"/>
<text text-anchor="start" x="4" y="-172.95" font-family="arial" font-size="14.00">Molex Micro&#45;Fit</text>
<polygon fill="none" stroke="black" points="101.75,-166.5 101.75,-190.25 139.75,-190.25 139.75,-166.5 101.75,-166.5"/>
<text text-anchor="start" x="105.75" y="-172.95" font-family="arial" font-size="14.00">male</text>
<polygon fill="none" stroke="black" points="139.75,-166.5 139.75,-190.25 177.75,-190.25 177.75,-166.5 139.75,-166.5"/>
<text text-anchor="start" x="143.75" y="-172.95" font-family="arial" font-size="14.00">2&#45;pin</text>
<polygon fill="none" stroke="black" points="0,-142.75 0,-166.5 100.5,-166.5 100.5,-142.75 0,-142.75"/>
<text text-anchor="start" x="34.88" y="-149.2" font-family="arial" font-size="14.00">GND</text>
<polygon fill="none" stroke="black" points="100.5,-142.75 100.5,-166.5 177.75,-166.5 177.75,-142.75 100.5,-142.75"/>
<text text-anchor="start" x="135.38" y="-149.2" font-family="arial" font-size="14.00">1</text>
<polygon fill="none" stroke="black" points="0,-119 0,-142.75 100.5,-142.75 100.5,-119 0,-119"/>
<text text-anchor="start" x="36" y="-125.45" font-family="arial" font-size="14.00">VCC</text>
<polygon fill="none" stroke="black" points="100.5,-119 100.5,-142.75 177.75,-142.75 177.75,-119 100.5,-119"/>
<text text-anchor="start" x="135.38" y="-125.45" font-family="arial" font-size="14.00">2</text>
</g>
<!-- W1 -->
<g id="node5" class="node">
<title>W1</title>
<polygon fill="#ffffff" stroke="black" stroke-dasharray="5,2" points="517.5,-296.25 321.75,-296.25 321.75,-54.75 517.5,-54.75 517.5,-296.25"/>
<polygon fill="#ffffff" stroke="none" points="321.75,-54.75 321.75,-296.25 517.5,-296.25 517.5,-54.75 321.75,-54.75"/>
<polygon fill="none" stroke="black" points="321.75,-272.5 321.75,-296.25 517.5,-296.25 517.5,-272.5 321.75,-272.5"/>
<text text-anchor="start" x="409.12" y="-278.95" font-family="arial" font-size="14.00">W1</text>
<polygon fill="none" stroke="black" points="321.75,-248.75 321.75,-272.5 344,-272.5 344,-248.75 321.75,-248.75"/>
<text text-anchor="start" x="325.75" y="-255.2" font-family="arial" font-size="14.00">6x</text>
<polygon fill="none" stroke="black" points="344,-248.75 344,-272.5 475,-272.5 475,-248.75 344,-248.75"/>
<text text-anchor="start" x="348" y="-255.2" font-family="arial" font-size="14.00">0.25 mm² (24 AWG)</text>
<polygon fill="none" stroke="black" points="475,-248.75 475,-272.5 517.5,-272.5 517.5,-248.75 475,-248.75"/>
<text text-anchor="start" x="479" y="-255.2" font-family="arial" font-size="14.00">0.2 m</text>
<text text-anchor="start" x="355.94" y="-233.45" font-family="arial" font-size="14.00"> </text>
<text text-anchor="start" x="323.75" y="-213.7" font-family="arial" font-size="14.00"> X1:1:GND</text>
<text text-anchor="start" x="396.94" y="-213.7" font-family="arial" font-size="14.00"> </text>
<text text-anchor="start" x="413.69" y="-213.7" font-family="arial" font-size="14.00">BK</text>
<text text-anchor="start" x="438.56" y="-213.7" font-family="arial" font-size="14.00"> </text>
<text text-anchor="start" x="449.5" y="-213.7" font-family="arial" font-size="14.00">X2:1:GND </text>
<polygon fill="#000000" stroke="none" points="321.75,-207.25 321.75,-209.25 517.5,-209.25 517.5,-207.25 321.75,-207.25"/>
<polygon fill="#000000" stroke="none" points="321.75,-205.25 321.75,-207.25 517.5,-207.25 517.5,-205.25 321.75,-205.25"/>
<polygon fill="#000000" stroke="none" points="321.75,-203.25 321.75,-205.25 517.5,-205.25 517.5,-203.25 321.75,-203.25"/>
<text text-anchor="start" x="323.75" y="-187.95" font-family="arial" font-size="14.00"> X1:2:VCC</text>
<text text-anchor="start" x="396.94" y="-187.95" font-family="arial" font-size="14.00"> </text>
<text text-anchor="start" x="412.94" y="-187.95" font-family="arial" font-size="14.00">RD</text>
<text text-anchor="start" x="438.56" y="-187.95" font-family="arial" font-size="14.00"> </text>
<text text-anchor="start" x="451.75" y="-187.95" font-family="arial" font-size="14.00">X2:2:VCC </text>
<polygon fill="#000000" stroke="none" points="321.75,-181.5 321.75,-183.5 517.5,-183.5 517.5,-181.5 321.75,-181.5"/>
<polygon fill="#ff0000" stroke="none" points="321.75,-179.5 321.75,-181.5 517.5,-181.5 517.5,-179.5 321.75,-179.5"/>
<polygon fill="#000000" stroke="none" points="321.75,-177.5 321.75,-179.5 517.5,-179.5 517.5,-177.5 321.75,-177.5"/>
<text text-anchor="start" x="323.75" y="-162.2" font-family="arial" font-size="14.00"> X1:1:GND</text>
<text text-anchor="start" x="396.94" y="-162.2" font-family="arial" font-size="14.00"> </text>
<text text-anchor="start" x="413.69" y="-162.2" font-family="arial" font-size="14.00">BK</text>
<text text-anchor="start" x="438.56" y="-162.2" font-family="arial" font-size="14.00"> </text>
<text text-anchor="start" x="449.5" y="-162.2" font-family="arial" font-size="14.00">X3:1:GND </text>
<polygon fill="#000000" stroke="none" points="321.75,-155.75 321.75,-157.75 517.5,-157.75 517.5,-155.75 321.75,-155.75"/>
<polygon fill="#000000" stroke="none" points="321.75,-153.75 321.75,-155.75 517.5,-155.75 517.5,-153.75 321.75,-153.75"/>
<polygon fill="#000000" stroke="none" points="321.75,-151.75 321.75,-153.75 517.5,-153.75 517.5,-151.75 321.75,-151.75"/>
<text text-anchor="start" x="323.75" y="-136.45" font-family="arial" font-size="14.00"> X1:2:VCC</text>
<text text-anchor="start" x="396.94" y="-136.45" font-family="arial" font-size="14.00"> </text>
<text text-anchor="start" x="412.94" y="-136.45" font-family="arial" font-size="14.00">RD</text>
<text text-anchor="start" x="438.56" y="-136.45" font-family="arial" font-size="14.00"> </text>
<text text-anchor="start" x="451.75" y="-136.45" font-family="arial" font-size="14.00">X3:2:VCC </text>
<polygon fill="#000000" stroke="none" points="321.75,-130 321.75,-132 517.5,-132 517.5,-130 321.75,-130"/>
<polygon fill="#ff0000" stroke="none" points="321.75,-128 321.75,-130 517.5,-130 517.5,-128 321.75,-128"/>
<polygon fill="#000000" stroke="none" points="321.75,-126 321.75,-128 517.5,-128 517.5,-126 321.75,-126"/>
<text text-anchor="start" x="323.75" y="-110.7" font-family="arial" font-size="14.00"> X1:1:GND</text>
<text text-anchor="start" x="396.94" y="-110.7" font-family="arial" font-size="14.00"> </text>
<text text-anchor="start" x="413.69" y="-110.7" font-family="arial" font-size="14.00">BK</text>
<text text-anchor="start" x="438.56" y="-110.7" font-family="arial" font-size="14.00"> </text>
<text text-anchor="start" x="449.5" y="-110.7" font-family="arial" font-size="14.00">X4:1:GND </text>
<polygon fill="#000000" stroke="none" points="321.75,-104.25 321.75,-106.25 517.5,-106.25 517.5,-104.25 321.75,-104.25"/>
<polygon fill="#000000" stroke="none" points="321.75,-102.25 321.75,-104.25 517.5,-104.25 517.5,-102.25 321.75,-102.25"/>
<polygon fill="#000000" stroke="none" points="321.75,-100.25 321.75,-102.25 517.5,-102.25 517.5,-100.25 321.75,-100.25"/>
<text text-anchor="start" x="323.75" y="-84.95" font-family="arial" font-size="14.00"> X1:2:VCC</text>
<text text-anchor="start" x="396.94" y="-84.95" font-family="arial" font-size="14.00"> </text>
<text text-anchor="start" x="412.94" y="-84.95" font-family="arial" font-size="14.00">RD</text>
<text text-anchor="start" x="438.56" y="-84.95" font-family="arial" font-size="14.00"> </text>
<text text-anchor="start" x="451.75" y="-84.95" font-family="arial" font-size="14.00">X4:2:VCC </text>
<polygon fill="#000000" stroke="none" points="321.75,-78.5 321.75,-80.5 517.5,-80.5 517.5,-78.5 321.75,-78.5"/>
<polygon fill="#ff0000" stroke="none" points="321.75,-76.5 321.75,-78.5 517.5,-78.5 517.5,-76.5 321.75,-76.5"/>
<polygon fill="#000000" stroke="none" points="321.75,-74.5 321.75,-76.5 517.5,-76.5 517.5,-74.5 321.75,-74.5"/>
<text text-anchor="start" x="355.94" y="-59.2" font-family="arial" font-size="14.00"> </text>
</g>
<!-- X1&#45;&#45;W1 -->
<g id="edge1" class="edge">
<title>X1:e&#45;&#45;W1:w</title>
<path fill="none" stroke="#000000" stroke-width="2" d="M177.75,-152.63C247.71,-154.32 255.74,-205.94 321.75,-204.25"/>
<path fill="none" stroke="#000000" stroke-width="2" d="M177.75,-154.63C245.74,-154.62 253.76,-206.25 321.75,-206.25"/>
<path fill="none" stroke="#000000" stroke-width="2" d="M177.75,-156.62C243.76,-154.93 251.79,-206.56 321.75,-208.25"/>
</g>
<!-- X1&#45;&#45;W1 -->
<g id="edge3" class="edge">
<title>X1:e&#45;&#45;W1:w</title>
<path fill="none" stroke="#000000" stroke-width="2" d="M177.75,-128.88C247.41,-130.53 256.03,-180.16 321.75,-178.5"/>
<path fill="none" stroke="#ff0000" stroke-width="2" d="M177.75,-130.88C245.44,-130.88 254.06,-180.5 321.75,-180.5"/>
<path fill="none" stroke="#000000" stroke-width="2" d="M177.75,-132.87C243.47,-131.22 252.09,-180.84 321.75,-182.5"/>
</g>
<!-- X1&#45;&#45;W1 -->
<g id="edge5" class="edge">
<title>X1:e&#45;&#45;W1:w</title>
<path fill="none" stroke="#000000" stroke-width="2" d="M177.75,-152.63C241.77,-152.63 257.77,-152.75 321.75,-152.75"/>
<path fill="none" stroke="#000000" stroke-width="2" d="M177.75,-154.62C241.75,-154.63 257.75,-154.75 321.75,-154.75"/>
<path fill="none" stroke="#000000" stroke-width="2" d="M177.75,-156.62C241.73,-156.62 257.73,-156.75 321.75,-156.75"/>
</g>
<!-- X1&#45;&#45;W1 -->
<g id="edge7" class="edge">
<title>X1:e&#45;&#45;W1:w</title>
<path fill="none" stroke="#000000" stroke-width="2" d="M177.75,-128.88C241.52,-128.89 257.51,-127.01 321.75,-127"/>
<path fill="none" stroke="#ff0000" stroke-width="2" d="M177.75,-130.88C241.76,-130.88 257.74,-129 321.75,-129"/>
<path fill="none" stroke="#000000" stroke-width="2" d="M177.75,-132.87C241.99,-132.86 257.98,-130.99 321.75,-131"/>
</g>
<!-- X1&#45;&#45;W1 -->
<g id="edge9" class="edge">
<title>X1:e&#45;&#45;W1:w</title>
<path fill="none" stroke="#000000" stroke-width="2" d="M177.75,-152.63C243.73,-154.31 251.82,-102.94 321.75,-101.25"/>
<path fill="none" stroke="#000000" stroke-width="2" d="M177.75,-154.62C245.7,-154.62 253.8,-103.25 321.75,-103.25"/>
<path fill="none" stroke="#000000" stroke-width="2" d="M177.75,-156.62C247.68,-154.94 255.77,-103.56 321.75,-105.25"/>
</g>
<!-- X1&#45;&#45;W1 -->
<g id="edge11" class="edge">
<title>X1:e&#45;&#45;W1:w</title>
<path fill="none" stroke="#000000" stroke-width="2" d="M177.75,-128.88C244.02,-130.6 251.51,-77.22 321.75,-75.5"/>
<path fill="none" stroke="#ff0000" stroke-width="2" d="M177.75,-130.88C246,-130.88 253.5,-77.5 321.75,-77.5"/>
<path fill="none" stroke="#000000" stroke-width="2" d="M177.75,-132.87C247.99,-131.15 255.48,-77.78 321.75,-79.5"/>
</g>
<!-- X2 -->
<g id="node2" class="node">
<title>X2</title>
<polygon fill="#ffffff" stroke="black" points="850.5,-333 661.5,-333 661.5,-238 850.5,-238 850.5,-333"/>
<polygon fill="#ffffff" stroke="none" points="661.5,-238 661.5,-333 850.5,-333 850.5,-238 661.5,-238"/>
<polygon fill="none" stroke="black" points="661.5,-309.25 661.5,-333 850.5,-333 850.5,-309.25 661.5,-309.25"/>
<text text-anchor="start" x="747.75" y="-315.7" font-family="arial" font-size="14.00">X2</text>
<polygon fill="none" stroke="black" points="661.5,-285.5 661.5,-309.25 763.25,-309.25 763.25,-285.5 661.5,-285.5"/>
<text text-anchor="start" x="665.5" y="-291.95" font-family="arial" font-size="14.00">Molex Micro&#45;Fit</text>
<polygon fill="none" stroke="black" points="763.25,-285.5 763.25,-309.25 812.5,-309.25 812.5,-285.5 763.25,-285.5"/>
<text text-anchor="start" x="767.25" y="-291.95" font-family="arial" font-size="14.00">female</text>
<polygon fill="none" stroke="black" points="812.5,-285.5 812.5,-309.25 850.5,-309.25 850.5,-285.5 812.5,-285.5"/>
<text text-anchor="start" x="816.5" y="-291.95" font-family="arial" font-size="14.00">2&#45;pin</text>
<polygon fill="none" stroke="black" points="661.5,-261.75 661.5,-285.5 744.38,-285.5 744.38,-261.75 661.5,-261.75"/>
<text text-anchor="start" x="699.19" y="-268.2" font-family="arial" font-size="14.00">1</text>
<polygon fill="none" stroke="black" points="744.38,-261.75 744.38,-285.5 850.5,-285.5 850.5,-261.75 744.38,-261.75"/>
<text text-anchor="start" x="782.06" y="-268.2" font-family="arial" font-size="14.00">GND</text>
<polygon fill="none" stroke="black" points="661.5,-238 661.5,-261.75 744.38,-261.75 744.38,-238 661.5,-238"/>
<text text-anchor="start" x="699.19" y="-244.45" font-family="arial" font-size="14.00">2</text>
<polygon fill="none" stroke="black" points="744.38,-238 744.38,-261.75 850.5,-261.75 850.5,-238 744.38,-238"/>
<text text-anchor="start" x="783.19" y="-244.45" font-family="arial" font-size="14.00">VCC</text>
</g>
<!-- X3 -->
<g id="node3" class="node">
<title>X3</title>
<polygon fill="#ffffff" stroke="black" points="850.5,-214 661.5,-214 661.5,-119 850.5,-119 850.5,-214"/>
<polygon fill="#ffffff" stroke="none" points="661.5,-119 661.5,-214 850.5,-214 850.5,-119 661.5,-119"/>
<polygon fill="none" stroke="black" points="661.5,-190.25 661.5,-214 850.5,-214 850.5,-190.25 661.5,-190.25"/>
<text text-anchor="start" x="747.75" y="-196.7" font-family="arial" font-size="14.00">X3</text>
<polygon fill="none" stroke="black" points="661.5,-166.5 661.5,-190.25 763.25,-190.25 763.25,-166.5 661.5,-166.5"/>
<text text-anchor="start" x="665.5" y="-172.95" font-family="arial" font-size="14.00">Molex Micro&#45;Fit</text>
<polygon fill="none" stroke="black" points="763.25,-166.5 763.25,-190.25 812.5,-190.25 812.5,-166.5 763.25,-166.5"/>
<text text-anchor="start" x="767.25" y="-172.95" font-family="arial" font-size="14.00">female</text>
<polygon fill="none" stroke="black" points="812.5,-166.5 812.5,-190.25 850.5,-190.25 850.5,-166.5 812.5,-166.5"/>
<text text-anchor="start" x="816.5" y="-172.95" font-family="arial" font-size="14.00">2&#45;pin</text>
<polygon fill="none" stroke="black" points="661.5,-142.75 661.5,-166.5 744.38,-166.5 744.38,-142.75 661.5,-142.75"/>
<text text-anchor="start" x="699.19" y="-149.2" font-family="arial" font-size="14.00">1</text>
<polygon fill="none" stroke="black" points="744.38,-142.75 744.38,-166.5 850.5,-166.5 850.5,-142.75 744.38,-142.75"/>
<text text-anchor="start" x="782.06" y="-149.2" font-family="arial" font-size="14.00">GND</text>
<polygon fill="none" stroke="black" points="661.5,-119 661.5,-142.75 744.38,-142.75 744.38,-119 661.5,-119"/>
<text text-anchor="start" x="699.19" y="-125.45" font-family="arial" font-size="14.00">2</text>
<polygon fill="none" stroke="black" points="744.38,-119 744.38,-142.75 850.5,-142.75 850.5,-119 744.38,-119"/>
<text text-anchor="start" x="783.19" y="-125.45" font-family="arial" font-size="14.00">VCC</text>
</g>
<!-- X4 -->
<g id="node4" class="node">
<title>X4</title>
<polygon fill="#ffffff" stroke="black" points="850.5,-95 661.5,-95 661.5,0 850.5,0 850.5,-95"/>
<polygon fill="#ffffff" stroke="none" points="661.5,0 661.5,-95 850.5,-95 850.5,0 661.5,0"/>
<polygon fill="none" stroke="black" points="661.5,-71.25 661.5,-95 850.5,-95 850.5,-71.25 661.5,-71.25"/>
<text text-anchor="start" x="747.75" y="-77.7" font-family="arial" font-size="14.00">X4</text>
<polygon fill="none" stroke="black" points="661.5,-47.5 661.5,-71.25 763.25,-71.25 763.25,-47.5 661.5,-47.5"/>
<text text-anchor="start" x="665.5" y="-53.95" font-family="arial" font-size="14.00">Molex Micro&#45;Fit</text>
<polygon fill="none" stroke="black" points="763.25,-47.5 763.25,-71.25 812.5,-71.25 812.5,-47.5 763.25,-47.5"/>
<text text-anchor="start" x="767.25" y="-53.95" font-family="arial" font-size="14.00">female</text>
<polygon fill="none" stroke="black" points="812.5,-47.5 812.5,-71.25 850.5,-71.25 850.5,-47.5 812.5,-47.5"/>
<text text-anchor="start" x="816.5" y="-53.95" font-family="arial" font-size="14.00">2&#45;pin</text>
<polygon fill="none" stroke="black" points="661.5,-23.75 661.5,-47.5 744.38,-47.5 744.38,-23.75 661.5,-23.75"/>
<text text-anchor="start" x="699.19" y="-30.2" font-family="arial" font-size="14.00">1</text>
<polygon fill="none" stroke="black" points="744.38,-23.75 744.38,-47.5 850.5,-47.5 850.5,-23.75 744.38,-23.75"/>
<text text-anchor="start" x="782.06" y="-30.2" font-family="arial" font-size="14.00">GND</text>
<polygon fill="none" stroke="black" points="661.5,0 661.5,-23.75 744.38,-23.75 744.38,0 661.5,0"/>
<text text-anchor="start" x="699.19" y="-6.45" font-family="arial" font-size="14.00">2</text>
<polygon fill="none" stroke="black" points="744.38,0 744.38,-23.75 850.5,-23.75 850.5,0 744.38,0"/>
<text text-anchor="start" x="783.19" y="-6.45" font-family="arial" font-size="14.00">VCC</text>
</g>
<!-- W1&#45;&#45;X2 -->
<g id="edge2" class="edge">
<title>W1:e&#45;&#45;X2:w</title>
<path fill="none" stroke="#000000" stroke-width="2" d="M517.5,-204.25C590.16,-206.17 592.84,-273.55 661.5,-271.63"/>
<path fill="none" stroke="#000000" stroke-width="2" d="M517.5,-206.25C588.16,-206.25 590.84,-273.63 661.5,-273.63"/>
<path fill="none" stroke="#000000" stroke-width="2" d="M517.5,-208.25C586.16,-206.33 588.84,-273.7 661.5,-275.62"/>
</g>
<!-- W1&#45;&#45;X2 -->
<g id="edge4" class="edge">
<title>W1:e&#45;&#45;X2:w</title>
<path fill="none" stroke="#000000" stroke-width="2" d="M517.5,-178.5C590.54,-180.44 592.46,-249.82 661.5,-247.88"/>
<path fill="none" stroke="#ff0000" stroke-width="2" d="M517.5,-180.5C588.54,-180.5 590.46,-249.88 661.5,-249.87"/>
<path fill="none" stroke="#000000" stroke-width="2" d="M517.5,-182.5C586.54,-180.56 588.46,-249.93 661.5,-251.87"/>
</g>
<!-- W1&#45;&#45;X3 -->
<g id="edge6" class="edge">
<title>W1:e&#45;&#45;X3:w</title>
<path fill="none" stroke="#000000" stroke-width="2" d="M517.5,-152.75C581.48,-152.75 597.48,-152.63 661.5,-152.63"/>
<path fill="none" stroke="#000000" stroke-width="2" d="M517.5,-154.75C581.5,-154.75 597.5,-154.63 661.5,-154.62"/>
<path fill="none" stroke="#000000" stroke-width="2" d="M517.5,-156.75C581.52,-156.75 597.52,-156.62 661.5,-156.62"/>
</g>
<!-- W1&#45;&#45;X3 -->
<g id="edge8" class="edge">
<title>W1:e&#45;&#45;X3:w</title>
<path fill="none" stroke="#000000" stroke-width="2" d="M517.5,-127C581.74,-127.01 597.73,-128.89 661.5,-128.88"/>
<path fill="none" stroke="#ff0000" stroke-width="2" d="M517.5,-129C581.51,-129 597.49,-130.88 661.5,-130.88"/>
<path fill="none" stroke="#000000" stroke-width="2" d="M517.5,-131C581.27,-130.99 597.26,-132.86 661.5,-132.87"/>
</g>
<!-- W1&#45;&#45;X4 -->
<g id="edge10" class="edge">
<title>W1:e&#45;&#45;X4:w</title>
<path fill="none" stroke="#000000" stroke-width="2" d="M517.5,-101.25C586.21,-103.17 588.8,-35.55 661.5,-33.63"/>
<path fill="none" stroke="#000000" stroke-width="2" d="M517.5,-103.25C588.21,-103.25 590.79,-35.62 661.5,-35.62"/>
<path fill="none" stroke="#000000" stroke-width="2" d="M517.5,-105.25C590.2,-103.33 592.79,-35.7 661.5,-37.62"/>
</g>
<!-- W1&#45;&#45;X4 -->
<g id="edge12" class="edge">
<title>W1:e&#45;&#45;X4:w</title>
<path fill="none" stroke="#000000" stroke-width="2" d="M517.5,-75.5C585.84,-77.4 589.17,-11.77 661.5,-9.88"/>
<path fill="none" stroke="#ff0000" stroke-width="2" d="M517.5,-77.5C587.83,-77.5 591.17,-11.88 661.5,-11.88"/>
<path fill="none" stroke="#000000" stroke-width="2" d="M517.5,-79.5C589.83,-77.6 593.16,-11.98 661.5,-13.87"/>
</g>
</g>
</svg>
