<?xml version="1.0" encoding="UTF-8" standalone="no"?>
<!DOCTYPE svg PUBLIC "-//W3C//DTD SVG 1.1//EN"
 "http://www.w3.org/Graphics/SVG/1.1/DTD/svg11.dtd">
<!-- Generated by graphviz version 12.2.1 (20241206.2353)
 -->
<!-- Pages: 1 -->
<svg width="665pt" height="294pt"
 viewBox="0.00 0.00 665.25 293.62" xmlns="http://www.w3.org/2000/svg" xmlns:xlink="http://www.w3.org/1999/xlink">
<g id="graph0" class="graph" transform="scale(1 1) rotate(0) translate(4 289.62)">
<polygon fill="#ffffff" stroke="none" points="-4,4 -4,-289.62 661.25,-289.62 661.25,4 -4,4"/>
<!-- AUTOGENERATED_F_1 -->
<g id="node1" class="node">
<title>AUTOGENERATED_F_1</title>
<polygon fill="#ffffff" stroke="black" points="86.75,-263.75 0,-263.75 0,-240 86.75,-240 86.75,-263.75"/>
<polygon fill="#ffffff" stroke="none" points="0,-240 0,-263.75 86.75,-263.75 86.75,-240 0,-240"/>
<polygon fill="none" stroke="black" points="0,-240 0,-263.75 86.75,-263.75 86.75,-240 0,-240"/>
<text text-anchor="start" x="4" y="-246.45" font-family="arial" font-size="14.00">Crimp ferrule</text>
</g>
<!-- W1 -->
<g id="node13" class="node">
<title>W1</title>
<polygon fill="#ffffff" stroke="black" stroke-dasharray="5,2" points="426.5,-285.62 230.75,-285.62 230.75,-44.12 426.5,-44.12 426.5,-285.62"/>
<polygon fill="#ffffff" stroke="none" points="230.75,-44.12 230.75,-285.62 426.5,-285.62 426.5,-44.12 230.75,-44.12"/>
<polygon fill="none" stroke="black" points="230.75,-261.88 230.75,-285.62 426.5,-285.62 426.5,-261.88 230.75,-261.88"/>
<text text-anchor="start" x="318.12" y="-268.32" font-family="arial" font-size="14.00">W1</text>
<polygon fill="none" stroke="black" points="230.75,-238.12 230.75,-261.88 253,-261.88 253,-238.12 230.75,-238.12"/>
<text text-anchor="start" x="234.75" y="-244.57" font-family="arial" font-size="14.00">6x</text>
<polygon fill="none" stroke="black" points="253,-238.12 253,-261.88 384,-261.88 384,-238.12 253,-238.12"/>
<text text-anchor="start" x="257" y="-244.57" font-family="arial" font-size="14.00">0.25 mm² (24 AWG)</text>
<polygon fill="none" stroke="black" points="384,-238.12 384,-261.88 426.5,-261.88 426.5,-238.12 384,-238.12"/>
<text text-anchor="start" x="388" y="-244.57" font-family="arial" font-size="14.00">0.2 m</text>
<text text-anchor="start" x="243.94" y="-222.82" font-family="arial" font-size="14.00"> </text>
<text text-anchor="start" x="232.75" y="-203.07" font-family="arial" font-size="14.00"> </text>
<text text-anchor="start" x="274.06" y="-203.07" font-family="arial" font-size="14.00"> </text>
<text text-anchor="start" x="332.44" y="-203.07" font-family="arial" font-size="14.00">BN</text>
<text text-anchor="start" x="379.44" y="-203.07" font-family="arial" font-size="14.00"> </text>
<text text-anchor="start" x="420.75" y="-203.07" font-family="arial" font-size="14.00"> </text>
<polygon fill="#000000" stroke="none" points="230.75,-196.62 230.75,-198.62 426.5,-198.62 426.5,-196.62 230.75,-196.62"/>
<polygon fill="#895956" stroke="none" points="230.75,-194.62 230.75,-196.62 426.5,-196.62 426.5,-194.62 230.75,-194.62"/>
<polygon fill="#000000" stroke="none" points="230.75,-192.62 230.75,-194.62 426.5,-194.62 426.5,-192.62 230.75,-192.62"/>
<text text-anchor="start" x="232.75" y="-177.32" font-family="arial" font-size="14.00"> </text>
<text text-anchor="start" x="274.06" y="-177.32" font-family="arial" font-size="14.00"> </text>
<text text-anchor="start" x="332.06" y="-177.32" font-family="arial" font-size="14.00">RD</text>
<text text-anchor="start" x="379.44" y="-177.32" font-family="arial" font-size="14.00"> </text>
<text text-anchor="start" x="420.75" y="-177.32" font-family="arial" font-size="14.00"> </text>
<polygon fill="#000000" stroke="none" points="230.75,-170.88 230.75,-172.88 426.5,-172.88 426.5,-170.88 230.75,-170.88"/>
<polygon fill="#ff0000" stroke="none" points="230.75,-168.88 230.75,-170.88 426.5,-170.88 426.5,-168.88 230.75,-168.88"/>
<polygon fill="#000000" stroke="none" points="230.75,-166.88 230.75,-168.88 426.5,-168.88 426.5,-166.88 230.75,-166.88"/>
<text text-anchor="start" x="232.75" y="-151.57" font-family="arial" font-size="14.00"> </text>
<text text-anchor="start" x="274.06" y="-151.57" font-family="arial" font-size="14.00"> </text>
<text text-anchor="start" x="330.56" y="-151.57" font-family="arial" font-size="14.00">OG</text>
<text text-anchor="start" x="379.44" y="-151.57" font-family="arial" font-size="14.00"> </text>
<text text-anchor="start" x="420.75" y="-151.57" font-family="arial" font-size="14.00"> </text>
<polygon fill="#000000" stroke="none" points="230.75,-145.12 230.75,-147.12 426.5,-147.12 426.5,-145.12 230.75,-145.12"/>
<polygon fill="#ff8000" stroke="none" points="230.75,-143.12 230.75,-145.12 426.5,-145.12 426.5,-143.12 230.75,-143.12"/>
<polygon fill="#000000" stroke="none" points="230.75,-141.12 230.75,-143.12 426.5,-143.12 426.5,-141.12 230.75,-141.12"/>
<text text-anchor="start" x="232.75" y="-125.83" font-family="arial" font-size="14.00"> </text>
<text text-anchor="start" x="274.06" y="-125.83" font-family="arial" font-size="14.00"> </text>
<text text-anchor="start" x="332.81" y="-125.83" font-family="arial" font-size="14.00">YE</text>
<text text-anchor="start" x="379.44" y="-125.83" font-family="arial" font-size="14.00"> </text>
<text text-anchor="start" x="420.75" y="-125.83" font-family="arial" font-size="14.00"> </text>
<polygon fill="#000000" stroke="none" points="230.75,-119.38 230.75,-121.38 426.5,-121.38 426.5,-119.38 230.75,-119.38"/>
<polygon fill="#ffff00" stroke="none" points="230.75,-117.38 230.75,-119.38 426.5,-119.38 426.5,-117.38 230.75,-117.38"/>
<polygon fill="#000000" stroke="none" points="230.75,-115.38 230.75,-117.38 426.5,-117.38 426.5,-115.38 230.75,-115.38"/>
<text text-anchor="start" x="232.75" y="-100.08" font-family="arial" font-size="14.00"> </text>
<text text-anchor="start" x="274.06" y="-100.08" font-family="arial" font-size="14.00"> </text>
<text text-anchor="start" x="331.31" y="-100.08" font-family="arial" font-size="14.00">GN</text>
<text text-anchor="start" x="379.44" y="-100.08" font-family="arial" font-size="14.00"> </text>
<text text-anchor="start" x="420.75" y="-100.08" font-family="arial" font-size="14.00"> </text>
<polygon fill="#000000" stroke="none" points="230.75,-93.62 230.75,-95.62 426.5,-95.62 426.5,-93.62 230.75,-93.62"/>
<polygon fill="#00aa00" stroke="none" points="230.75,-91.62 230.75,-93.62 426.5,-93.62 426.5,-91.62 230.75,-91.62"/>
<polygon fill="#000000" stroke="none" points="230.75,-89.62 230.75,-91.62 426.5,-91.62 426.5,-89.62 230.75,-89.62"/>
<text text-anchor="start" x="232.75" y="-74.33" font-family="arial" font-size="14.00"> </text>
<text text-anchor="start" x="274.06" y="-74.33" font-family="arial" font-size="14.00"> </text>
<text text-anchor="start" x="332.44" y="-74.33" font-family="arial" font-size="14.00">BU</text>
<text text-anchor="start" x="379.44" y="-74.33" font-family="arial" font-size="14.00"> </text>
<text text-anchor="start" x="420.75" y="-74.33" font-family="arial" font-size="14.00"> </text>
<polygon fill="#000000" stroke="none" points="230.75,-67.88 230.75,-69.88 426.5,-69.88 426.5,-67.88 230.75,-67.88"/>
<polygon fill="#0066ff" stroke="none" points="230.75,-65.88 230.75,-67.88 426.5,-67.88 426.5,-65.88 230.75,-65.88"/>
<polygon fill="#000000" stroke="none" points="230.75,-63.88 230.75,-65.88 426.5,-65.88 426.5,-63.88 230.75,-63.88"/>
<text text-anchor="start" x="243.94" y="-48.58" font-family="arial" font-size="14.00"> </text>
</g>
<!-- AUTOGENERATED_F_1&#45;&#45;W1 -->
<g id="edge1" class="edge">
<title>AUTOGENERATED_F_1:e&#45;&#45;W1:w</title>
<path fill="none" stroke="#000000" stroke-width="2" d="M86.75,-249.88C153.47,-251.64 160.05,-195.39 230.75,-193.63"/>
<path fill="none" stroke="#895956" stroke-width="2" d="M86.75,-251.87C155.46,-251.88 162.04,-195.63 230.75,-195.62"/>
<path fill="none" stroke="#000000" stroke-width="2" d="M86.75,-253.87C157.45,-252.11 164.03,-195.86 230.75,-197.62"/>
</g>
<!-- AUTOGENERATED_F_2 -->
<g id="node2" class="node">
<title>AUTOGENERATED_F_2</title>
<polygon fill="#ffffff" stroke="black" points="86.75,-215.75 0,-215.75 0,-192 86.75,-192 86.75,-215.75"/>
<polygon fill="#ffffff" stroke="none" points="0,-192 0,-215.75 86.75,-215.75 86.75,-192 0,-192"/>
<polygon fill="none" stroke="black" points="0,-192 0,-215.75 86.75,-215.75 86.75,-192 0,-192"/>
<text text-anchor="start" x="4" y="-198.45" font-family="arial" font-size="14.00">Crimp ferrule</text>
</g>
<!-- AUTOGENERATED_F_2&#45;&#45;W1 -->
<g id="edge3" class="edge">
<title>AUTOGENERATED_F_2:e&#45;&#45;W1:w</title>
<path fill="none" stroke="#000000" stroke-width="2" d="M86.75,-201.88C150.63,-203.19 163.11,-169.19 230.75,-167.88"/>
<path fill="none" stroke="#ff0000" stroke-width="2" d="M86.75,-203.87C152.51,-203.87 164.99,-169.87 230.75,-169.87"/>
<path fill="none" stroke="#000000" stroke-width="2" d="M86.75,-205.87C154.39,-204.56 166.87,-170.56 230.75,-171.87"/>
</g>
<!-- AUTOGENERATED_F_3 -->
<g id="node3" class="node">
<title>AUTOGENERATED_F_3</title>
<polygon fill="#ffffff" stroke="black" points="86.75,-167.75 0,-167.75 0,-144 86.75,-144 86.75,-167.75"/>
<polygon fill="#ffffff" stroke="none" points="0,-144 0,-167.75 86.75,-167.75 86.75,-144 0,-144"/>
<polygon fill="none" stroke="black" points="0,-144 0,-167.75 86.75,-167.75 86.75,-144 0,-144"/>
<text text-anchor="start" x="4" y="-150.45" font-family="arial" font-size="14.00">Crimp ferrule</text>
</g>
<!-- AUTOGENERATED_F_3&#45;&#45;W1 -->
<g id="edge5" class="edge">
<title>AUTOGENERATED_F_3:e&#45;&#45;W1:w</title>
<path fill="none" stroke="#000000" stroke-width="2" d="M86.75,-153.88C149.76,-154.28 165.33,-142.53 230.75,-142.13"/>
<path fill="none" stroke="#ff8000" stroke-width="2" d="M86.75,-155.88C150.96,-155.88 166.54,-144.12 230.75,-144.12"/>
<path fill="none" stroke="#000000" stroke-width="2" d="M86.75,-157.87C152.17,-157.47 167.74,-145.72 230.75,-146.12"/>
</g>
<!-- AUTOGENERATED_F_4 -->
<g id="node4" class="node">
<title>AUTOGENERATED_F_4</title>
<polygon fill="#ffffff" stroke="black" points="86.75,-119.75 0,-119.75 0,-96 86.75,-96 86.75,-119.75"/>
<polygon fill="#ffffff" stroke="none" points="0,-96 0,-119.75 86.75,-119.75 86.75,-96 0,-96"/>
<polygon fill="none" stroke="black" points="0,-96 0,-119.75 86.75,-119.75 86.75,-96 0,-96"/>
<text text-anchor="start" x="4" y="-102.45" font-family="arial" font-size="14.00">Crimp ferrule</text>
</g>
<!-- AUTOGENERATED_F_4&#45;&#45;W1 -->
<g id="edge7" class="edge">
<title>AUTOGENERATED_F_4:e&#45;&#45;W1:w</title>
<path fill="none" stroke="#000000" stroke-width="2" d="M86.75,-105.88C152.03,-106.21 167.69,-116.71 230.75,-116.38"/>
<path fill="none" stroke="#ffff00" stroke-width="2" d="M86.75,-107.88C150.92,-107.88 166.58,-118.38 230.75,-118.38"/>
<path fill="none" stroke="#000000" stroke-width="2" d="M86.75,-109.87C149.81,-109.54 165.47,-120.04 230.75,-120.37"/>
</g>
<!-- AUTOGENERATED_F_5 -->
<g id="node5" class="node">
<title>AUTOGENERATED_F_5</title>
<polygon fill="#ffffff" stroke="black" points="86.75,-71.75 0,-71.75 0,-48 86.75,-48 86.75,-71.75"/>
<polygon fill="#ffffff" stroke="none" points="0,-48 0,-71.75 86.75,-71.75 86.75,-48 0,-48"/>
<polygon fill="none" stroke="black" points="0,-48 0,-71.75 86.75,-71.75 86.75,-48 0,-48"/>
<text text-anchor="start" x="4" y="-54.45" font-family="arial" font-size="14.00">Crimp ferrule</text>
</g>
<!-- AUTOGENERATED_F_5&#45;&#45;W1 -->
<g id="edge9" class="edge">
<title>AUTOGENERATED_F_5:e&#45;&#45;W1:w</title>
<path fill="none" stroke="#000000" stroke-width="2" d="M86.75,-57.88C154.25,-59.15 166.98,-91.9 230.75,-90.63"/>
<path fill="none" stroke="#00aa00" stroke-width="2" d="M86.75,-59.88C152.38,-59.88 165.12,-92.63 230.75,-92.62"/>
<path fill="none" stroke="#000000" stroke-width="2" d="M86.75,-61.87C150.52,-60.6 163.25,-93.35 230.75,-94.62"/>
</g>
<!-- AUTOGENERATED_F_6 -->
<g id="node6" class="node">
<title>AUTOGENERATED_F_6</title>
<polygon fill="#ffffff" stroke="black" points="86.75,-23.75 0,-23.75 0,0 86.75,0 86.75,-23.75"/>
<polygon fill="#ffffff" stroke="none" points="0,0 0,-23.75 86.75,-23.75 86.75,0 0,0"/>
<polygon fill="none" stroke="black" points="0,0 0,-23.75 86.75,-23.75 86.75,0 0,0"/>
<text text-anchor="start" x="4" y="-6.45" font-family="arial" font-size="14.00">Crimp ferrule</text>
</g>
<!-- AUTOGENERATED_F_6&#45;&#45;W1 -->
<g id="edge11" class="edge">
<title>AUTOGENERATED_F_6:e&#45;&#45;W1:w</title>
<path fill="none" stroke="#000000" stroke-width="2" d="M86.75,-9.88C157.24,-11.62 164.22,-66.62 230.75,-64.88"/>
<path fill="none" stroke="#0066ff" stroke-width="2" d="M86.75,-11.88C155.26,-11.88 162.24,-66.87 230.75,-66.88"/>
<path fill="none" stroke="#000000" stroke-width="2" d="M86.75,-13.87C153.28,-12.13 160.26,-67.13 230.75,-68.87"/>
</g>
<!-- AUTOGENERATED_F_7 -->
<g id="node7" class="node">
<title>AUTOGENERATED_F_7</title>
<polygon fill="#ffffff" stroke="black" points="657.25,-263.75 570.5,-263.75 570.5,-240 657.25,-240 657.25,-263.75"/>
<polygon fill="#ffffff" stroke="none" points="570.5,-240 570.5,-263.75 657.25,-263.75 657.25,-240 570.5,-240"/>
<polygon fill="none" stroke="black" points="570.5,-240 570.5,-263.75 657.25,-263.75 657.25,-240 570.5,-240"/>
<text text-anchor="start" x="574.5" y="-246.45" font-family="arial" font-size="14.00">Crimp ferrule</text>
</g>
<!-- AUTOGENERATED_F_8 -->
<g id="node8" class="node">
<title>AUTOGENERATED_F_8</title>
<polygon fill="#ffffff" stroke="black" points="657.25,-215.75 570.5,-215.75 570.5,-192 657.25,-192 657.25,-215.75"/>
<polygon fill="#ffffff" stroke="none" points="570.5,-192 570.5,-215.75 657.25,-215.75 657.25,-192 570.5,-192"/>
<polygon fill="none" stroke="black" points="570.5,-192 570.5,-215.75 657.25,-215.75 657.25,-192 570.5,-192"/>
<text text-anchor="start" x="574.5" y="-198.45" font-family="arial" font-size="14.00">Crimp ferrule</text>
</g>
<!-- AUTOGENERATED_F_9 -->
<g id="node9" class="node">
<title>AUTOGENERATED_F_9</title>
<polygon fill="#ffffff" stroke="black" points="657.25,-167.75 570.5,-167.75 570.5,-144 657.25,-144 657.25,-167.75"/>
<polygon fill="#ffffff" stroke="none" points="570.5,-144 570.5,-167.75 657.25,-167.75 657.25,-144 570.5,-144"/>
<polygon fill="none" stroke="black" points="570.5,-144 570.5,-167.75 657.25,-167.75 657.25,-144 570.5,-144"/>
<text text-anchor="start" x="574.5" y="-150.45" font-family="arial" font-size="14.00">Crimp ferrule</text>
</g>
<!-- AUTOGENERATED_F_10 -->
<g id="node10" class="node">
<title>AUTOGENERATED_F_10</title>
<polygon fill="#ffffff" stroke="black" points="657.25,-119.75 570.5,-119.75 570.5,-96 657.25,-96 657.25,-119.75"/>
<polygon fill="#ffffff" stroke="none" points="570.5,-96 570.5,-119.75 657.25,-119.75 657.25,-96 570.5,-96"/>
<polygon fill="none" stroke="black" points="570.5,-96 570.5,-119.75 657.25,-119.75 657.25,-96 570.5,-96"/>
<text text-anchor="start" x="574.5" y="-102.45" font-family="arial" font-size="14.00">Crimp ferrule</text>
</g>
<!-- AUTOGENERATED_F_11 -->
<g id="node11" class="node">
<title>AUTOGENERATED_F_11</title>
<polygon fill="#ffffff" stroke="black" points="657.25,-71.75 570.5,-71.75 570.5,-48 657.25,-48 657.25,-71.75"/>
<polygon fill="#ffffff" stroke="none" points="570.5,-48 570.5,-71.75 657.25,-71.75 657.25,-48 570.5,-48"/>
<polygon fill="none" stroke="black" points="570.5,-48 570.5,-71.75 657.25,-71.75 657.25,-48 570.5,-48"/>
<text text-anchor="start" x="574.5" y="-54.45" font-family="arial" font-size="14.00">Crimp ferrule</text>
</g>
<!-- AUTOGENERATED_F_12 -->
<g id="node12" class="node">
<title>AUTOGENERATED_F_12</title>
<polygon fill="#ffffff" stroke="black" points="657.25,-23.75 570.5,-23.75 570.5,0 657.25,0 657.25,-23.75"/>
<polygon fill="#ffffff" stroke="none" points="570.5,0 570.5,-23.75 657.25,-23.75 657.25,0 570.5,0"/>
<polygon fill="none" stroke="black" points="570.5,0 570.5,-23.75 657.25,-23.75 657.25,0 570.5,0"/>
<text text-anchor="start" x="574.5" y="-6.45" font-family="arial" font-size="14.00">Crimp ferrule</text>
</g>
<!-- W1&#45;&#45;AUTOGENERATED_F_7 -->
<g id="edge2" class="edge">
<title>W1:e&#45;&#45;AUTOGENERATED_F_7:w</title>
<path fill="none" stroke="#000000" stroke-width="2" d="M426.5,-193.63C497.2,-195.39 503.78,-251.64 570.5,-249.88"/>
<path fill="none" stroke="#895956" stroke-width="2" d="M426.5,-195.62C495.21,-195.63 501.79,-251.88 570.5,-251.87"/>
<path fill="none" stroke="#000000" stroke-width="2" d="M426.5,-197.62C493.22,-195.86 499.8,-252.11 570.5,-253.87"/>
</g>
<!-- W1&#45;&#45;AUTOGENERATED_F_8 -->
<g id="edge4" class="edge">
<title>W1:e&#45;&#45;AUTOGENERATED_F_8:w</title>
<path fill="none" stroke="#000000" stroke-width="2" d="M426.5,-167.88C494.14,-169.19 506.62,-203.19 570.5,-201.88"/>
<path fill="none" stroke="#ff0000" stroke-width="2" d="M426.5,-169.87C492.26,-169.87 504.74,-203.87 570.5,-203.87"/>
<path fill="none" stroke="#000000" stroke-width="2" d="M426.5,-171.87C490.38,-170.56 502.86,-204.56 570.5,-205.87"/>
</g>
<!-- W1&#45;&#45;AUTOGENERATED_F_9 -->
<g id="edge6" class="edge">
<title>W1:e&#45;&#45;AUTOGENERATED_F_9:w</title>
<path fill="none" stroke="#000000" stroke-width="2" d="M426.5,-142.13C491.92,-142.53 507.49,-154.28 570.5,-153.88"/>
<path fill="none" stroke="#ff8000" stroke-width="2" d="M426.5,-144.12C490.71,-144.12 506.29,-155.88 570.5,-155.88"/>
<path fill="none" stroke="#000000" stroke-width="2" d="M426.5,-146.12C489.51,-145.72 505.08,-157.47 570.5,-157.87"/>
</g>
<!-- W1&#45;&#45;AUTOGENERATED_F_10 -->
<g id="edge8" class="edge">
<title>W1:e&#45;&#45;AUTOGENERATED_F_10:w</title>
<path fill="none" stroke="#000000" stroke-width="2" d="M426.5,-116.38C489.56,-116.71 505.22,-106.21 570.5,-105.88"/>
<path fill="none" stroke="#ffff00" stroke-width="2" d="M426.5,-118.38C490.67,-118.38 506.33,-107.88 570.5,-107.88"/>
<path fill="none" stroke="#000000" stroke-width="2" d="M426.5,-120.37C491.78,-120.04 507.44,-109.54 570.5,-109.87"/>
</g>
<!-- W1&#45;&#45;AUTOGENERATED_F_11 -->
<g id="edge10" class="edge">
<title>W1:e&#45;&#45;AUTOGENERATED_F_11:w</title>
<path fill="none" stroke="#000000" stroke-width="2" d="M426.5,-90.63C490.27,-91.9 503,-59.15 570.5,-57.88"/>
<path fill="none" stroke="#00aa00" stroke-width="2" d="M426.5,-92.62C492.13,-92.63 504.87,-59.88 570.5,-59.88"/>
<path fill="none" stroke="#000000" stroke-width="2" d="M426.5,-94.62C494,-93.35 506.73,-60.6 570.5,-61.87"/>
</g>
<!-- W1&#45;&#45;AUTOGENERATED_F_12 -->
<g id="edge12" class="edge">
<title>W1:e&#45;&#45;AUTOGENERATED_F_12:w</title>
<path fill="none" stroke="#000000" stroke-width="2" d="M426.5,-64.88C493.03,-66.62 500.01,-11.62 570.5,-9.88"/>
<path fill="none" stroke="#0066ff" stroke-width="2" d="M426.5,-66.88C495.01,-66.87 501.99,-11.88 570.5,-11.88"/>
<path fill="none" stroke="#000000" stroke-width="2" d="M426.5,-68.87C496.99,-67.13 503.97,-12.13 570.5,-13.87"/>
</g>
</g>
</svg>
