<?xml version="1.0" encoding="UTF-8" standalone="no"?>
<!DOCTYPE svg PUBLIC "-//W3C//DTD SVG 1.1//EN"
 "http://www.w3.org/Graphics/SVG/1.1/DTD/svg11.dtd">
<!-- Generated by graphviz version 12.2.1 (20241206.2353)
 -->
<!-- Pages: 1 -->
<svg width="828pt" height="158pt"
 viewBox="0.00 0.00 827.75 157.62" xmlns="http://www.w3.org/2000/svg" xmlns:xlink="http://www.w3.org/1999/xlink">
<g id="graph0" class="graph" transform="scale(1 1) rotate(0) translate(4 153.62)">
<polygon fill="#ffffff" stroke="none" points="-4,4 -4,-153.62 823.75,-153.62 823.75,4 -4,4"/>
<!-- X1 -->
<g id="node1" class="node">
<title>X1</title>
<polygon fill="#ffffff" stroke="black" points="204.5,-118.75 0,-118.75 0,0 204.5,0 204.5,-118.75"/>
<polygon fill="#ffffff" stroke="none" points="0,0 0,-118.75 204.5,-118.75 204.5,0 0,0"/>
<polygon fill="none" stroke="black" points="0,-95 0,-118.75 204.5,-118.75 204.5,-95 0,-95"/>
<text text-anchor="start" x="94" y="-101.45" font-family="arial" font-size="14.00">X1</text>
<polygon fill="none" stroke="black" points="0,-71.25 0,-95 93.92,-95 93.92,-71.25 0,-71.25"/>
<text text-anchor="start" x="7.96" y="-77.7" font-family="arial" font-size="14.00">TE 776164&#45;1</text>
<polygon fill="none" stroke="black" points="93.92,-71.25 93.92,-95 151.08,-95 151.08,-71.25 93.92,-71.25"/>
<text text-anchor="start" x="101.88" y="-77.7" font-family="arial" font-size="14.00">female</text>
<polygon fill="none" stroke="black" points="151.08,-71.25 151.08,-95 204.5,-95 204.5,-71.25 151.08,-71.25"/>
<text text-anchor="start" x="159.04" y="-77.7" font-family="arial" font-size="14.00">35&#45;pin</text>
<polygon fill="none" stroke="black" points="0,-47.5 0,-71.25 204.5,-71.25 204.5,-47.5 0,-47.5"/>
<text text-anchor="start" x="98.5" y="-53.95" font-family="arial" font-size="14.00">5</text>
<polygon fill="none" stroke="black" points="0,-23.75 0,-47.5 204.5,-47.5 204.5,-23.75 0,-23.75"/>
<text text-anchor="start" x="98.5" y="-30.2" font-family="arial" font-size="14.00">6</text>
<polygon fill="none" stroke="black" points="0,0 0,-23.75 204.5,-23.75 204.5,0 0,0"/>
<text text-anchor="start" x="4" y="-6.45" font-family="arial" font-size="14.00">Unconnected pins are not shown</text>
</g>
<!-- C1 -->
<g id="node3" class="node">
<title>C1</title>
<polygon fill="#ffffff" stroke="black" points="471.25,-149.62 348.5,-149.62 348.5,-11.12 471.25,-11.12 471.25,-149.62"/>
<polygon fill="#ffffff" stroke="none" points="348.5,-11.12 348.5,-149.62 471.25,-149.62 471.25,-11.12 348.5,-11.12"/>
<polygon fill="none" stroke="black" points="348.5,-125.88 348.5,-149.62 471.25,-149.62 471.25,-125.88 348.5,-125.88"/>
<text text-anchor="start" x="401.25" y="-132.32" font-family="arial" font-size="14.00">C1</text>
<polygon fill="none" stroke="black" points="348.5,-102.12 348.5,-125.88 373.92,-125.88 373.92,-102.12 348.5,-102.12"/>
<text text-anchor="start" x="354.08" y="-108.58" font-family="arial" font-size="14.00">2x</text>
<polygon fill="none" stroke="black" points="373.92,-102.12 373.92,-125.88 436.83,-125.88 436.83,-102.12 373.92,-102.12"/>
<text text-anchor="start" x="379.5" y="-108.58" font-family="arial" font-size="14.00">20 AWG</text>
<polygon fill="none" stroke="black" points="436.83,-102.12 436.83,-125.88 471.25,-125.88 471.25,-102.12 436.83,-102.12"/>
<text text-anchor="start" x="442.42" y="-108.58" font-family="arial" font-size="14.00">1 m</text>
<text text-anchor="start" x="364.38" y="-86.83" font-family="arial" font-size="14.00"> </text>
<text text-anchor="start" x="350.5" y="-67.08" font-family="arial" font-size="14.00"> X1:5</text>
<text text-anchor="start" x="386" y="-67.08" font-family="arial" font-size="14.00"> </text>
<text text-anchor="start" x="395.25" y="-67.08" font-family="arial" font-size="14.00">1:YE</text>
<text text-anchor="start" x="430" y="-67.08" font-family="arial" font-size="14.00"> </text>
<text text-anchor="start" x="437.75" y="-67.08" font-family="arial" font-size="14.00">X2:7 </text>
<polygon fill="#000000" stroke="none" points="348.5,-60.62 348.5,-62.62 471.25,-62.62 471.25,-60.62 348.5,-60.62"/>
<polygon fill="#ffff00" stroke="none" points="348.5,-58.62 348.5,-60.62 471.25,-60.62 471.25,-58.62 348.5,-58.62"/>
<polygon fill="#000000" stroke="none" points="348.5,-56.62 348.5,-58.62 471.25,-58.62 471.25,-56.62 348.5,-56.62"/>
<text text-anchor="start" x="350.5" y="-41.33" font-family="arial" font-size="14.00"> X1:6</text>
<text text-anchor="start" x="386" y="-41.33" font-family="arial" font-size="14.00"> </text>
<text text-anchor="start" x="393.75" y="-41.33" font-family="arial" font-size="14.00">2:GN</text>
<text text-anchor="start" x="430" y="-41.33" font-family="arial" font-size="14.00"> </text>
<text text-anchor="start" x="437.75" y="-41.33" font-family="arial" font-size="14.00">X2:2 </text>
<polygon fill="#000000" stroke="none" points="348.5,-34.88 348.5,-36.88 471.25,-36.88 471.25,-34.88 348.5,-34.88"/>
<polygon fill="#00aa00" stroke="none" points="348.5,-32.88 348.5,-34.88 471.25,-34.88 471.25,-32.88 348.5,-32.88"/>
<polygon fill="#000000" stroke="none" points="348.5,-30.88 348.5,-32.88 471.25,-32.88 471.25,-30.88 348.5,-30.88"/>
<text text-anchor="start" x="364.38" y="-15.57" font-family="arial" font-size="14.00"> </text>
</g>
<!-- X1&#45;&#45;C1 -->
<g id="edge1" class="edge">
<title>X1:e&#45;&#45;C1:w</title>
<path fill="none" stroke="#000000" stroke-width="2" d="M204.5,-57.38C268.53,-57.38 284.53,-57.63 348.5,-57.63"/>
<path fill="none" stroke="#ffff00" stroke-width="2" d="M204.5,-59.38C268.5,-59.38 284.5,-59.63 348.5,-59.63"/>
<path fill="none" stroke="#000000" stroke-width="2" d="M204.5,-61.37C268.47,-61.37 284.47,-61.62 348.5,-61.62"/>
</g>
<!-- X1&#45;&#45;C1 -->
<g id="edge3" class="edge">
<title>X1:e&#45;&#45;C1:w</title>
<path fill="none" stroke="#000000" stroke-width="2" d="M204.5,-33.63C268.29,-33.64 284.28,-31.89 348.5,-31.88"/>
<path fill="none" stroke="#00aa00" stroke-width="2" d="M204.5,-35.63C268.5,-35.63 284.5,-33.88 348.5,-33.88"/>
<path fill="none" stroke="#000000" stroke-width="2" d="M204.5,-37.62C268.72,-37.61 284.71,-35.86 348.5,-35.87"/>
</g>
<!-- X2 -->
<g id="node2" class="node">
<title>X2</title>
<polygon fill="#ffffff" stroke="black" points="819.75,-118.75 615.25,-118.75 615.25,0 819.75,0 819.75,-118.75"/>
<polygon fill="#ffffff" stroke="none" points="615.25,0 615.25,-118.75 819.75,-118.75 819.75,0 615.25,0"/>
<polygon fill="none" stroke="black" points="615.25,-95 615.25,-118.75 819.75,-118.75 819.75,-95 615.25,-95"/>
<text text-anchor="start" x="709.25" y="-101.45" font-family="arial" font-size="14.00">X2</text>
<polygon fill="none" stroke="black" points="615.25,-71.25 615.25,-95 685.17,-95 685.17,-71.25 615.25,-71.25"/>
<text text-anchor="start" x="631.08" y="-77.7" font-family="arial" font-size="14.00">D&#45;Sub</text>
<polygon fill="none" stroke="black" points="685.17,-71.25 685.17,-95 758.08,-95 758.08,-71.25 685.17,-71.25"/>
<text text-anchor="start" x="701" y="-77.7" font-family="arial" font-size="14.00">female</text>
<polygon fill="none" stroke="black" points="758.08,-71.25 758.08,-95 819.75,-95 819.75,-71.25 758.08,-71.25"/>
<text text-anchor="start" x="773.92" y="-77.7" font-family="arial" font-size="14.00">9&#45;pin</text>
<polygon fill="none" stroke="black" points="615.25,-47.5 615.25,-71.25 819.75,-71.25 819.75,-47.5 615.25,-47.5"/>
<text text-anchor="start" x="713.75" y="-53.95" font-family="arial" font-size="14.00">2</text>
<polygon fill="none" stroke="black" points="615.25,-23.75 615.25,-47.5 819.75,-47.5 819.75,-23.75 615.25,-23.75"/>
<text text-anchor="start" x="713.75" y="-30.2" font-family="arial" font-size="14.00">7</text>
<polygon fill="none" stroke="black" points="615.25,0 615.25,-23.75 819.75,-23.75 819.75,0 615.25,0"/>
<text text-anchor="start" x="619.25" y="-6.45" font-family="arial" font-size="14.00">Unconnected pins are not shown</text>
</g>
<!-- C1&#45;&#45;X2 -->
<g id="edge2" class="edge">
<title>C1:e&#45;&#45;X2:w</title>
<path fill="none" stroke="#000000" stroke-width="2" d="M471.25,-57.63C534.41,-58.6 548.65,-34.6 615.25,-33.63"/>
<path fill="none" stroke="#ffff00" stroke-width="2" d="M471.25,-59.62C536.13,-59.62 550.37,-35.62 615.25,-35.62"/>
<path fill="none" stroke="#000000" stroke-width="2" d="M471.25,-61.62C537.85,-60.65 552.09,-36.65 615.25,-37.62"/>
</g>
<!-- C1&#45;&#45;X2 -->
<g id="edge4" class="edge">
<title>C1:e&#45;&#45;X2:w</title>
<path fill="none" stroke="#000000" stroke-width="2" d="M471.25,-31.88C538,-32.91 552.01,-58.41 615.25,-57.38"/>
<path fill="none" stroke="#00aa00" stroke-width="2" d="M471.25,-33.88C536.25,-33.88 550.25,-59.38 615.25,-59.38"/>
<path fill="none" stroke="#000000" stroke-width="2" d="M471.25,-35.87C534.49,-34.84 548.5,-60.34 615.25,-61.37"/>
</g>
</g>
</svg>
