<?xml version="1.0" encoding="UTF-8" standalone="no"?>
<!DOCTYPE svg PUBLIC "-//W3C//DTD SVG 1.1//EN"
 "http://www.w3.org/Graphics/SVG/1.1/DTD/svg11.dtd">
<!-- Generated by graphviz version 11.0.0 (20240428.1522)
 -->
<!-- Pages: 1 -->
<svg width="829pt" height="1233pt"
 viewBox="0.00 0.00 828.76 1233.01" xmlns="http://www.w3.org/2000/svg" xmlns:xlink="http://www.w3.org/1999/xlink">
<g id="graph0" class="graph" transform="scale(1 1) rotate(0) translate(4 1229.01)">
<polygon fill="#ffffff" stroke="none" points="-4,4 -4,-1229.01 824.76,-1229.01 824.76,4 -4,4"/>
<!-- X1 -->
<g id="node1" class="node">
<title>X1</title>
<polygon fill="#ffffff" stroke="black" points="135,-767 0,-767 0,-406 135,-406 135,-767"/>
<polygon fill="#ffffff" stroke="none" points="0,-406 0,-767 135,-767 135,-406 0,-406"/>
<polygon fill="none" stroke="black" points="0,-742.5 0,-767 135,-767 135,-742.5 0,-742.5"/>
<text text-anchor="start" x="58.5" y="-749.7" font-family="arial" font-size="14.00">X1</text>
<polygon fill="none" stroke="black" points="0,-718 0,-742.5 48.5,-742.5 48.5,-718 0,-718"/>
<text text-anchor="start" x="4" y="-725.2" font-family="arial" font-size="14.00">D&#45;Sub</text>
<polygon fill="none" stroke="black" points="48.5,-718 48.5,-742.5 87.25,-742.5 87.25,-718 48.5,-718"/>
<text text-anchor="start" x="52.5" y="-725.2" font-family="arial" font-size="14.00">male</text>
<polygon fill="none" stroke="black" points="87.25,-718 87.25,-742.5 135,-742.5 135,-718 87.25,-718"/>
<text text-anchor="start" x="91.25" y="-725.2" font-family="arial" font-size="14.00">25&#45;pin</text>
<polygon fill="none" stroke="black" points="0,-694 0,-718 101,-718 101,-694 0,-694"/>
<text text-anchor="start" x="8.88" y="-700.7" font-family="arial" font-size="14.00">SENSE_P_1</text>
<polygon fill="none" stroke="black" points="101,-694 101,-718 135,-718 135,-694 101,-694"/>
<text text-anchor="start" x="113.88" y="-700.7" font-family="arial" font-size="14.00">1</text>
<polygon fill="none" stroke="black" points="0,-670 0,-694 101,-694 101,-670 0,-670"/>
<text text-anchor="start" x="8.88" y="-676.7" font-family="arial" font-size="14.00">SENSE_N_1</text>
<polygon fill="none" stroke="black" points="101,-670 101,-694 135,-694 135,-670 101,-670"/>
<text text-anchor="start" x="109.75" y="-676.7" font-family="arial" font-size="14.00">14</text>
<polygon fill="none" stroke="black" points="0,-646 0,-670 101,-670 101,-646 0,-646"/>
<text text-anchor="start" x="8.88" y="-652.7" font-family="arial" font-size="14.00">SENSE_P_2</text>
<polygon fill="none" stroke="black" points="101,-646 101,-670 135,-670 135,-646 101,-646"/>
<text text-anchor="start" x="113.88" y="-652.7" font-family="arial" font-size="14.00">3</text>
<polygon fill="none" stroke="black" points="0,-622 0,-646 101,-646 101,-622 0,-622"/>
<text text-anchor="start" x="8.88" y="-628.7" font-family="arial" font-size="14.00">SENSE_N_2</text>
<polygon fill="none" stroke="black" points="101,-622 101,-646 135,-646 135,-622 101,-622"/>
<text text-anchor="start" x="109.75" y="-628.7" font-family="arial" font-size="14.00">16</text>
<polygon fill="none" stroke="black" points="0,-598 0,-622 101,-622 101,-598 0,-598"/>
<text text-anchor="start" x="8.88" y="-604.7" font-family="arial" font-size="14.00">SENSE_P_3</text>
<polygon fill="none" stroke="black" points="101,-598 101,-622 135,-622 135,-598 101,-598"/>
<text text-anchor="start" x="113.88" y="-604.7" font-family="arial" font-size="14.00">5</text>
<polygon fill="none" stroke="black" points="0,-574 0,-598 101,-598 101,-574 0,-574"/>
<text text-anchor="start" x="8.88" y="-580.7" font-family="arial" font-size="14.00">SENSE_N_3</text>
<polygon fill="none" stroke="black" points="101,-574 101,-598 135,-598 135,-574 101,-574"/>
<text text-anchor="start" x="109.75" y="-580.7" font-family="arial" font-size="14.00">18</text>
<polygon fill="none" stroke="black" points="0,-550 0,-574 101,-574 101,-550 0,-550"/>
<text text-anchor="start" x="8.88" y="-556.7" font-family="arial" font-size="14.00">SENSE_P_4</text>
<polygon fill="none" stroke="black" points="101,-550 101,-574 135,-574 135,-550 101,-550"/>
<text text-anchor="start" x="113.88" y="-556.7" font-family="arial" font-size="14.00">7</text>
<polygon fill="none" stroke="black" points="0,-526 0,-550 101,-550 101,-526 0,-526"/>
<text text-anchor="start" x="8.88" y="-532.7" font-family="arial" font-size="14.00">SENSE_N_4</text>
<polygon fill="none" stroke="black" points="101,-526 101,-550 135,-550 135,-526 101,-526"/>
<text text-anchor="start" x="109.75" y="-532.7" font-family="arial" font-size="14.00">20</text>
<polygon fill="none" stroke="black" points="0,-502 0,-526 101,-526 101,-502 0,-502"/>
<text text-anchor="start" x="8.88" y="-508.7" font-family="arial" font-size="14.00">SENSE_P_5</text>
<polygon fill="none" stroke="black" points="101,-502 101,-526 135,-526 135,-502 101,-502"/>
<text text-anchor="start" x="113.88" y="-508.7" font-family="arial" font-size="14.00">9</text>
<polygon fill="none" stroke="black" points="0,-478 0,-502 101,-502 101,-478 0,-478"/>
<text text-anchor="start" x="8.88" y="-484.7" font-family="arial" font-size="14.00">SENSE_N_5</text>
<polygon fill="none" stroke="black" points="101,-478 101,-502 135,-502 135,-478 101,-478"/>
<text text-anchor="start" x="109.75" y="-484.7" font-family="arial" font-size="14.00">22</text>
<polygon fill="none" stroke="black" points="0,-454 0,-478 101,-478 101,-454 0,-454"/>
<text text-anchor="start" x="8.88" y="-460.7" font-family="arial" font-size="14.00">SENSE_P_6</text>
<polygon fill="none" stroke="black" points="101,-454 101,-478 135,-478 135,-454 101,-454"/>
<text text-anchor="start" x="109.75" y="-460.7" font-family="arial" font-size="14.00">11</text>
<polygon fill="none" stroke="black" points="0,-430 0,-454 101,-454 101,-430 0,-430"/>
<text text-anchor="start" x="8.88" y="-436.7" font-family="arial" font-size="14.00">SENSE_N_6</text>
<polygon fill="none" stroke="black" points="101,-430 101,-454 135,-454 135,-430 101,-430"/>
<text text-anchor="start" x="109.75" y="-436.7" font-family="arial" font-size="14.00">24</text>
<polygon fill="none" stroke="black" points="0,-406 0,-430 101,-430 101,-406 0,-406"/>
<text text-anchor="start" x="34.75" y="-412.7" font-family="arial" font-size="14.00">GND</text>
<polygon fill="none" stroke="black" points="101,-406 101,-430 135,-430 135,-406 101,-406"/>
<text text-anchor="start" x="109.75" y="-412.7" font-family="arial" font-size="14.00">13</text>
</g>
<!-- W1 -->
<g id="node2" class="node">
<title>W1</title>
<polygon fill="#ffffff" stroke="black" points="544,-824 279,-824 279,-377 544,-377 544,-824"/>
<polygon fill="#ffffff" stroke="none" points="279,-377 279,-824 544,-824 544,-377 279,-377"/>
<polygon fill="none" stroke="black" points="279,-799.5 279,-824 544,-824 544,-799.5 279,-799.5"/>
<text text-anchor="start" x="400.25" y="-806.7" font-family="arial" font-size="14.00">W1</text>
<polygon fill="none" stroke="black" points="279,-775 279,-799.5 333.06,-799.5 333.06,-775 279,-775"/>
<text text-anchor="start" x="294.41" y="-782.2" font-family="arial" font-size="14.00">12x</text>
<polygon fill="none" stroke="black" points="333.06,-775 333.06,-799.5 424.62,-799.5 424.62,-775 333.06,-775"/>
<text text-anchor="start" x="348.47" y="-782.2" font-family="arial" font-size="14.00">0.25 mm²</text>
<polygon fill="none" stroke="black" points="424.62,-775 424.62,-799.5 477.19,-799.5 477.19,-775 424.62,-775"/>
<text text-anchor="start" x="440.03" y="-782.2" font-family="arial" font-size="14.00">+ S</text>
<polygon fill="none" stroke="black" points="477.19,-775 477.19,-799.5 544,-799.5 544,-775 477.19,-775"/>
<text text-anchor="start" x="492.59" y="-782.2" font-family="arial" font-size="14.00">0.2 m</text>
<text text-anchor="start" x="343.62" y="-759.7" font-family="arial" font-size="14.00"> </text>
<text text-anchor="start" x="281" y="-739.7" font-family="arial" font-size="14.00"> X1:14:SENSE_N_1</text>
<text text-anchor="start" x="413.62" y="-739.7" font-family="arial" font-size="14.00"> </text>
<text text-anchor="start" x="433" y="-739.7" font-family="arial" font-size="14.00">1:WH</text>
<text text-anchor="start" x="484.62" y="-739.7" font-family="arial" font-size="14.00"> </text>
<text text-anchor="start" x="501.5" y="-739.7" font-family="arial" font-size="14.00">X2:z2 </text>
<text text-anchor="start" x="281" y="-713.7" font-family="arial" font-size="14.00"> X1:1:SENSE_P_1</text>
<text text-anchor="start" x="413.62" y="-713.7" font-family="arial" font-size="14.00"> </text>
<text text-anchor="start" x="435.25" y="-713.7" font-family="arial" font-size="14.00">2:BN</text>
<text text-anchor="start" x="484.62" y="-713.7" font-family="arial" font-size="14.00"> </text>
<text text-anchor="start" x="500" y="-713.7" font-family="arial" font-size="14.00">X2:d4 </text>
<text text-anchor="start" x="281" y="-687.7" font-family="arial" font-size="14.00"> X1:16:SENSE_N_2</text>
<text text-anchor="start" x="413.62" y="-687.7" font-family="arial" font-size="14.00"> </text>
<text text-anchor="start" x="434.5" y="-687.7" font-family="arial" font-size="14.00">3:GN</text>
<text text-anchor="start" x="484.62" y="-687.7" font-family="arial" font-size="14.00"> </text>
<text text-anchor="start" x="501.5" y="-687.7" font-family="arial" font-size="14.00">X2:z8 </text>
<text text-anchor="start" x="281" y="-661.7" font-family="arial" font-size="14.00"> X1:3:SENSE_P_2</text>
<text text-anchor="start" x="413.62" y="-661.7" font-family="arial" font-size="14.00"> </text>
<text text-anchor="start" x="435.62" y="-661.7" font-family="arial" font-size="14.00">4:YE</text>
<text text-anchor="start" x="484.62" y="-661.7" font-family="arial" font-size="14.00"> </text>
<text text-anchor="start" x="491.88" y="-661.7" font-family="arial" font-size="14.00">X2:d10 </text>
<text text-anchor="start" x="281" y="-635.7" font-family="arial" font-size="14.00"> X1:18:SENSE_N_3</text>
<text text-anchor="start" x="413.62" y="-635.7" font-family="arial" font-size="14.00"> </text>
<text text-anchor="start" x="434.88" y="-635.7" font-family="arial" font-size="14.00">5:GY</text>
<text text-anchor="start" x="484.62" y="-635.7" font-family="arial" font-size="14.00"> </text>
<text text-anchor="start" x="493.25" y="-635.7" font-family="arial" font-size="14.00">X2:z14 </text>
<text text-anchor="start" x="281" y="-609.7" font-family="arial" font-size="14.00"> X1:5:SENSE_P_3</text>
<text text-anchor="start" x="413.62" y="-609.7" font-family="arial" font-size="14.00"> </text>
<text text-anchor="start" x="435.25" y="-609.7" font-family="arial" font-size="14.00">6:PK</text>
<text text-anchor="start" x="484.62" y="-609.7" font-family="arial" font-size="14.00"> </text>
<text text-anchor="start" x="491.88" y="-609.7" font-family="arial" font-size="14.00">X2:d16 </text>
<text text-anchor="start" x="281" y="-583.7" font-family="arial" font-size="14.00"> X1:20:SENSE_N_4</text>
<text text-anchor="start" x="413.62" y="-583.7" font-family="arial" font-size="14.00"> </text>
<text text-anchor="start" x="435.25" y="-583.7" font-family="arial" font-size="14.00">7:BU</text>
<text text-anchor="start" x="484.62" y="-583.7" font-family="arial" font-size="14.00"> </text>
<text text-anchor="start" x="493.25" y="-583.7" font-family="arial" font-size="14.00">X2:z18 </text>
<text text-anchor="start" x="281" y="-557.7" font-family="arial" font-size="14.00"> X1:7:SENSE_P_4</text>
<text text-anchor="start" x="413.62" y="-557.7" font-family="arial" font-size="14.00"> </text>
<text text-anchor="start" x="434.5" y="-557.7" font-family="arial" font-size="14.00">8:RD</text>
<text text-anchor="start" x="484.62" y="-557.7" font-family="arial" font-size="14.00"> </text>
<text text-anchor="start" x="491.88" y="-557.7" font-family="arial" font-size="14.00">X2:d20 </text>
<text text-anchor="start" x="281" y="-531.7" font-family="arial" font-size="14.00"> X1:22:SENSE_N_5</text>
<text text-anchor="start" x="413.62" y="-531.7" font-family="arial" font-size="14.00"> </text>
<text text-anchor="start" x="435.25" y="-531.7" font-family="arial" font-size="14.00">9:BK</text>
<text text-anchor="start" x="484.62" y="-531.7" font-family="arial" font-size="14.00"> </text>
<text text-anchor="start" x="493.25" y="-531.7" font-family="arial" font-size="14.00">X2:z24 </text>
<text text-anchor="start" x="281" y="-505.7" font-family="arial" font-size="14.00"> X1:9:SENSE_P_5</text>
<text text-anchor="start" x="413.62" y="-505.7" font-family="arial" font-size="14.00"> </text>
<text text-anchor="start" x="431.5" y="-505.7" font-family="arial" font-size="14.00">10:VT</text>
<text text-anchor="start" x="484.62" y="-505.7" font-family="arial" font-size="14.00"> </text>
<text text-anchor="start" x="491.88" y="-505.7" font-family="arial" font-size="14.00">X2:d26 </text>
<text text-anchor="start" x="281" y="-479.7" font-family="arial" font-size="14.00"> X1:24:SENSE_N_6</text>
<text text-anchor="start" x="413.62" y="-479.7" font-family="arial" font-size="14.00"> </text>
<text text-anchor="start" x="421" y="-479.7" font-family="arial" font-size="14.00">11:GYPK</text>
<text text-anchor="start" x="484.62" y="-479.7" font-family="arial" font-size="14.00"> </text>
<text text-anchor="start" x="493.25" y="-479.7" font-family="arial" font-size="14.00">X2:z30 </text>
<text text-anchor="start" x="281" y="-453.7" font-family="arial" font-size="14.00"> X1:11:SENSE_P_6</text>
<text text-anchor="start" x="413.62" y="-453.7" font-family="arial" font-size="14.00"> </text>
<text text-anchor="start" x="420.62" y="-453.7" font-family="arial" font-size="14.00">12:RDBU</text>
<text text-anchor="start" x="484.62" y="-453.7" font-family="arial" font-size="14.00"> </text>
<text text-anchor="start" x="491.88" y="-453.7" font-family="arial" font-size="14.00">X2:d32 </text>
<text text-anchor="start" x="343.62" y="-427.7" font-family="arial" font-size="14.00"> </text>
<text text-anchor="start" x="281" y="-407.7" font-family="arial" font-size="14.00"> X1:13:GND</text>
<text text-anchor="start" x="413.62" y="-407.7" font-family="arial" font-size="14.00"> </text>
<text text-anchor="start" x="431.12" y="-407.7" font-family="arial" font-size="14.00">Shield</text>
<text text-anchor="start" x="484.62" y="-407.7" font-family="arial" font-size="14.00"> </text>
<text text-anchor="start" x="538.25" y="-407.7" font-family="arial" font-size="14.00"> </text>
<text text-anchor="start" x="343.62" y="-381.7" font-family="arial" font-size="14.00"> </text>
</g>
<!-- X1&#45;&#45;W1 -->
<g id="edge1" class="edge">
<title>X1:e&#45;&#45;W1:w</title>
<path fill="none" stroke="#000000" stroke-width="2" d="M135,-702C199,-702 215,-702 279,-702"/>
<path fill="none" stroke="#895956" stroke-width="2" d="M135,-704C199,-704 215,-704 279,-704"/>
<path fill="none" stroke="#895956" stroke-width="2" d="M135,-706C199,-706 215,-706 279,-706"/>
<path fill="none" stroke="#895956" stroke-width="2" d="M135,-708C199,-708 215,-708 279,-708"/>
<path fill="none" stroke="#000000" stroke-width="2" d="M135,-710C199,-710 215,-710 279,-710"/>
</g>
<!-- X1&#45;&#45;W1 -->
<g id="edge2" class="edge">
<title>X1:e&#45;&#45;W1:w</title>
<path fill="none" stroke="#000000" stroke-width="2" d="M135,-678C206.69,-681.33 215.19,-731.33 279,-728"/>
<path fill="none" stroke="#ffffff" stroke-width="2" d="M135,-680C204.72,-681.67 213.22,-731.67 279,-730"/>
<path fill="none" stroke="#ffffff" stroke-width="2" d="M135,-682C202.75,-682 211.25,-732 279,-732"/>
<path fill="none" stroke="#ffffff" stroke-width="2" d="M135,-684C200.78,-682.34 209.28,-732.34 279,-734"/>
<path fill="none" stroke="#000000" stroke-width="2" d="M135,-686C198.81,-682.67 207.31,-732.67 279,-736"/>
</g>
<!-- X1&#45;&#45;W1 -->
<g id="edge3" class="edge">
<title>X1:e&#45;&#45;W1:w</title>
<path fill="none" stroke="#000000" stroke-width="2" d="M135,-654C198.05,-654.12 214.01,-650.12 279,-650"/>
<path fill="none" stroke="#ffff00" stroke-width="2" d="M135,-656C198.53,-656.06 214.49,-652.06 279,-652"/>
<path fill="none" stroke="#ffff00" stroke-width="2" d="M135,-658C199.02,-658 214.98,-654 279,-654"/>
<path fill="none" stroke="#ffff00" stroke-width="2" d="M135,-660C199.51,-659.94 215.47,-655.94 279,-656"/>
<path fill="none" stroke="#000000" stroke-width="2" d="M135,-662C199.99,-661.88 215.95,-657.88 279,-658"/>
</g>
<!-- X1&#45;&#45;W1 -->
<g id="edge4" class="edge">
<title>X1:e&#45;&#45;W1:w</title>
<path fill="none" stroke="#000000" stroke-width="2" d="M135,-630C206.11,-633.19 215.73,-679.19 279,-676"/>
<path fill="none" stroke="#00aa00" stroke-width="2" d="M135,-632C204.15,-633.59 213.77,-679.59 279,-678"/>
<path fill="none" stroke="#00aa00" stroke-width="2" d="M135,-634C202.19,-634 211.81,-680 279,-680"/>
<path fill="none" stroke="#00aa00" stroke-width="2" d="M135,-636C200.23,-634.41 209.85,-680.41 279,-682"/>
<path fill="none" stroke="#000000" stroke-width="2" d="M135,-638C198.27,-634.82 207.89,-680.82 279,-684"/>
</g>
<!-- X1&#45;&#45;W1 -->
<g id="edge5" class="edge">
<title>X1:e&#45;&#45;W1:w</title>
<path fill="none" stroke="#000000" stroke-width="2" d="M135,-606C197.29,-606.44 213.09,-598.44 279,-598"/>
<path fill="none" stroke="#ff66cc" stroke-width="2" d="M135,-608C198.2,-608.22 214,-600.22 279,-600"/>
<path fill="none" stroke="#ff66cc" stroke-width="2" d="M135,-610C199.1,-610 214.9,-602 279,-602"/>
<path fill="none" stroke="#ff66cc" stroke-width="2" d="M135,-612C200,-611.79 215.8,-603.79 279,-604"/>
<path fill="none" stroke="#000000" stroke-width="2" d="M135,-614C200.91,-613.57 216.71,-605.57 279,-606"/>
</g>
<!-- X1&#45;&#45;W1 -->
<g id="edge6" class="edge">
<title>X1:e&#45;&#45;W1:w</title>
<path fill="none" stroke="#000000" stroke-width="2" d="M135,-582C205.55,-585.02 216.21,-627.02 279,-624"/>
<path fill="none" stroke="#999999" stroke-width="2" d="M135,-584C203.61,-585.51 214.27,-627.51 279,-626"/>
<path fill="none" stroke="#999999" stroke-width="2" d="M135,-586C201.67,-586 212.33,-628 279,-628"/>
<path fill="none" stroke="#999999" stroke-width="2" d="M135,-588C199.73,-586.5 210.39,-628.5 279,-630"/>
<path fill="none" stroke="#000000" stroke-width="2" d="M135,-590C197.79,-586.99 208.45,-628.99 279,-632"/>
</g>
<!-- X1&#45;&#45;W1 -->
<g id="edge7" class="edge">
<title>X1:e&#45;&#45;W1:w</title>
<path fill="none" stroke="#000000" stroke-width="2" d="M135,-558C196.78,-558.84 212.34,-546.84 279,-546"/>
<path fill="none" stroke="#ff0000" stroke-width="2" d="M135,-560C198,-560.42 213.56,-548.42 279,-548"/>
<path fill="none" stroke="#ff0000" stroke-width="2" d="M135,-562C199.22,-562 214.78,-550 279,-550"/>
<path fill="none" stroke="#ff0000" stroke-width="2" d="M135,-564C200.44,-563.59 216,-551.59 279,-552"/>
<path fill="none" stroke="#000000" stroke-width="2" d="M135,-566C201.66,-565.17 217.22,-553.17 279,-554"/>
</g>
<!-- X1&#45;&#45;W1 -->
<g id="edge8" class="edge">
<title>X1:e&#45;&#45;W1:w</title>
<path fill="none" stroke="#000000" stroke-width="2" d="M135,-534C205.02,-536.83 216.64,-574.83 279,-572"/>
<path fill="none" stroke="#0066ff" stroke-width="2" d="M135,-536C203.1,-537.42 214.72,-575.42 279,-574"/>
<path fill="none" stroke="#0066ff" stroke-width="2" d="M135,-538C201.19,-538 212.81,-576 279,-576"/>
<path fill="none" stroke="#0066ff" stroke-width="2" d="M135,-540C199.28,-538.59 210.9,-576.59 279,-578"/>
<path fill="none" stroke="#000000" stroke-width="2" d="M135,-542C197.36,-539.17 208.98,-577.17 279,-580"/>
</g>
<!-- X1&#45;&#45;W1 -->
<g id="edge9" class="edge">
<title>X1:e&#45;&#45;W1:w</title>
<path fill="none" stroke="#000000" stroke-width="2" d="M135,-510C196.49,-511.25 211.71,-495.25 279,-494"/>
<path fill="none" stroke="#8000ff" stroke-width="2" d="M135,-512C197.94,-512.63 213.16,-496.63 279,-496"/>
<path fill="none" stroke="#8000ff" stroke-width="2" d="M135,-514C199.39,-514 214.61,-498 279,-498"/>
<path fill="none" stroke="#8000ff" stroke-width="2" d="M135,-516C200.84,-515.38 216.06,-499.38 279,-500"/>
<path fill="none" stroke="#000000" stroke-width="2" d="M135,-518C202.29,-516.76 217.51,-500.76 279,-502"/>
</g>
<!-- X1&#45;&#45;W1 -->
<g id="edge10" class="edge">
<title>X1:e&#45;&#45;W1:w</title>
<path fill="none" stroke="#000000" stroke-width="2" d="M135,-486C204.52,-488.63 217,-522.63 279,-520"/>
<path fill="none" stroke="#000000" stroke-width="2" d="M135,-488C202.64,-489.31 215.12,-523.31 279,-522"/>
<path fill="none" stroke="#000000" stroke-width="2" d="M135,-490C200.76,-490 213.24,-524 279,-524"/>
<path fill="none" stroke="#000000" stroke-width="2" d="M135,-492C198.88,-490.69 211.36,-524.69 279,-526"/>
<path fill="none" stroke="#000000" stroke-width="2" d="M135,-494C197,-491.38 209.48,-525.38 279,-528"/>
</g>
<!-- X1&#45;&#45;W1 -->
<g id="edge11" class="edge">
<title>X1:e&#45;&#45;W1:w</title>
<path fill="none" stroke="#000000" stroke-width="2" d="M135,-462C196.39,-463.63 211.17,-443.63 279,-442"/>
<path fill="none" stroke="#ff0000" stroke-width="2" d="M135,-464C198,-464.82 212.78,-444.82 279,-444"/>
<path fill="none" stroke="#0066ff" stroke-width="2" d="M135,-466C199.61,-466 214.39,-446 279,-446"/>
<path fill="none" stroke="#ff0000" stroke-width="2" d="M135,-468C201.22,-467.19 216,-447.19 279,-448"/>
<path fill="none" stroke="#000000" stroke-width="2" d="M135,-470C202.83,-468.38 217.61,-448.38 279,-450"/>
</g>
<!-- X1&#45;&#45;W1 -->
<g id="edge12" class="edge">
<title>X1:e&#45;&#45;W1:w</title>
<path fill="none" stroke="#000000" stroke-width="2" d="M135,-438C204.03,-440.39 217.29,-470.39 279,-468"/>
<path fill="none" stroke="#999999" stroke-width="2" d="M135,-440C202.2,-441.2 215.46,-471.2 279,-470"/>
<path fill="none" stroke="#ff66cc" stroke-width="2" d="M135,-442C200.37,-442 213.63,-472 279,-472"/>
<path fill="none" stroke="#999999" stroke-width="2" d="M135,-444C198.54,-442.81 211.8,-472.81 279,-474"/>
<path fill="none" stroke="#000000" stroke-width="2" d="M135,-446C196.71,-443.62 209.97,-473.62 279,-476"/>
</g>
<!-- X1&#45;&#45;W1 -->
<g id="edge13" class="edge">
<title>X1:e&#45;&#45;W1:w</title>
<path fill="none" stroke="#000000" stroke-width="2" d="M135,-418C199.5,-418 214.5,-400 279,-400"/>
</g>
<!-- W1&#45;&#45;W1 -->
<g id="edge14" class="edge">
<title>W1:e&#45;&#45;W1:w</title>
<path fill="none" stroke="#000000" stroke-width="2" d="M544,-736C455.67,-736 367.33,-736 279,-736"/>
<path fill="none" stroke="#ffffff" stroke-width="2" d="M544,-734C455.67,-734 367.33,-734 279,-734"/>
<path fill="none" stroke="#ffffff" stroke-width="2" d="M544,-732C455.67,-732 367.33,-732 279,-732"/>
<path fill="none" stroke="#ffffff" stroke-width="2" d="M544,-730C455.67,-730 367.33,-730 279,-730"/>
<path fill="none" stroke="#000000" stroke-width="2" d="M544,-728C455.67,-728 367.33,-728 279,-728"/>
</g>
<!-- W1&#45;&#45;W1 -->
<g id="edge15" class="edge">
<title>W1:e&#45;&#45;W1:w</title>
<path fill="none" stroke="#000000" stroke-width="2" d="M544,-710C455.67,-710 367.33,-710 279,-710"/>
<path fill="none" stroke="#895956" stroke-width="2" d="M544,-708C455.67,-708 367.33,-708 279,-708"/>
<path fill="none" stroke="#895956" stroke-width="2" d="M544,-706C455.67,-706 367.33,-706 279,-706"/>
<path fill="none" stroke="#895956" stroke-width="2" d="M544,-704C455.67,-704 367.33,-704 279,-704"/>
<path fill="none" stroke="#000000" stroke-width="2" d="M544,-702C455.67,-702 367.33,-702 279,-702"/>
</g>
<!-- W1&#45;&#45;W1 -->
<g id="edge16" class="edge">
<title>W1:e&#45;&#45;W1:w</title>
<path fill="none" stroke="#000000" stroke-width="2" d="M544,-684C455.67,-684 367.33,-684 279,-684"/>
<path fill="none" stroke="#00aa00" stroke-width="2" d="M544,-682C455.67,-682 367.33,-682 279,-682"/>
<path fill="none" stroke="#00aa00" stroke-width="2" d="M544,-680C455.67,-680 367.33,-680 279,-680"/>
<path fill="none" stroke="#00aa00" stroke-width="2" d="M544,-678C455.67,-678 367.33,-678 279,-678"/>
<path fill="none" stroke="#000000" stroke-width="2" d="M544,-676C455.67,-676 367.33,-676 279,-676"/>
</g>
<!-- W1&#45;&#45;W1 -->
<g id="edge17" class="edge">
<title>W1:e&#45;&#45;W1:w</title>
<path fill="none" stroke="#000000" stroke-width="2" d="M544,-658C455.67,-658 367.33,-658 279,-658"/>
<path fill="none" stroke="#ffff00" stroke-width="2" d="M544,-656C455.67,-656 367.33,-656 279,-656"/>
<path fill="none" stroke="#ffff00" stroke-width="2" d="M544,-654C455.67,-654 367.33,-654 279,-654"/>
<path fill="none" stroke="#ffff00" stroke-width="2" d="M544,-652C455.67,-652 367.33,-652 279,-652"/>
<path fill="none" stroke="#000000" stroke-width="2" d="M544,-650C455.67,-650 367.33,-650 279,-650"/>
</g>
<!-- W1&#45;&#45;W1 -->
<g id="edge18" class="edge">
<title>W1:e&#45;&#45;W1:w</title>
<path fill="none" stroke="#000000" stroke-width="2" d="M544,-632C455.67,-632 367.33,-632 279,-632"/>
<path fill="none" stroke="#999999" stroke-width="2" d="M544,-630C455.67,-630 367.33,-630 279,-630"/>
<path fill="none" stroke="#999999" stroke-width="2" d="M544,-628C455.67,-628 367.33,-628 279,-628"/>
<path fill="none" stroke="#999999" stroke-width="2" d="M544,-626C455.67,-626 367.33,-626 279,-626"/>
<path fill="none" stroke="#000000" stroke-width="2" d="M544,-624C455.67,-624 367.33,-624 279,-624"/>
</g>
<!-- W1&#45;&#45;W1 -->
<g id="edge19" class="edge">
<title>W1:e&#45;&#45;W1:w</title>
<path fill="none" stroke="#000000" stroke-width="2" d="M544,-606C455.67,-606 367.33,-606 279,-606"/>
<path fill="none" stroke="#ff66cc" stroke-width="2" d="M544,-604C455.67,-604 367.33,-604 279,-604"/>
<path fill="none" stroke="#ff66cc" stroke-width="2" d="M544,-602C455.67,-602 367.33,-602 279,-602"/>
<path fill="none" stroke="#ff66cc" stroke-width="2" d="M544,-600C455.67,-600 367.33,-600 279,-600"/>
<path fill="none" stroke="#000000" stroke-width="2" d="M544,-598C455.67,-598 367.33,-598 279,-598"/>
</g>
<!-- W1&#45;&#45;W1 -->
<g id="edge20" class="edge">
<title>W1:e&#45;&#45;W1:w</title>
<path fill="none" stroke="#000000" stroke-width="2" d="M544,-580C455.67,-580 367.33,-580 279,-580"/>
<path fill="none" stroke="#0066ff" stroke-width="2" d="M544,-578C455.67,-578 367.33,-578 279,-578"/>
<path fill="none" stroke="#0066ff" stroke-width="2" d="M544,-576C455.67,-576 367.33,-576 279,-576"/>
<path fill="none" stroke="#0066ff" stroke-width="2" d="M544,-574C455.67,-574 367.33,-574 279,-574"/>
<path fill="none" stroke="#000000" stroke-width="2" d="M544,-572C455.67,-572 367.33,-572 279,-572"/>
</g>
<!-- W1&#45;&#45;W1 -->
<g id="edge21" class="edge">
<title>W1:e&#45;&#45;W1:w</title>
<path fill="none" stroke="#000000" stroke-width="2" d="M544,-554C455.67,-554 367.33,-554 279,-554"/>
<path fill="none" stroke="#ff0000" stroke-width="2" d="M544,-552C455.67,-552 367.33,-552 279,-552"/>
<path fill="none" stroke="#ff0000" stroke-width="2" d="M544,-550C455.67,-550 367.33,-550 279,-550"/>
<path fill="none" stroke="#ff0000" stroke-width="2" d="M544,-548C455.67,-548 367.33,-548 279,-548"/>
<path fill="none" stroke="#000000" stroke-width="2" d="M544,-546C455.67,-546 367.33,-546 279,-546"/>
</g>
<!-- W1&#45;&#45;W1 -->
<g id="edge22" class="edge">
<title>W1:e&#45;&#45;W1:w</title>
<path fill="none" stroke="#000000" stroke-width="2" d="M544,-528C455.67,-528 367.33,-528 279,-528"/>
<path fill="none" stroke="#000000" stroke-width="2" d="M544,-526C455.67,-526 367.33,-526 279,-526"/>
<path fill="none" stroke="#000000" stroke-width="2" d="M544,-524C455.67,-524 367.33,-524 279,-524"/>
<path fill="none" stroke="#000000" stroke-width="2" d="M544,-522C455.67,-522 367.33,-522 279,-522"/>
<path fill="none" stroke="#000000" stroke-width="2" d="M544,-520C455.67,-520 367.33,-520 279,-520"/>
</g>
<!-- W1&#45;&#45;W1 -->
<g id="edge23" class="edge">
<title>W1:e&#45;&#45;W1:w</title>
<path fill="none" stroke="#000000" stroke-width="2" d="M544,-502C455.67,-502 367.33,-502 279,-502"/>
<path fill="none" stroke="#8000ff" stroke-width="2" d="M544,-500C455.67,-500 367.33,-500 279,-500"/>
<path fill="none" stroke="#8000ff" stroke-width="2" d="M544,-498C455.67,-498 367.33,-498 279,-498"/>
<path fill="none" stroke="#8000ff" stroke-width="2" d="M544,-496C455.67,-496 367.33,-496 279,-496"/>
<path fill="none" stroke="#000000" stroke-width="2" d="M544,-494C455.67,-494 367.33,-494 279,-494"/>
</g>
<!-- W1&#45;&#45;W1 -->
<g id="edge24" class="edge">
<title>W1:e&#45;&#45;W1:w</title>
<path fill="none" stroke="#000000" stroke-width="2" d="M544,-476C455.67,-476 367.33,-476 279,-476"/>
<path fill="none" stroke="#999999" stroke-width="2" d="M544,-474C455.67,-474 367.33,-474 279,-474"/>
<path fill="none" stroke="#ff66cc" stroke-width="2" d="M544,-472C455.67,-472 367.33,-472 279,-472"/>
<path fill="none" stroke="#999999" stroke-width="2" d="M544,-470C455.67,-470 367.33,-470 279,-470"/>
<path fill="none" stroke="#000000" stroke-width="2" d="M544,-468C455.67,-468 367.33,-468 279,-468"/>
</g>
<!-- W1&#45;&#45;W1 -->
<g id="edge25" class="edge">
<title>W1:e&#45;&#45;W1:w</title>
<path fill="none" stroke="#000000" stroke-width="2" d="M544,-450C455.67,-450 367.33,-450 279,-450"/>
<path fill="none" stroke="#ff0000" stroke-width="2" d="M544,-448C455.67,-448 367.33,-448 279,-448"/>
<path fill="none" stroke="#0066ff" stroke-width="2" d="M544,-446C455.67,-446 367.33,-446 279,-446"/>
<path fill="none" stroke="#ff0000" stroke-width="2" d="M544,-444C455.67,-444 367.33,-444 279,-444"/>
<path fill="none" stroke="#000000" stroke-width="2" d="M544,-442C455.67,-442 367.33,-442 279,-442"/>
</g>
<!-- W1&#45;&#45;W1 -->
<g id="edge26" class="edge">
<title>W1:e&#45;&#45;W1:w</title>
<path fill="none" stroke="#000000" stroke-width="2" d="M544,-400C455.67,-400 367.33,-400 279,-400"/>
</g>
<!-- X2 -->
<g id="node3" class="node">
<title>X2</title>
<polygon fill="#ffffff" stroke="black" points="820.76,-1225.01 688,-1225.01 688,0 820.76,0 820.76,-1225.01"/>
<polygon fill="#ffffff" stroke="none" points="688,0 688,-1225 820.75,-1225 820.75,0 688,0"/>
<polygon fill="none" stroke="black" points="688,-1200.5 688,-1225 820.75,-1225 820.75,-1200.5 688,-1200.5"/>
<text text-anchor="start" x="745.38" y="-1207.7" font-family="arial" font-size="14.00">X2</text>
<polygon fill="none" stroke="black" points="688,-1176 688,-1200.5 721.5,-1200.5 721.5,-1176 688,-1176"/>
<text text-anchor="start" x="692" y="-1183.2" font-family="arial" font-size="14.00">F48</text>
<polygon fill="none" stroke="black" points="721.5,-1176 721.5,-1200.5 773,-1200.5 773,-1176 721.5,-1176"/>
<text text-anchor="start" x="725.5" y="-1183.2" font-family="arial" font-size="14.00">female</text>
<polygon fill="none" stroke="black" points="773,-1176 773,-1200.5 820.75,-1200.5 820.75,-1176 773,-1176"/>
<text text-anchor="start" x="777" y="-1183.2" font-family="arial" font-size="14.00">48&#45;pin</text>
<polygon fill="none" stroke="black" points="688,-1151.5 688,-1176 820.75,-1176 820.75,-1151.5 688,-1151.5"/>
<text text-anchor="start" x="746.88" y="-1158.7" font-family="arial" font-size="14.00">z2</text>
<polygon fill="none" stroke="black" points="688,-1127 688,-1151.5 820.75,-1151.5 820.75,-1127 688,-1127"/>
<text text-anchor="start" x="746.13" y="-1134.2" font-family="arial" font-size="14.00">b2</text>
<polygon fill="none" stroke="black" points="688,-1102.5 688,-1127 820.75,-1127 820.75,-1102.5 688,-1102.5"/>
<text text-anchor="start" x="746.13" y="-1109.7" font-family="arial" font-size="14.00">d2</text>
<polygon fill="none" stroke="black" points="688,-1078 688,-1102.5 820.75,-1102.5 820.75,-1078 688,-1078"/>
<text text-anchor="start" x="746.88" y="-1085.2" font-family="arial" font-size="14.00">z4</text>
<polygon fill="none" stroke="black" points="688,-1053.5 688,-1078 820.75,-1078 820.75,-1053.5 688,-1053.5"/>
<text text-anchor="start" x="746.13" y="-1060.7" font-family="arial" font-size="14.00">b4</text>
<polygon fill="none" stroke="black" points="688,-1029 688,-1053.5 820.75,-1053.5 820.75,-1029 688,-1029"/>
<text text-anchor="start" x="746.13" y="-1036.2" font-family="arial" font-size="14.00">d4</text>
<polygon fill="none" stroke="black" points="688,-1004.5 688,-1029 820.75,-1029 820.75,-1004.5 688,-1004.5"/>
<text text-anchor="start" x="746.88" y="-1011.7" font-family="arial" font-size="14.00">z6</text>
<polygon fill="none" stroke="black" points="688,-980 688,-1004.5 820.75,-1004.5 820.75,-980 688,-980"/>
<text text-anchor="start" x="746.13" y="-987.2" font-family="arial" font-size="14.00">b6</text>
<polygon fill="none" stroke="black" points="688,-955.5 688,-980 820.75,-980 820.75,-955.5 688,-955.5"/>
<text text-anchor="start" x="746.13" y="-962.7" font-family="arial" font-size="14.00">d6</text>
<polygon fill="none" stroke="black" points="688,-931 688,-955.5 820.75,-955.5 820.75,-931 688,-931"/>
<text text-anchor="start" x="746.88" y="-938.2" font-family="arial" font-size="14.00">z8</text>
<polygon fill="none" stroke="black" points="688,-906.5 688,-931 820.75,-931 820.75,-906.5 688,-906.5"/>
<text text-anchor="start" x="746.13" y="-913.7" font-family="arial" font-size="14.00">b8</text>
<polygon fill="none" stroke="black" points="688,-882 688,-906.5 820.75,-906.5 820.75,-882 688,-882"/>
<text text-anchor="start" x="746.13" y="-889.2" font-family="arial" font-size="14.00">d8</text>
<polygon fill="none" stroke="black" points="688,-857.5 688,-882 820.75,-882 820.75,-857.5 688,-857.5"/>
<text text-anchor="start" x="742.75" y="-864.7" font-family="arial" font-size="14.00">z10</text>
<polygon fill="none" stroke="black" points="688,-833 688,-857.5 820.75,-857.5 820.75,-833 688,-833"/>
<text text-anchor="start" x="742" y="-840.2" font-family="arial" font-size="14.00">b10</text>
<polygon fill="none" stroke="black" points="688,-808.5 688,-833 820.75,-833 820.75,-808.5 688,-808.5"/>
<text text-anchor="start" x="742" y="-815.7" font-family="arial" font-size="14.00">d10</text>
<polygon fill="none" stroke="black" points="688,-784 688,-808.5 820.75,-808.5 820.75,-784 688,-784"/>
<text text-anchor="start" x="742.75" y="-791.2" font-family="arial" font-size="14.00">z12</text>
<polygon fill="none" stroke="black" points="688,-759.5 688,-784 820.75,-784 820.75,-759.5 688,-759.5"/>
<text text-anchor="start" x="742" y="-766.7" font-family="arial" font-size="14.00">b12</text>
<polygon fill="none" stroke="black" points="688,-735 688,-759.5 820.75,-759.5 820.75,-735 688,-735"/>
<text text-anchor="start" x="742" y="-742.2" font-family="arial" font-size="14.00">d12</text>
<polygon fill="none" stroke="black" points="688,-710.5 688,-735 820.75,-735 820.75,-710.5 688,-710.5"/>
<text text-anchor="start" x="742.75" y="-717.7" font-family="arial" font-size="14.00">z14</text>
<polygon fill="none" stroke="black" points="688,-686 688,-710.5 820.75,-710.5 820.75,-686 688,-686"/>
<text text-anchor="start" x="742" y="-693.2" font-family="arial" font-size="14.00">b14</text>
<polygon fill="none" stroke="black" points="688,-661.5 688,-686 820.75,-686 820.75,-661.5 688,-661.5"/>
<text text-anchor="start" x="742" y="-668.7" font-family="arial" font-size="14.00">d14</text>
<polygon fill="none" stroke="black" points="688,-637 688,-661.5 820.75,-661.5 820.75,-637 688,-637"/>
<text text-anchor="start" x="742.75" y="-644.2" font-family="arial" font-size="14.00">z16</text>
<polygon fill="none" stroke="black" points="688,-612.5 688,-637 820.75,-637 820.75,-612.5 688,-612.5"/>
<text text-anchor="start" x="742" y="-619.7" font-family="arial" font-size="14.00">b16</text>
<polygon fill="none" stroke="black" points="688,-588 688,-612.5 820.75,-612.5 820.75,-588 688,-588"/>
<text text-anchor="start" x="742" y="-595.2" font-family="arial" font-size="14.00">d16</text>
<polygon fill="none" stroke="black" points="688,-563.5 688,-588 820.75,-588 820.75,-563.5 688,-563.5"/>
<text text-anchor="start" x="742.75" y="-570.7" font-family="arial" font-size="14.00">z18</text>
<polygon fill="none" stroke="black" points="688,-539 688,-563.5 820.75,-563.5 820.75,-539 688,-539"/>
<text text-anchor="start" x="742" y="-546.2" font-family="arial" font-size="14.00">b18</text>
<polygon fill="none" stroke="black" points="688,-514.5 688,-539 820.75,-539 820.75,-514.5 688,-514.5"/>
<text text-anchor="start" x="742" y="-521.7" font-family="arial" font-size="14.00">d18</text>
<polygon fill="none" stroke="black" points="688,-490 688,-514.5 820.75,-514.5 820.75,-490 688,-490"/>
<text text-anchor="start" x="742.75" y="-497.2" font-family="arial" font-size="14.00">z20</text>
<polygon fill="none" stroke="black" points="688,-465.5 688,-490 820.75,-490 820.75,-465.5 688,-465.5"/>
<text text-anchor="start" x="742" y="-472.7" font-family="arial" font-size="14.00">b20</text>
<polygon fill="none" stroke="black" points="688,-441 688,-465.5 820.75,-465.5 820.75,-441 688,-441"/>
<text text-anchor="start" x="742" y="-448.2" font-family="arial" font-size="14.00">d20</text>
<polygon fill="none" stroke="black" points="688,-416.5 688,-441 820.75,-441 820.75,-416.5 688,-416.5"/>
<text text-anchor="start" x="742.75" y="-423.7" font-family="arial" font-size="14.00">z22</text>
<polygon fill="none" stroke="black" points="688,-392 688,-416.5 820.75,-416.5 820.75,-392 688,-392"/>
<text text-anchor="start" x="742" y="-399.2" font-family="arial" font-size="14.00">b22</text>
<polygon fill="none" stroke="black" points="688,-367.5 688,-392 820.75,-392 820.75,-367.5 688,-367.5"/>
<text text-anchor="start" x="742" y="-374.7" font-family="arial" font-size="14.00">d22</text>
<polygon fill="none" stroke="black" points="688,-343 688,-367.5 820.75,-367.5 820.75,-343 688,-343"/>
<text text-anchor="start" x="742.75" y="-350.2" font-family="arial" font-size="14.00">z24</text>
<polygon fill="none" stroke="black" points="688,-318.5 688,-343 820.75,-343 820.75,-318.5 688,-318.5"/>
<text text-anchor="start" x="742" y="-325.7" font-family="arial" font-size="14.00">b24</text>
<polygon fill="none" stroke="black" points="688,-294 688,-318.5 820.75,-318.5 820.75,-294 688,-294"/>
<text text-anchor="start" x="742" y="-301.2" font-family="arial" font-size="14.00">d24</text>
<polygon fill="none" stroke="black" points="688,-269.5 688,-294 820.75,-294 820.75,-269.5 688,-269.5"/>
<text text-anchor="start" x="742.75" y="-276.7" font-family="arial" font-size="14.00">z26</text>
<polygon fill="none" stroke="black" points="688,-245 688,-269.5 820.75,-269.5 820.75,-245 688,-245"/>
<text text-anchor="start" x="742" y="-252.2" font-family="arial" font-size="14.00">b26</text>
<polygon fill="none" stroke="black" points="688,-220.5 688,-245 820.75,-245 820.75,-220.5 688,-220.5"/>
<text text-anchor="start" x="742" y="-227.7" font-family="arial" font-size="14.00">d26</text>
<polygon fill="none" stroke="black" points="688,-196 688,-220.5 820.75,-220.5 820.75,-196 688,-196"/>
<text text-anchor="start" x="742.75" y="-203.2" font-family="arial" font-size="14.00">z28</text>
<polygon fill="none" stroke="black" points="688,-171.5 688,-196 820.75,-196 820.75,-171.5 688,-171.5"/>
<text text-anchor="start" x="742" y="-178.7" font-family="arial" font-size="14.00">b28</text>
<polygon fill="none" stroke="black" points="688,-147 688,-171.5 820.75,-171.5 820.75,-147 688,-147"/>
<text text-anchor="start" x="742" y="-154.2" font-family="arial" font-size="14.00">d28</text>
<polygon fill="none" stroke="black" points="688,-122.5 688,-147 820.75,-147 820.75,-122.5 688,-122.5"/>
<text text-anchor="start" x="742.75" y="-129.7" font-family="arial" font-size="14.00">z30</text>
<polygon fill="none" stroke="black" points="688,-98 688,-122.5 820.75,-122.5 820.75,-98 688,-98"/>
<text text-anchor="start" x="742" y="-105.2" font-family="arial" font-size="14.00">b30</text>
<polygon fill="none" stroke="black" points="688,-73.5 688,-98 820.75,-98 820.75,-73.5 688,-73.5"/>
<text text-anchor="start" x="742" y="-80.7" font-family="arial" font-size="14.00">d30</text>
<polygon fill="none" stroke="black" points="688,-49 688,-73.5 820.75,-73.5 820.75,-49 688,-49"/>
<text text-anchor="start" x="742.75" y="-56.2" font-family="arial" font-size="14.00">z32</text>
<polygon fill="none" stroke="black" points="688,-24.5 688,-49 820.75,-49 820.75,-24.5 688,-24.5"/>
<text text-anchor="start" x="742" y="-31.7" font-family="arial" font-size="14.00">b32</text>
<polygon fill="none" stroke="black" points="688,0 688,-24.5 820.75,-24.5 820.75,0 688,0"/>
<text text-anchor="start" x="742" y="-7.2" font-family="arial" font-size="14.00">d32</text>
</g>
<!-- W1&#45;&#45;X2 -->
<g id="edge27" class="edge">
<title>W1:e&#45;&#45;X2:w</title>
<path fill="none" stroke="#000000" stroke-width="2" d="M544,-702C709.68,-707.9 529.36,-1043.1 688,-1037.2"/>
<path fill="none" stroke="#895956" stroke-width="2" d="M544,-704C707.92,-706.95 527.6,-1042.15 688,-1039.2"/>
<path fill="none" stroke="#895956" stroke-width="2" d="M544,-706C706.16,-706 525.84,-1041.2 688,-1041.2"/>
<path fill="none" stroke="#895956" stroke-width="2" d="M544,-708C704.4,-705.06 524.08,-1040.26 688,-1043.2"/>
<path fill="none" stroke="#000000" stroke-width="2" d="M544,-710C702.64,-704.11 522.32,-1039.31 688,-1045.2"/>
</g>
<!-- W1&#45;&#45;X2 -->
<g id="edge28" class="edge">
<title>W1:e&#45;&#45;X2:w</title>
<path fill="none" stroke="#000000" stroke-width="2" d="M544,-728C749.7,-734.07 489.14,-1165.87 688,-1159.8"/>
<path fill="none" stroke="#ffffff" stroke-width="2" d="M544,-730C747.99,-733.04 487.43,-1164.84 688,-1161.8"/>
<path fill="none" stroke="#ffffff" stroke-width="2" d="M544,-732C746.28,-732 485.72,-1163.8 688,-1163.8"/>
<path fill="none" stroke="#ffffff" stroke-width="2" d="M544,-734C744.57,-730.97 484.01,-1162.77 688,-1165.8"/>
<path fill="none" stroke="#000000" stroke-width="2" d="M544,-736C742.86,-729.94 482.3,-1161.74 688,-1167.8"/>
</g>
<!-- W1&#45;&#45;X2 -->
<g id="edge29" class="edge">
<title>W1:e&#45;&#45;X2:w</title>
<path fill="none" stroke="#000000" stroke-width="2" d="M544,-650C645.74,-655.19 593.9,-821.94 688,-816.75"/>
<path fill="none" stroke="#ffff00" stroke-width="2" d="M544,-652C643.83,-654.6 591.99,-821.35 688,-818.75"/>
<path fill="none" stroke="#ffff00" stroke-width="2" d="M544,-654C641.92,-654 590.08,-820.75 688,-820.75"/>
<path fill="none" stroke="#ffff00" stroke-width="2" d="M544,-656C640.01,-653.41 588.17,-820.16 688,-822.75"/>
<path fill="none" stroke="#000000" stroke-width="2" d="M544,-658C638.1,-652.82 586.26,-819.57 688,-824.75"/>
</g>
<!-- W1&#45;&#45;X2 -->
<g id="edge30" class="edge">
<title>W1:e&#45;&#45;X2:w</title>
<path fill="none" stroke="#000000" stroke-width="2" d="M544,-676C680.99,-681.69 558.27,-944.94 688,-939.25"/>
<path fill="none" stroke="#00aa00" stroke-width="2" d="M544,-678C679.17,-680.85 556.45,-944.1 688,-941.25"/>
<path fill="none" stroke="#00aa00" stroke-width="2" d="M544,-680C677.36,-680 554.64,-943.25 688,-943.25"/>
<path fill="none" stroke="#00aa00" stroke-width="2" d="M544,-682C675.55,-679.16 552.83,-942.41 688,-945.25"/>
<path fill="none" stroke="#000000" stroke-width="2" d="M544,-684C673.73,-678.31 551.01,-941.56 688,-947.25"/>
</g>
<!-- W1&#45;&#45;X2 -->
<g id="edge31" class="edge">
<title>W1:e&#45;&#45;X2:w</title>
<path fill="none" stroke="#000000" stroke-width="2" d="M544,-598C607.57,-598.03 623.57,-596.28 688,-596.25"/>
<path fill="none" stroke="#ff66cc" stroke-width="2" d="M544,-600C607.78,-600.02 623.78,-598.27 688,-598.25"/>
<path fill="none" stroke="#ff66cc" stroke-width="2" d="M544,-602C608,-602 624,-600.25 688,-600.25"/>
<path fill="none" stroke="#ff66cc" stroke-width="2" d="M544,-604C608.22,-603.99 624.22,-602.24 688,-602.25"/>
<path fill="none" stroke="#000000" stroke-width="2" d="M544,-606C608.43,-605.98 624.43,-604.23 688,-604.25"/>
</g>
<!-- W1&#45;&#45;X2 -->
<g id="edge32" class="edge">
<title>W1:e&#45;&#45;X2:w</title>
<path fill="none" stroke="#000000" stroke-width="2" d="M544,-624C624.59,-628.39 615.37,-723.14 688,-718.75"/>
<path fill="none" stroke="#999999" stroke-width="2" d="M544,-626C622.6,-628.2 613.38,-722.95 688,-720.75"/>
<path fill="none" stroke="#999999" stroke-width="2" d="M544,-628C620.61,-628 611.39,-722.75 688,-722.75"/>
<path fill="none" stroke="#999999" stroke-width="2" d="M544,-630C618.62,-627.81 609.4,-722.56 688,-724.75"/>
<path fill="none" stroke="#000000" stroke-width="2" d="M544,-632C616.63,-627.62 607.41,-722.37 688,-726.75"/>
</g>
<!-- W1&#45;&#45;X2 -->
<g id="edge33" class="edge">
<title>W1:e&#45;&#45;X2:w</title>
<path fill="none" stroke="#000000" stroke-width="2" d="M544,-546C617.12,-550.42 606.92,-453.67 688,-449.25"/>
<path fill="none" stroke="#ff0000" stroke-width="2" d="M544,-548C619.11,-550.21 608.91,-453.46 688,-451.25"/>
<path fill="none" stroke="#ff0000" stroke-width="2" d="M544,-550C621.1,-550 610.9,-453.25 688,-453.25"/>
<path fill="none" stroke="#ff0000" stroke-width="2" d="M544,-552C623.09,-549.79 612.89,-453.04 688,-455.25"/>
<path fill="none" stroke="#000000" stroke-width="2" d="M544,-554C625.08,-549.58 614.88,-452.83 688,-457.25"/>
</g>
<!-- W1&#45;&#45;X2 -->
<g id="edge34" class="edge">
<title>W1:e&#45;&#45;X2:w</title>
<path fill="none" stroke="#000000" stroke-width="2" d="M544,-572C607.94,-572 623.94,-571.75 688,-571.75"/>
<path fill="none" stroke="#0066ff" stroke-width="2" d="M544,-574C607.97,-574 623.97,-573.75 688,-573.75"/>
<path fill="none" stroke="#0066ff" stroke-width="2" d="M544,-576C608,-576 624,-575.75 688,-575.75"/>
<path fill="none" stroke="#0066ff" stroke-width="2" d="M544,-578C608.03,-578 624.03,-577.75 688,-577.75"/>
<path fill="none" stroke="#000000" stroke-width="2" d="M544,-580C608.06,-580 624.06,-579.75 688,-579.75"/>
</g>
<!-- W1&#45;&#45;X2 -->
<g id="edge35" class="edge">
<title>W1:e&#45;&#45;X2:w</title>
<path fill="none" stroke="#000000" stroke-width="2" d="M544,-494C674.52,-499.7 550.24,-234.45 688,-228.75"/>
<path fill="none" stroke="#8000ff" stroke-width="2" d="M544,-496C676.33,-498.85 552.05,-233.6 688,-230.75"/>
<path fill="none" stroke="#8000ff" stroke-width="2" d="M544,-498C678.14,-498 553.86,-232.75 688,-232.75"/>
<path fill="none" stroke="#8000ff" stroke-width="2" d="M544,-500C679.95,-497.16 555.67,-231.91 688,-234.75"/>
<path fill="none" stroke="#000000" stroke-width="2" d="M544,-502C681.76,-496.31 557.48,-231.06 688,-236.75"/>
</g>
<!-- W1&#45;&#45;X2 -->
<g id="edge36" class="edge">
<title>W1:e&#45;&#45;X2:w</title>
<path fill="none" stroke="#000000" stroke-width="2" d="M544,-520C638.79,-525.21 585.59,-356.46 688,-351.25"/>
<path fill="none" stroke="#000000" stroke-width="2" d="M544,-522C640.69,-524.61 587.49,-355.86 688,-353.25"/>
<path fill="none" stroke="#000000" stroke-width="2" d="M544,-524C642.6,-524 589.4,-355.25 688,-355.25"/>
<path fill="none" stroke="#000000" stroke-width="2" d="M544,-526C644.51,-523.4 591.31,-354.65 688,-357.25"/>
<path fill="none" stroke="#000000" stroke-width="2" d="M544,-528C646.41,-522.8 593.21,-354.05 688,-359.25"/>
</g>
<!-- W1&#45;&#45;X2 -->
<g id="edge37" class="edge">
<title>W1:e&#45;&#45;X2:w</title>
<path fill="none" stroke="#000000" stroke-width="2" d="M544,-442C743.7,-448.07 481.46,-14.32 688,-8.25"/>
<path fill="none" stroke="#ff0000" stroke-width="2" d="M544,-444C745.41,-447.04 483.17,-13.29 688,-10.25"/>
<path fill="none" stroke="#0066ff" stroke-width="2" d="M544,-446C747.12,-446 484.88,-12.25 688,-12.25"/>
<path fill="none" stroke="#ff0000" stroke-width="2" d="M544,-448C748.83,-444.97 486.59,-11.22 688,-14.25"/>
<path fill="none" stroke="#000000" stroke-width="2" d="M544,-450C750.54,-443.93 488.3,-10.18 688,-16.25"/>
</g>
<!-- W1&#45;&#45;X2 -->
<g id="edge38" class="edge">
<title>W1:e&#45;&#45;X2:w</title>
<path fill="none" stroke="#000000" stroke-width="2" d="M544,-468C703.46,-473.9 521.5,-136.65 688,-130.75"/>
<path fill="none" stroke="#999999" stroke-width="2" d="M544,-470C705.22,-472.95 523.26,-135.7 688,-132.75"/>
<path fill="none" stroke="#ff66cc" stroke-width="2" d="M544,-472C706.98,-472 525.02,-134.75 688,-134.75"/>
<path fill="none" stroke="#999999" stroke-width="2" d="M544,-474C708.74,-471.05 526.78,-133.8 688,-136.75"/>
<path fill="none" stroke="#000000" stroke-width="2" d="M544,-476C710.5,-470.1 528.54,-132.85 688,-138.75"/>
</g>
</g>
</svg>
