<?xml version="1.0" encoding="UTF-8" standalone="no"?>
<!DOCTYPE svg PUBLIC "-//W3C//DTD SVG 1.1//EN"
 "http://www.w3.org/Graphics/SVG/1.1/DTD/svg11.dtd">
<!-- Generated by graphviz version 12.2.1 (20241206.2353)
 -->
<!-- Pages: 1 -->
<svg width="804pt" height="1196pt"
 viewBox="0.00 0.00 803.50 1195.50" xmlns="http://www.w3.org/2000/svg" xmlns:xlink="http://www.w3.org/1999/xlink">
<g id="graph0" class="graph" transform="scale(1 1) rotate(0) translate(4 1191.5)">
<polygon fill="#ffffff" stroke="none" points="-4,4 -4,-1191.5 799.5,-1191.5 799.5,4 -4,4"/>
<!-- X1 -->
<g id="node1" class="node">
<title>X1</title>
<polygon fill="#ffffff" stroke="black" points="129.75,-757.88 0,-757.88 0,-401.62 129.75,-401.62 129.75,-757.88"/>
<polygon fill="#ffffff" stroke="none" points="0,-401.62 0,-757.88 129.75,-757.88 129.75,-401.62 0,-401.62"/>
<polygon fill="none" stroke="black" points="0,-734.12 0,-757.88 129.75,-757.88 129.75,-734.12 0,-734.12"/>
<text text-anchor="start" x="56.62" y="-740.58" font-family="arial" font-size="14.00">X1</text>
<polygon fill="none" stroke="black" points="0,-710.38 0,-734.12 46.25,-734.12 46.25,-710.38 0,-710.38"/>
<text text-anchor="start" x="4" y="-716.83" font-family="arial" font-size="14.00">D&#45;Sub</text>
<polygon fill="none" stroke="black" points="46.25,-710.38 46.25,-734.12 84.25,-734.12 84.25,-710.38 46.25,-710.38"/>
<text text-anchor="start" x="50.25" y="-716.83" font-family="arial" font-size="14.00">male</text>
<polygon fill="none" stroke="black" points="84.25,-710.38 84.25,-734.12 129.75,-734.12 129.75,-710.38 84.25,-710.38"/>
<text text-anchor="start" x="88.25" y="-716.83" font-family="arial" font-size="14.00">25&#45;pin</text>
<polygon fill="none" stroke="black" points="0,-686.62 0,-710.38 96.38,-710.38 96.38,-686.62 0,-686.62"/>
<text text-anchor="start" x="9.56" y="-693.08" font-family="arial" font-size="14.00">SENSE_P_1</text>
<polygon fill="none" stroke="black" points="96.38,-686.62 96.38,-710.38 129.75,-710.38 129.75,-686.62 96.38,-686.62"/>
<text text-anchor="start" x="109.31" y="-693.08" font-family="arial" font-size="14.00">1</text>
<polygon fill="none" stroke="black" points="0,-662.88 0,-686.62 96.38,-686.62 96.38,-662.88 0,-662.88"/>
<text text-anchor="start" x="9.19" y="-669.33" font-family="arial" font-size="14.00">SENSE_N_1</text>
<polygon fill="none" stroke="black" points="96.38,-662.88 96.38,-686.62 129.75,-686.62 129.75,-662.88 96.38,-662.88"/>
<text text-anchor="start" x="105.56" y="-669.33" font-family="arial" font-size="14.00">14</text>
<polygon fill="none" stroke="black" points="0,-639.12 0,-662.88 96.38,-662.88 96.38,-639.12 0,-639.12"/>
<text text-anchor="start" x="9.56" y="-645.58" font-family="arial" font-size="14.00">SENSE_P_2</text>
<polygon fill="none" stroke="black" points="96.38,-639.12 96.38,-662.88 129.75,-662.88 129.75,-639.12 96.38,-639.12"/>
<text text-anchor="start" x="109.31" y="-645.58" font-family="arial" font-size="14.00">3</text>
<polygon fill="none" stroke="black" points="0,-615.38 0,-639.12 96.38,-639.12 96.38,-615.38 0,-615.38"/>
<text text-anchor="start" x="9.19" y="-621.83" font-family="arial" font-size="14.00">SENSE_N_2</text>
<polygon fill="none" stroke="black" points="96.38,-615.38 96.38,-639.12 129.75,-639.12 129.75,-615.38 96.38,-615.38"/>
<text text-anchor="start" x="105.56" y="-621.83" font-family="arial" font-size="14.00">16</text>
<polygon fill="none" stroke="black" points="0,-591.62 0,-615.38 96.38,-615.38 96.38,-591.62 0,-591.62"/>
<text text-anchor="start" x="9.56" y="-598.08" font-family="arial" font-size="14.00">SENSE_P_3</text>
<polygon fill="none" stroke="black" points="96.38,-591.62 96.38,-615.38 129.75,-615.38 129.75,-591.62 96.38,-591.62"/>
<text text-anchor="start" x="109.31" y="-598.08" font-family="arial" font-size="14.00">5</text>
<polygon fill="none" stroke="black" points="0,-567.88 0,-591.62 96.38,-591.62 96.38,-567.88 0,-567.88"/>
<text text-anchor="start" x="9.19" y="-574.33" font-family="arial" font-size="14.00">SENSE_N_3</text>
<polygon fill="none" stroke="black" points="96.38,-567.88 96.38,-591.62 129.75,-591.62 129.75,-567.88 96.38,-567.88"/>
<text text-anchor="start" x="105.56" y="-574.33" font-family="arial" font-size="14.00">18</text>
<polygon fill="none" stroke="black" points="0,-544.12 0,-567.88 96.38,-567.88 96.38,-544.12 0,-544.12"/>
<text text-anchor="start" x="9.56" y="-550.58" font-family="arial" font-size="14.00">SENSE_P_4</text>
<polygon fill="none" stroke="black" points="96.38,-544.12 96.38,-567.88 129.75,-567.88 129.75,-544.12 96.38,-544.12"/>
<text text-anchor="start" x="109.31" y="-550.58" font-family="arial" font-size="14.00">7</text>
<polygon fill="none" stroke="black" points="0,-520.38 0,-544.12 96.38,-544.12 96.38,-520.38 0,-520.38"/>
<text text-anchor="start" x="9.19" y="-526.83" font-family="arial" font-size="14.00">SENSE_N_4</text>
<polygon fill="none" stroke="black" points="96.38,-520.38 96.38,-544.12 129.75,-544.12 129.75,-520.38 96.38,-520.38"/>
<text text-anchor="start" x="105.56" y="-526.83" font-family="arial" font-size="14.00">20</text>
<polygon fill="none" stroke="black" points="0,-496.62 0,-520.38 96.38,-520.38 96.38,-496.62 0,-496.62"/>
<text text-anchor="start" x="9.56" y="-503.07" font-family="arial" font-size="14.00">SENSE_P_5</text>
<polygon fill="none" stroke="black" points="96.38,-496.62 96.38,-520.38 129.75,-520.38 129.75,-496.62 96.38,-496.62"/>
<text text-anchor="start" x="109.31" y="-503.07" font-family="arial" font-size="14.00">9</text>
<polygon fill="none" stroke="black" points="0,-472.88 0,-496.62 96.38,-496.62 96.38,-472.88 0,-472.88"/>
<text text-anchor="start" x="9.19" y="-479.32" font-family="arial" font-size="14.00">SENSE_N_5</text>
<polygon fill="none" stroke="black" points="96.38,-472.88 96.38,-496.62 129.75,-496.62 129.75,-472.88 96.38,-472.88"/>
<text text-anchor="start" x="105.56" y="-479.32" font-family="arial" font-size="14.00">22</text>
<polygon fill="none" stroke="black" points="0,-449.12 0,-472.88 96.38,-472.88 96.38,-449.12 0,-449.12"/>
<text text-anchor="start" x="9.56" y="-455.57" font-family="arial" font-size="14.00">SENSE_P_6</text>
<polygon fill="none" stroke="black" points="96.38,-449.12 96.38,-472.88 129.75,-472.88 129.75,-449.12 96.38,-449.12"/>
<text text-anchor="start" x="105.94" y="-455.57" font-family="arial" font-size="14.00">11</text>
<polygon fill="none" stroke="black" points="0,-425.38 0,-449.12 96.38,-449.12 96.38,-425.38 0,-425.38"/>
<text text-anchor="start" x="9.19" y="-431.82" font-family="arial" font-size="14.00">SENSE_N_6</text>
<polygon fill="none" stroke="black" points="96.38,-425.38 96.38,-449.12 129.75,-449.12 129.75,-425.38 96.38,-425.38"/>
<text text-anchor="start" x="105.56" y="-431.82" font-family="arial" font-size="14.00">24</text>
<polygon fill="none" stroke="black" points="0,-401.62 0,-425.38 96.38,-425.38 96.38,-401.62 0,-401.62"/>
<text text-anchor="start" x="32.81" y="-408.07" font-family="arial" font-size="14.00">GND</text>
<polygon fill="none" stroke="black" points="96.38,-401.62 96.38,-425.38 129.75,-425.38 129.75,-401.62 96.38,-401.62"/>
<text text-anchor="start" x="105.56" y="-408.07" font-family="arial" font-size="14.00">13</text>
</g>
<!-- W1 -->
<g id="node3" class="node">
<title>W1</title>
<polygon fill="#ffffff" stroke="black" points="525.5,-826.5 273.75,-826.5 273.75,-341 525.5,-341 525.5,-826.5"/>
<polygon fill="#ffffff" stroke="none" points="273.75,-341 273.75,-826.5 525.5,-826.5 525.5,-341 273.75,-341"/>
<polygon fill="none" stroke="black" points="273.75,-802.75 273.75,-826.5 525.5,-826.5 525.5,-802.75 273.75,-802.75"/>
<text text-anchor="start" x="389.12" y="-809.2" font-family="arial" font-size="14.00">W1</text>
<polygon fill="none" stroke="black" points="273.75,-779 273.75,-802.75 324.5,-802.75 324.5,-779 273.75,-779"/>
<text text-anchor="start" x="288.25" y="-785.45" font-family="arial" font-size="14.00">12x</text>
<polygon fill="none" stroke="black" points="324.5,-779 324.5,-802.75 412,-802.75 412,-779 324.5,-779"/>
<text text-anchor="start" x="339" y="-785.45" font-family="arial" font-size="14.00">0.25 mm²</text>
<polygon fill="none" stroke="black" points="412,-779 412,-802.75 462,-802.75 462,-779 412,-779"/>
<text text-anchor="start" x="426.5" y="-785.45" font-family="arial" font-size="14.00">+ S</text>
<polygon fill="none" stroke="black" points="462,-779 462,-802.75 525.5,-802.75 525.5,-779 462,-779"/>
<text text-anchor="start" x="476.5" y="-785.45" font-family="arial" font-size="14.00">0.2 m</text>
<text text-anchor="start" x="334.25" y="-763.7" font-family="arial" font-size="14.00"> </text>
<text text-anchor="start" x="275.75" y="-743.95" font-family="arial" font-size="14.00"> X1:14:SENSE_N_1</text>
<text text-anchor="start" x="400.5" y="-743.95" font-family="arial" font-size="14.00"> </text>
<text text-anchor="start" x="419.5" y="-743.95" font-family="arial" font-size="14.00">1:WH</text>
<text text-anchor="start" x="469.25" y="-743.95" font-family="arial" font-size="14.00"> </text>
<text text-anchor="start" x="485.25" y="-743.95" font-family="arial" font-size="14.00">X2:z2 </text>
<polygon fill="#000000" stroke="none" points="273.75,-737.5 273.75,-739.5 525.5,-739.5 525.5,-737.5 273.75,-737.5"/>
<polygon fill="#ffffff" stroke="none" points="273.75,-735.5 273.75,-737.5 525.5,-737.5 525.5,-735.5 273.75,-735.5"/>
<polygon fill="#ffffff" stroke="none" points="273.75,-733.5 273.75,-735.5 525.5,-735.5 525.5,-733.5 273.75,-733.5"/>
<polygon fill="#ffffff" stroke="none" points="273.75,-731.5 273.75,-733.5 525.5,-733.5 525.5,-731.5 273.75,-731.5"/>
<polygon fill="#000000" stroke="none" points="273.75,-729.5 273.75,-731.5 525.5,-731.5 525.5,-729.5 273.75,-729.5"/>
<text text-anchor="start" x="275.75" y="-714.2" font-family="arial" font-size="14.00"> X1:1:SENSE_P_1</text>
<text text-anchor="start" x="400.5" y="-714.2" font-family="arial" font-size="14.00"> </text>
<text text-anchor="start" x="421.75" y="-714.2" font-family="arial" font-size="14.00">2:BN</text>
<text text-anchor="start" x="469.25" y="-714.2" font-family="arial" font-size="14.00"> </text>
<text text-anchor="start" x="484.5" y="-714.2" font-family="arial" font-size="14.00">X2:d4 </text>
<polygon fill="#000000" stroke="none" points="273.75,-707.75 273.75,-709.75 525.5,-709.75 525.5,-707.75 273.75,-707.75"/>
<polygon fill="#895956" stroke="none" points="273.75,-705.75 273.75,-707.75 525.5,-707.75 525.5,-705.75 273.75,-705.75"/>
<polygon fill="#895956" stroke="none" points="273.75,-703.75 273.75,-705.75 525.5,-705.75 525.5,-703.75 273.75,-703.75"/>
<polygon fill="#895956" stroke="none" points="273.75,-701.75 273.75,-703.75 525.5,-703.75 525.5,-701.75 273.75,-701.75"/>
<polygon fill="#000000" stroke="none" points="273.75,-699.75 273.75,-701.75 525.5,-701.75 525.5,-699.75 273.75,-699.75"/>
<text text-anchor="start" x="275.75" y="-684.45" font-family="arial" font-size="14.00"> X1:16:SENSE_N_2</text>
<text text-anchor="start" x="400.5" y="-684.45" font-family="arial" font-size="14.00"> </text>
<text text-anchor="start" x="420.62" y="-684.45" font-family="arial" font-size="14.00">3:GN</text>
<text text-anchor="start" x="469.25" y="-684.45" font-family="arial" font-size="14.00"> </text>
<text text-anchor="start" x="485.25" y="-684.45" font-family="arial" font-size="14.00">X2:z8 </text>
<polygon fill="#000000" stroke="none" points="273.75,-678 273.75,-680 525.5,-680 525.5,-678 273.75,-678"/>
<polygon fill="#00aa00" stroke="none" points="273.75,-676 273.75,-678 525.5,-678 525.5,-676 273.75,-676"/>
<polygon fill="#00aa00" stroke="none" points="273.75,-674 273.75,-676 525.5,-676 525.5,-674 273.75,-674"/>
<polygon fill="#00aa00" stroke="none" points="273.75,-672 273.75,-674 525.5,-674 525.5,-672 273.75,-672"/>
<polygon fill="#000000" stroke="none" points="273.75,-670 273.75,-672 525.5,-672 525.5,-670 273.75,-670"/>
<text text-anchor="start" x="275.75" y="-654.7" font-family="arial" font-size="14.00"> X1:3:SENSE_P_2</text>
<text text-anchor="start" x="400.5" y="-654.7" font-family="arial" font-size="14.00"> </text>
<text text-anchor="start" x="422.12" y="-654.7" font-family="arial" font-size="14.00">4:YE</text>
<text text-anchor="start" x="469.25" y="-654.7" font-family="arial" font-size="14.00"> </text>
<text text-anchor="start" x="477" y="-654.7" font-family="arial" font-size="14.00">X2:d10 </text>
<polygon fill="#000000" stroke="none" points="273.75,-648.25 273.75,-650.25 525.5,-650.25 525.5,-648.25 273.75,-648.25"/>
<polygon fill="#ffff00" stroke="none" points="273.75,-646.25 273.75,-648.25 525.5,-648.25 525.5,-646.25 273.75,-646.25"/>
<polygon fill="#ffff00" stroke="none" points="273.75,-644.25 273.75,-646.25 525.5,-646.25 525.5,-644.25 273.75,-644.25"/>
<polygon fill="#ffff00" stroke="none" points="273.75,-642.25 273.75,-644.25 525.5,-644.25 525.5,-642.25 273.75,-642.25"/>
<polygon fill="#000000" stroke="none" points="273.75,-640.25 273.75,-642.25 525.5,-642.25 525.5,-640.25 273.75,-640.25"/>
<text text-anchor="start" x="275.75" y="-624.95" font-family="arial" font-size="14.00"> X1:18:SENSE_N_3</text>
<text text-anchor="start" x="400.5" y="-624.95" font-family="arial" font-size="14.00"> </text>
<text text-anchor="start" x="421" y="-624.95" font-family="arial" font-size="14.00">5:GY</text>
<text text-anchor="start" x="469.25" y="-624.95" font-family="arial" font-size="14.00"> </text>
<text text-anchor="start" x="477.75" y="-624.95" font-family="arial" font-size="14.00">X2:z14 </text>
<polygon fill="#000000" stroke="none" points="273.75,-618.5 273.75,-620.5 525.5,-620.5 525.5,-618.5 273.75,-618.5"/>
<polygon fill="#999999" stroke="none" points="273.75,-616.5 273.75,-618.5 525.5,-618.5 525.5,-616.5 273.75,-616.5"/>
<polygon fill="#999999" stroke="none" points="273.75,-614.5 273.75,-616.5 525.5,-616.5 525.5,-614.5 273.75,-614.5"/>
<polygon fill="#999999" stroke="none" points="273.75,-612.5 273.75,-614.5 525.5,-614.5 525.5,-612.5 273.75,-612.5"/>
<polygon fill="#000000" stroke="none" points="273.75,-610.5 273.75,-612.5 525.5,-612.5 525.5,-610.5 273.75,-610.5"/>
<text text-anchor="start" x="275.75" y="-595.2" font-family="arial" font-size="14.00"> X1:5:SENSE_P_3</text>
<text text-anchor="start" x="400.5" y="-595.2" font-family="arial" font-size="14.00"> </text>
<text text-anchor="start" x="422.12" y="-595.2" font-family="arial" font-size="14.00">6:PK</text>
<text text-anchor="start" x="469.25" y="-595.2" font-family="arial" font-size="14.00"> </text>
<text text-anchor="start" x="477" y="-595.2" font-family="arial" font-size="14.00">X2:d16 </text>
<polygon fill="#000000" stroke="none" points="273.75,-588.75 273.75,-590.75 525.5,-590.75 525.5,-588.75 273.75,-588.75"/>
<polygon fill="#ff66cc" stroke="none" points="273.75,-586.75 273.75,-588.75 525.5,-588.75 525.5,-586.75 273.75,-586.75"/>
<polygon fill="#ff66cc" stroke="none" points="273.75,-584.75 273.75,-586.75 525.5,-586.75 525.5,-584.75 273.75,-584.75"/>
<polygon fill="#ff66cc" stroke="none" points="273.75,-582.75 273.75,-584.75 525.5,-584.75 525.5,-582.75 273.75,-582.75"/>
<polygon fill="#000000" stroke="none" points="273.75,-580.75 273.75,-582.75 525.5,-582.75 525.5,-580.75 273.75,-580.75"/>
<text text-anchor="start" x="275.75" y="-565.45" font-family="arial" font-size="14.00"> X1:20:SENSE_N_4</text>
<text text-anchor="start" x="400.5" y="-565.45" font-family="arial" font-size="14.00"> </text>
<text text-anchor="start" x="421.75" y="-565.45" font-family="arial" font-size="14.00">7:BU</text>
<text text-anchor="start" x="469.25" y="-565.45" font-family="arial" font-size="14.00"> </text>
<text text-anchor="start" x="477.75" y="-565.45" font-family="arial" font-size="14.00">X2:z18 </text>
<polygon fill="#000000" stroke="none" points="273.75,-559 273.75,-561 525.5,-561 525.5,-559 273.75,-559"/>
<polygon fill="#0066ff" stroke="none" points="273.75,-557 273.75,-559 525.5,-559 525.5,-557 273.75,-557"/>
<polygon fill="#0066ff" stroke="none" points="273.75,-555 273.75,-557 525.5,-557 525.5,-555 273.75,-555"/>
<polygon fill="#0066ff" stroke="none" points="273.75,-553 273.75,-555 525.5,-555 525.5,-553 273.75,-553"/>
<polygon fill="#000000" stroke="none" points="273.75,-551 273.75,-553 525.5,-553 525.5,-551 273.75,-551"/>
<text text-anchor="start" x="275.75" y="-535.7" font-family="arial" font-size="14.00"> X1:7:SENSE_P_4</text>
<text text-anchor="start" x="400.5" y="-535.7" font-family="arial" font-size="14.00"> </text>
<text text-anchor="start" x="421.38" y="-535.7" font-family="arial" font-size="14.00">8:RD</text>
<text text-anchor="start" x="469.25" y="-535.7" font-family="arial" font-size="14.00"> </text>
<text text-anchor="start" x="477" y="-535.7" font-family="arial" font-size="14.00">X2:d20 </text>
<polygon fill="#000000" stroke="none" points="273.75,-529.25 273.75,-531.25 525.5,-531.25 525.5,-529.25 273.75,-529.25"/>
<polygon fill="#ff0000" stroke="none" points="273.75,-527.25 273.75,-529.25 525.5,-529.25 525.5,-527.25 273.75,-527.25"/>
<polygon fill="#ff0000" stroke="none" points="273.75,-525.25 273.75,-527.25 525.5,-527.25 525.5,-525.25 273.75,-525.25"/>
<polygon fill="#ff0000" stroke="none" points="273.75,-523.25 273.75,-525.25 525.5,-525.25 525.5,-523.25 273.75,-523.25"/>
<polygon fill="#000000" stroke="none" points="273.75,-521.25 273.75,-523.25 525.5,-523.25 525.5,-521.25 273.75,-521.25"/>
<text text-anchor="start" x="275.75" y="-505.95" font-family="arial" font-size="14.00"> X1:22:SENSE_N_5</text>
<text text-anchor="start" x="400.5" y="-505.95" font-family="arial" font-size="14.00"> </text>
<text text-anchor="start" x="422.12" y="-505.95" font-family="arial" font-size="14.00">9:BK</text>
<text text-anchor="start" x="469.25" y="-505.95" font-family="arial" font-size="14.00"> </text>
<text text-anchor="start" x="477.75" y="-505.95" font-family="arial" font-size="14.00">X2:z24 </text>
<polygon fill="#000000" stroke="none" points="273.75,-499.5 273.75,-501.5 525.5,-501.5 525.5,-499.5 273.75,-499.5"/>
<polygon fill="#000000" stroke="none" points="273.75,-497.5 273.75,-499.5 525.5,-499.5 525.5,-497.5 273.75,-497.5"/>
<polygon fill="#000000" stroke="none" points="273.75,-495.5 273.75,-497.5 525.5,-497.5 525.5,-495.5 273.75,-495.5"/>
<polygon fill="#000000" stroke="none" points="273.75,-493.5 273.75,-495.5 525.5,-495.5 525.5,-493.5 273.75,-493.5"/>
<polygon fill="#000000" stroke="none" points="273.75,-491.5 273.75,-493.5 525.5,-493.5 525.5,-491.5 273.75,-491.5"/>
<text text-anchor="start" x="275.75" y="-476.2" font-family="arial" font-size="14.00"> X1:9:SENSE_P_5</text>
<text text-anchor="start" x="400.5" y="-476.2" font-family="arial" font-size="14.00"> </text>
<text text-anchor="start" x="418.75" y="-476.2" font-family="arial" font-size="14.00">10:VT</text>
<text text-anchor="start" x="469.25" y="-476.2" font-family="arial" font-size="14.00"> </text>
<text text-anchor="start" x="477" y="-476.2" font-family="arial" font-size="14.00">X2:d26 </text>
<polygon fill="#000000" stroke="none" points="273.75,-469.75 273.75,-471.75 525.5,-471.75 525.5,-469.75 273.75,-469.75"/>
<polygon fill="#8000ff" stroke="none" points="273.75,-467.75 273.75,-469.75 525.5,-469.75 525.5,-467.75 273.75,-467.75"/>
<polygon fill="#8000ff" stroke="none" points="273.75,-465.75 273.75,-467.75 525.5,-467.75 525.5,-465.75 273.75,-465.75"/>
<polygon fill="#8000ff" stroke="none" points="273.75,-463.75 273.75,-465.75 525.5,-465.75 525.5,-463.75 273.75,-463.75"/>
<polygon fill="#000000" stroke="none" points="273.75,-461.75 273.75,-463.75 525.5,-463.75 525.5,-461.75 273.75,-461.75"/>
<text text-anchor="start" x="275.75" y="-446.45" font-family="arial" font-size="14.00"> X1:24:SENSE_N_6</text>
<text text-anchor="start" x="400.5" y="-446.45" font-family="arial" font-size="14.00"> </text>
<text text-anchor="start" x="408.62" y="-446.45" font-family="arial" font-size="14.00">11:GYPK</text>
<text text-anchor="start" x="469.25" y="-446.45" font-family="arial" font-size="14.00"> </text>
<text text-anchor="start" x="477.75" y="-446.45" font-family="arial" font-size="14.00">X2:z30 </text>
<polygon fill="#000000" stroke="none" points="273.75,-440 273.75,-442 525.5,-442 525.5,-440 273.75,-440"/>
<polygon fill="#999999" stroke="none" points="273.75,-438 273.75,-440 525.5,-440 525.5,-438 273.75,-438"/>
<polygon fill="#ff66cc" stroke="none" points="273.75,-436 273.75,-438 525.5,-438 525.5,-436 273.75,-436"/>
<polygon fill="#999999" stroke="none" points="273.75,-434 273.75,-436 525.5,-436 525.5,-434 273.75,-434"/>
<polygon fill="#000000" stroke="none" points="273.75,-432 273.75,-434 525.5,-434 525.5,-432 273.75,-432"/>
<text text-anchor="start" x="275.75" y="-416.7" font-family="arial" font-size="14.00"> X1:11:SENSE_P_6</text>
<text text-anchor="start" x="400.5" y="-416.7" font-family="arial" font-size="14.00"> </text>
<text text-anchor="start" x="408.25" y="-416.7" font-family="arial" font-size="14.00">12:RDBU</text>
<text text-anchor="start" x="469.25" y="-416.7" font-family="arial" font-size="14.00"> </text>
<text text-anchor="start" x="477" y="-416.7" font-family="arial" font-size="14.00">X2:d32 </text>
<polygon fill="#000000" stroke="none" points="273.75,-410.25 273.75,-412.25 525.5,-412.25 525.5,-410.25 273.75,-410.25"/>
<polygon fill="#ff0000" stroke="none" points="273.75,-408.25 273.75,-410.25 525.5,-410.25 525.5,-408.25 273.75,-408.25"/>
<polygon fill="#0066ff" stroke="none" points="273.75,-406.25 273.75,-408.25 525.5,-408.25 525.5,-406.25 273.75,-406.25"/>
<polygon fill="#ff0000" stroke="none" points="273.75,-404.25 273.75,-406.25 525.5,-406.25 525.5,-404.25 273.75,-404.25"/>
<polygon fill="#000000" stroke="none" points="273.75,-402.25 273.75,-404.25 525.5,-404.25 525.5,-402.25 273.75,-402.25"/>
<text text-anchor="start" x="334.25" y="-386.95" font-family="arial" font-size="14.00"> </text>
<text text-anchor="start" x="275.75" y="-367.2" font-family="arial" font-size="14.00"> X1:13:GND</text>
<text text-anchor="start" x="400.5" y="-367.2" font-family="arial" font-size="14.00"> </text>
<text text-anchor="start" x="418" y="-367.2" font-family="arial" font-size="14.00">Shield</text>
<text text-anchor="start" x="469.25" y="-367.2" font-family="arial" font-size="14.00"> </text>
<text text-anchor="start" x="519.75" y="-367.2" font-family="arial" font-size="14.00"> </text>
<polygon fill="#000000" stroke="none" points="273.75,-360.75 273.75,-362.75 525.5,-362.75 525.5,-360.75 273.75,-360.75"/>
<text text-anchor="start" x="334.25" y="-345.45" font-family="arial" font-size="14.00"> </text>
</g>
<!-- X1&#45;&#45;W1 -->
<g id="edge1" class="edge">
<title>X1:e&#45;&#45;W1:w</title>
<path fill="none" stroke="#000000" stroke-width="2" d="M129.75,-694.5C195.28,-694.78 211.15,-701.03 273.75,-700.75"/>
<path fill="none" stroke="#895956" stroke-width="2" d="M129.75,-696.5C194.54,-696.64 210.42,-702.89 273.75,-702.75"/>
<path fill="none" stroke="#895956" stroke-width="2" d="M129.75,-698.5C193.81,-698.5 209.69,-704.75 273.75,-704.75"/>
<path fill="none" stroke="#895956" stroke-width="2" d="M129.75,-700.5C193.08,-700.36 208.96,-706.61 273.75,-706.75"/>
<path fill="none" stroke="#000000" stroke-width="2" d="M129.75,-702.5C192.35,-702.22 208.22,-708.47 273.75,-708.75"/>
</g>
<!-- X1&#45;&#45;W1 -->
<g id="edge3" class="edge">
<title>X1:e&#45;&#45;W1:w</title>
<path fill="none" stroke="#000000" stroke-width="2" d="M129.75,-670.75C203.02,-674.39 208.44,-734.14 273.75,-730.5"/>
<path fill="none" stroke="#ffffff" stroke-width="2" d="M129.75,-672.75C201.03,-674.57 206.45,-734.32 273.75,-732.5"/>
<path fill="none" stroke="#ffffff" stroke-width="2" d="M129.75,-674.75C199.04,-674.75 204.46,-734.5 273.75,-734.5"/>
<path fill="none" stroke="#ffffff" stroke-width="2" d="M129.75,-676.75C197.05,-674.93 202.47,-734.68 273.75,-736.5"/>
<path fill="none" stroke="#000000" stroke-width="2" d="M129.75,-678.75C195.06,-675.11 200.48,-734.86 273.75,-738.5"/>
</g>
<!-- X1&#45;&#45;W1 -->
<g id="edge5" class="edge">
<title>X1:e&#45;&#45;W1:w</title>
<path fill="none" stroke="#000000" stroke-width="2" d="M129.75,-647C192.44,-647.24 208.34,-641.49 273.75,-641.25"/>
<path fill="none" stroke="#ffff00" stroke-width="2" d="M129.75,-649C193.12,-649.12 209.02,-643.37 273.75,-643.25"/>
<path fill="none" stroke="#ffff00" stroke-width="2" d="M129.75,-651C193.8,-651 209.7,-645.25 273.75,-645.25"/>
<path fill="none" stroke="#ffff00" stroke-width="2" d="M129.75,-653C194.48,-652.88 210.38,-647.13 273.75,-647.25"/>
<path fill="none" stroke="#000000" stroke-width="2" d="M129.75,-655C195.16,-654.76 211.06,-649.01 273.75,-649.25"/>
</g>
<!-- X1&#45;&#45;W1 -->
<g id="edge7" class="edge">
<title>X1:e&#45;&#45;W1:w</title>
<path fill="none" stroke="#000000" stroke-width="2" d="M129.75,-623.25C201.11,-626.5 210.25,-674.25 273.75,-671"/>
<path fill="none" stroke="#00aa00" stroke-width="2" d="M129.75,-625.25C199.14,-626.87 208.29,-674.62 273.75,-673"/>
<path fill="none" stroke="#00aa00" stroke-width="2" d="M129.75,-627.25C197.18,-627.25 206.32,-675 273.75,-675"/>
<path fill="none" stroke="#00aa00" stroke-width="2" d="M129.75,-629.25C195.21,-627.63 204.36,-675.38 273.75,-677"/>
<path fill="none" stroke="#000000" stroke-width="2" d="M129.75,-631.25C193.25,-628 202.39,-675.75 273.75,-679"/>
</g>
<!-- X1&#45;&#45;W1 -->
<g id="edge9" class="edge">
<title>X1:e&#45;&#45;W1:w</title>
<path fill="none" stroke="#000000" stroke-width="2" d="M129.75,-599.5C191.18,-600.92 206.21,-583.17 273.75,-581.75"/>
<path fill="none" stroke="#ff66cc" stroke-width="2" d="M129.75,-601.5C192.71,-602.21 207.74,-584.46 273.75,-583.75"/>
<path fill="none" stroke="#ff66cc" stroke-width="2" d="M129.75,-603.5C194.23,-603.5 209.27,-585.75 273.75,-585.75"/>
<path fill="none" stroke="#ff66cc" stroke-width="2" d="M129.75,-605.5C195.76,-604.79 210.79,-587.04 273.75,-587.75"/>
<path fill="none" stroke="#000000" stroke-width="2" d="M129.75,-607.5C197.29,-606.08 212.32,-588.33 273.75,-589.75"/>
</g>
<!-- X1&#45;&#45;W1 -->
<g id="edge11" class="edge">
<title>X1:e&#45;&#45;W1:w</title>
<path fill="none" stroke="#000000" stroke-width="2" d="M129.75,-575.75C199.48,-578.47 211.6,-614.22 273.75,-611.5"/>
<path fill="none" stroke="#999999" stroke-width="2" d="M129.75,-577.75C197.59,-579.11 209.7,-614.86 273.75,-613.5"/>
<path fill="none" stroke="#999999" stroke-width="2" d="M129.75,-579.75C195.69,-579.75 207.81,-615.5 273.75,-615.5"/>
<path fill="none" stroke="#999999" stroke-width="2" d="M129.75,-581.75C193.8,-580.39 205.91,-616.14 273.75,-617.5"/>
<path fill="none" stroke="#000000" stroke-width="2" d="M129.75,-583.75C191.9,-581.03 204.02,-616.78 273.75,-619.5"/>
</g>
<!-- X1&#45;&#45;W1 -->
<g id="edge13" class="edge">
<title>X1:e&#45;&#45;W1:w</title>
<path fill="none" stroke="#000000" stroke-width="2" d="M129.75,-552C191.45,-554.37 204.75,-524.62 273.75,-522.25"/>
<path fill="none" stroke="#ff0000" stroke-width="2" d="M129.75,-554C193.28,-555.18 206.57,-525.43 273.75,-524.25"/>
<path fill="none" stroke="#ff0000" stroke-width="2" d="M129.75,-556C195.1,-556 208.4,-526.25 273.75,-526.25"/>
<path fill="none" stroke="#ff0000" stroke-width="2" d="M129.75,-558C196.93,-556.82 210.22,-527.07 273.75,-528.25"/>
<path fill="none" stroke="#000000" stroke-width="2" d="M129.75,-560C198.75,-557.63 212.05,-527.88 273.75,-530.25"/>
</g>
<!-- X1&#45;&#45;W1 -->
<g id="edge15" class="edge">
<title>X1:e&#45;&#45;W1:w</title>
<path fill="none" stroke="#000000" stroke-width="2" d="M129.75,-528.25C198.04,-530.19 212.31,-553.94 273.75,-552"/>
<path fill="none" stroke="#0066ff" stroke-width="2" d="M129.75,-530.25C196.33,-531.22 210.6,-554.97 273.75,-554"/>
<path fill="none" stroke="#0066ff" stroke-width="2" d="M129.75,-532.25C194.61,-532.25 208.89,-556 273.75,-556"/>
<path fill="none" stroke="#0066ff" stroke-width="2" d="M129.75,-534.25C192.9,-533.28 207.17,-557.03 273.75,-558"/>
<path fill="none" stroke="#000000" stroke-width="2" d="M129.75,-536.25C191.19,-534.31 205.46,-558.06 273.75,-560"/>
</g>
<!-- X1&#45;&#45;W1 -->
<g id="edge17" class="edge">
<title>X1:e&#45;&#45;W1:w</title>
<path fill="none" stroke="#000000" stroke-width="2" d="M129.75,-504.5C192.51,-507.5 203.24,-465.75 273.75,-462.75"/>
<path fill="none" stroke="#8000ff" stroke-width="2" d="M129.75,-506.5C194.45,-508 205.18,-466.25 273.75,-464.75"/>
<path fill="none" stroke="#8000ff" stroke-width="2" d="M129.75,-508.5C196.39,-508.5 207.11,-466.75 273.75,-466.75"/>
<path fill="none" stroke="#8000ff" stroke-width="2" d="M129.75,-510.5C198.32,-509 209.05,-467.25 273.75,-468.75"/>
<path fill="none" stroke="#000000" stroke-width="2" d="M129.75,-512.5C200.26,-509.5 210.99,-467.75 273.75,-470.75"/>
</g>
<!-- X1&#45;&#45;W1 -->
<g id="edge19" class="edge">
<title>X1:e&#45;&#45;W1:w</title>
<path fill="none" stroke="#000000" stroke-width="2" d="M129.75,-480.75C196.37,-481.56 211.95,-493.31 273.75,-492.5"/>
<path fill="none" stroke="#000000" stroke-width="2" d="M129.75,-482.75C195.17,-483.15 210.74,-494.9 273.75,-494.5"/>
<path fill="none" stroke="#000000" stroke-width="2" d="M129.75,-484.75C193.96,-484.75 209.54,-496.5 273.75,-496.5"/>
<path fill="none" stroke="#000000" stroke-width="2" d="M129.75,-486.75C192.76,-486.35 208.33,-498.1 273.75,-498.5"/>
<path fill="none" stroke="#000000" stroke-width="2" d="M129.75,-488.75C191.55,-487.94 207.13,-499.69 273.75,-500.5"/>
</g>
<!-- X1&#45;&#45;W1 -->
<g id="edge21" class="edge">
<title>X1:e&#45;&#45;W1:w</title>
<path fill="none" stroke="#000000" stroke-width="2" d="M129.75,-457C194.1,-460.46 201.47,-406.71 273.75,-403.25"/>
<path fill="none" stroke="#ff0000" stroke-width="2" d="M129.75,-459C196.08,-460.73 203.46,-406.98 273.75,-405.25"/>
<path fill="none" stroke="#0066ff" stroke-width="2" d="M129.75,-461C198.06,-461 205.44,-407.25 273.75,-407.25"/>
<path fill="none" stroke="#ff0000" stroke-width="2" d="M129.75,-463C200.04,-461.27 207.42,-407.52 273.75,-409.25"/>
<path fill="none" stroke="#000000" stroke-width="2" d="M129.75,-465C202.03,-461.54 209.4,-407.79 273.75,-411.25"/>
</g>
<!-- X1&#45;&#45;W1 -->
<g id="edge23" class="edge">
<title>X1:e&#45;&#45;W1:w</title>
<path fill="none" stroke="#000000" stroke-width="2" d="M129.75,-433.25C193.69,-433.25 209.69,-433 273.75,-433"/>
<path fill="none" stroke="#999999" stroke-width="2" d="M129.75,-435.25C193.72,-435.25 209.72,-435 273.75,-435"/>
<path fill="none" stroke="#ff66cc" stroke-width="2" d="M129.75,-437.25C193.75,-437.25 209.75,-437 273.75,-437"/>
<path fill="none" stroke="#999999" stroke-width="2" d="M129.75,-439.25C193.78,-439.25 209.78,-439 273.75,-439"/>
<path fill="none" stroke="#000000" stroke-width="2" d="M129.75,-441.25C193.81,-441.25 209.81,-441 273.75,-441"/>
</g>
<!-- X1&#45;&#45;W1 -->
<g id="edge25" class="edge">
<title>X1:e&#45;&#45;W1:w</title>
<path fill="none" stroke="#000000" stroke-width="2" d="M129.75,-413.5C197.76,-413.5 205.74,-361.75 273.75,-361.75"/>
</g>
<!-- X2 -->
<g id="node2" class="node">
<title>X2</title>
<polygon fill="#ffffff" stroke="black" points="795.5,-1187.5 669.5,-1187.5 669.5,0 795.5,0 795.5,-1187.5"/>
<polygon fill="#ffffff" stroke="none" points="669.5,0 669.5,-1187.5 795.5,-1187.5 795.5,0 669.5,0"/>
<polygon fill="none" stroke="black" points="669.5,-1163.75 669.5,-1187.5 795.5,-1187.5 795.5,-1163.75 669.5,-1163.75"/>
<text text-anchor="start" x="724.25" y="-1170.2" font-family="arial" font-size="14.00">X2</text>
<polygon fill="none" stroke="black" points="669.5,-1140 669.5,-1163.75 700.75,-1163.75 700.75,-1140 669.5,-1140"/>
<text text-anchor="start" x="673.5" y="-1146.45" font-family="arial" font-size="14.00">F48</text>
<polygon fill="none" stroke="black" points="700.75,-1140 700.75,-1163.75 750,-1163.75 750,-1140 700.75,-1140"/>
<text text-anchor="start" x="704.75" y="-1146.45" font-family="arial" font-size="14.00">female</text>
<polygon fill="none" stroke="black" points="750,-1140 750,-1163.75 795.5,-1163.75 795.5,-1140 750,-1140"/>
<text text-anchor="start" x="754" y="-1146.45" font-family="arial" font-size="14.00">48&#45;pin</text>
<polygon fill="none" stroke="black" points="669.5,-1116.25 669.5,-1140 795.5,-1140 795.5,-1116.25 669.5,-1116.25"/>
<text text-anchor="start" x="725.38" y="-1122.7" font-family="arial" font-size="14.00">z2</text>
<polygon fill="none" stroke="black" points="669.5,-1092.5 669.5,-1116.25 795.5,-1116.25 795.5,-1092.5 669.5,-1092.5"/>
<text text-anchor="start" x="725" y="-1098.95" font-family="arial" font-size="14.00">b2</text>
<polygon fill="none" stroke="black" points="669.5,-1068.75 669.5,-1092.5 795.5,-1092.5 795.5,-1068.75 669.5,-1068.75"/>
<text text-anchor="start" x="725" y="-1075.2" font-family="arial" font-size="14.00">d2</text>
<polygon fill="none" stroke="black" points="669.5,-1045 669.5,-1068.75 795.5,-1068.75 795.5,-1045 669.5,-1045"/>
<text text-anchor="start" x="725.38" y="-1051.45" font-family="arial" font-size="14.00">z4</text>
<polygon fill="none" stroke="black" points="669.5,-1021.25 669.5,-1045 795.5,-1045 795.5,-1021.25 669.5,-1021.25"/>
<text text-anchor="start" x="725" y="-1027.7" font-family="arial" font-size="14.00">b4</text>
<polygon fill="none" stroke="black" points="669.5,-997.5 669.5,-1021.25 795.5,-1021.25 795.5,-997.5 669.5,-997.5"/>
<text text-anchor="start" x="725" y="-1003.95" font-family="arial" font-size="14.00">d4</text>
<polygon fill="none" stroke="black" points="669.5,-973.75 669.5,-997.5 795.5,-997.5 795.5,-973.75 669.5,-973.75"/>
<text text-anchor="start" x="725.38" y="-980.2" font-family="arial" font-size="14.00">z6</text>
<polygon fill="none" stroke="black" points="669.5,-950 669.5,-973.75 795.5,-973.75 795.5,-950 669.5,-950"/>
<text text-anchor="start" x="725" y="-956.45" font-family="arial" font-size="14.00">b6</text>
<polygon fill="none" stroke="black" points="669.5,-926.25 669.5,-950 795.5,-950 795.5,-926.25 669.5,-926.25"/>
<text text-anchor="start" x="725" y="-932.7" font-family="arial" font-size="14.00">d6</text>
<polygon fill="none" stroke="black" points="669.5,-902.5 669.5,-926.25 795.5,-926.25 795.5,-902.5 669.5,-902.5"/>
<text text-anchor="start" x="725.38" y="-908.95" font-family="arial" font-size="14.00">z8</text>
<polygon fill="none" stroke="black" points="669.5,-878.75 669.5,-902.5 795.5,-902.5 795.5,-878.75 669.5,-878.75"/>
<text text-anchor="start" x="725" y="-885.2" font-family="arial" font-size="14.00">b8</text>
<polygon fill="none" stroke="black" points="669.5,-855 669.5,-878.75 795.5,-878.75 795.5,-855 669.5,-855"/>
<text text-anchor="start" x="725" y="-861.45" font-family="arial" font-size="14.00">d8</text>
<polygon fill="none" stroke="black" points="669.5,-831.25 669.5,-855 795.5,-855 795.5,-831.25 669.5,-831.25"/>
<text text-anchor="start" x="721.62" y="-837.7" font-family="arial" font-size="14.00">z10</text>
<polygon fill="none" stroke="black" points="669.5,-807.5 669.5,-831.25 795.5,-831.25 795.5,-807.5 669.5,-807.5"/>
<text text-anchor="start" x="721.25" y="-813.95" font-family="arial" font-size="14.00">b10</text>
<polygon fill="none" stroke="black" points="669.5,-783.75 669.5,-807.5 795.5,-807.5 795.5,-783.75 669.5,-783.75"/>
<text text-anchor="start" x="721.25" y="-790.2" font-family="arial" font-size="14.00">d10</text>
<polygon fill="none" stroke="black" points="669.5,-760 669.5,-783.75 795.5,-783.75 795.5,-760 669.5,-760"/>
<text text-anchor="start" x="721.62" y="-766.45" font-family="arial" font-size="14.00">z12</text>
<polygon fill="none" stroke="black" points="669.5,-736.25 669.5,-760 795.5,-760 795.5,-736.25 669.5,-736.25"/>
<text text-anchor="start" x="721.25" y="-742.7" font-family="arial" font-size="14.00">b12</text>
<polygon fill="none" stroke="black" points="669.5,-712.5 669.5,-736.25 795.5,-736.25 795.5,-712.5 669.5,-712.5"/>
<text text-anchor="start" x="721.25" y="-718.95" font-family="arial" font-size="14.00">d12</text>
<polygon fill="none" stroke="black" points="669.5,-688.75 669.5,-712.5 795.5,-712.5 795.5,-688.75 669.5,-688.75"/>
<text text-anchor="start" x="721.62" y="-695.2" font-family="arial" font-size="14.00">z14</text>
<polygon fill="none" stroke="black" points="669.5,-665 669.5,-688.75 795.5,-688.75 795.5,-665 669.5,-665"/>
<text text-anchor="start" x="721.25" y="-671.45" font-family="arial" font-size="14.00">b14</text>
<polygon fill="none" stroke="black" points="669.5,-641.25 669.5,-665 795.5,-665 795.5,-641.25 669.5,-641.25"/>
<text text-anchor="start" x="721.25" y="-647.7" font-family="arial" font-size="14.00">d14</text>
<polygon fill="none" stroke="black" points="669.5,-617.5 669.5,-641.25 795.5,-641.25 795.5,-617.5 669.5,-617.5"/>
<text text-anchor="start" x="721.62" y="-623.95" font-family="arial" font-size="14.00">z16</text>
<polygon fill="none" stroke="black" points="669.5,-593.75 669.5,-617.5 795.5,-617.5 795.5,-593.75 669.5,-593.75"/>
<text text-anchor="start" x="721.25" y="-600.2" font-family="arial" font-size="14.00">b16</text>
<polygon fill="none" stroke="black" points="669.5,-570 669.5,-593.75 795.5,-593.75 795.5,-570 669.5,-570"/>
<text text-anchor="start" x="721.25" y="-576.45" font-family="arial" font-size="14.00">d16</text>
<polygon fill="none" stroke="black" points="669.5,-546.25 669.5,-570 795.5,-570 795.5,-546.25 669.5,-546.25"/>
<text text-anchor="start" x="721.62" y="-552.7" font-family="arial" font-size="14.00">z18</text>
<polygon fill="none" stroke="black" points="669.5,-522.5 669.5,-546.25 795.5,-546.25 795.5,-522.5 669.5,-522.5"/>
<text text-anchor="start" x="721.25" y="-528.95" font-family="arial" font-size="14.00">b18</text>
<polygon fill="none" stroke="black" points="669.5,-498.75 669.5,-522.5 795.5,-522.5 795.5,-498.75 669.5,-498.75"/>
<text text-anchor="start" x="721.25" y="-505.2" font-family="arial" font-size="14.00">d18</text>
<polygon fill="none" stroke="black" points="669.5,-475 669.5,-498.75 795.5,-498.75 795.5,-475 669.5,-475"/>
<text text-anchor="start" x="721.62" y="-481.45" font-family="arial" font-size="14.00">z20</text>
<polygon fill="none" stroke="black" points="669.5,-451.25 669.5,-475 795.5,-475 795.5,-451.25 669.5,-451.25"/>
<text text-anchor="start" x="721.25" y="-457.7" font-family="arial" font-size="14.00">b20</text>
<polygon fill="none" stroke="black" points="669.5,-427.5 669.5,-451.25 795.5,-451.25 795.5,-427.5 669.5,-427.5"/>
<text text-anchor="start" x="721.25" y="-433.95" font-family="arial" font-size="14.00">d20</text>
<polygon fill="none" stroke="black" points="669.5,-403.75 669.5,-427.5 795.5,-427.5 795.5,-403.75 669.5,-403.75"/>
<text text-anchor="start" x="721.62" y="-410.2" font-family="arial" font-size="14.00">z22</text>
<polygon fill="none" stroke="black" points="669.5,-380 669.5,-403.75 795.5,-403.75 795.5,-380 669.5,-380"/>
<text text-anchor="start" x="721.25" y="-386.45" font-family="arial" font-size="14.00">b22</text>
<polygon fill="none" stroke="black" points="669.5,-356.25 669.5,-380 795.5,-380 795.5,-356.25 669.5,-356.25"/>
<text text-anchor="start" x="721.25" y="-362.7" font-family="arial" font-size="14.00">d22</text>
<polygon fill="none" stroke="black" points="669.5,-332.5 669.5,-356.25 795.5,-356.25 795.5,-332.5 669.5,-332.5"/>
<text text-anchor="start" x="721.62" y="-338.95" font-family="arial" font-size="14.00">z24</text>
<polygon fill="none" stroke="black" points="669.5,-308.75 669.5,-332.5 795.5,-332.5 795.5,-308.75 669.5,-308.75"/>
<text text-anchor="start" x="721.25" y="-315.2" font-family="arial" font-size="14.00">b24</text>
<polygon fill="none" stroke="black" points="669.5,-285 669.5,-308.75 795.5,-308.75 795.5,-285 669.5,-285"/>
<text text-anchor="start" x="721.25" y="-291.45" font-family="arial" font-size="14.00">d24</text>
<polygon fill="none" stroke="black" points="669.5,-261.25 669.5,-285 795.5,-285 795.5,-261.25 669.5,-261.25"/>
<text text-anchor="start" x="721.62" y="-267.7" font-family="arial" font-size="14.00">z26</text>
<polygon fill="none" stroke="black" points="669.5,-237.5 669.5,-261.25 795.5,-261.25 795.5,-237.5 669.5,-237.5"/>
<text text-anchor="start" x="721.25" y="-243.95" font-family="arial" font-size="14.00">b26</text>
<polygon fill="none" stroke="black" points="669.5,-213.75 669.5,-237.5 795.5,-237.5 795.5,-213.75 669.5,-213.75"/>
<text text-anchor="start" x="721.25" y="-220.2" font-family="arial" font-size="14.00">d26</text>
<polygon fill="none" stroke="black" points="669.5,-190 669.5,-213.75 795.5,-213.75 795.5,-190 669.5,-190"/>
<text text-anchor="start" x="721.62" y="-196.45" font-family="arial" font-size="14.00">z28</text>
<polygon fill="none" stroke="black" points="669.5,-166.25 669.5,-190 795.5,-190 795.5,-166.25 669.5,-166.25"/>
<text text-anchor="start" x="721.25" y="-172.7" font-family="arial" font-size="14.00">b28</text>
<polygon fill="none" stroke="black" points="669.5,-142.5 669.5,-166.25 795.5,-166.25 795.5,-142.5 669.5,-142.5"/>
<text text-anchor="start" x="721.25" y="-148.95" font-family="arial" font-size="14.00">d28</text>
<polygon fill="none" stroke="black" points="669.5,-118.75 669.5,-142.5 795.5,-142.5 795.5,-118.75 669.5,-118.75"/>
<text text-anchor="start" x="721.62" y="-125.2" font-family="arial" font-size="14.00">z30</text>
<polygon fill="none" stroke="black" points="669.5,-95 669.5,-118.75 795.5,-118.75 795.5,-95 669.5,-95"/>
<text text-anchor="start" x="721.25" y="-101.45" font-family="arial" font-size="14.00">b30</text>
<polygon fill="none" stroke="black" points="669.5,-71.25 669.5,-95 795.5,-95 795.5,-71.25 669.5,-71.25"/>
<text text-anchor="start" x="721.25" y="-77.7" font-family="arial" font-size="14.00">d30</text>
<polygon fill="none" stroke="black" points="669.5,-47.5 669.5,-71.25 795.5,-71.25 795.5,-47.5 669.5,-47.5"/>
<text text-anchor="start" x="721.62" y="-53.95" font-family="arial" font-size="14.00">z32</text>
<polygon fill="none" stroke="black" points="669.5,-23.75 669.5,-47.5 795.5,-47.5 795.5,-23.75 669.5,-23.75"/>
<text text-anchor="start" x="721.25" y="-30.2" font-family="arial" font-size="14.00">b32</text>
<polygon fill="none" stroke="black" points="669.5,0 669.5,-23.75 795.5,-23.75 795.5,0 669.5,0"/>
<text text-anchor="start" x="721.25" y="-6.45" font-family="arial" font-size="14.00">d32</text>
</g>
<!-- W1&#45;&#45;X2 -->
<g id="edge2" class="edge">
<title>W1:e&#45;&#45;X2:w</title>
<path fill="none" stroke="#000000" stroke-width="2" d="M525.5,-700.75C678.82,-706.57 523.31,-1011.19 669.5,-1005.38"/>
<path fill="none" stroke="#895956" stroke-width="2" d="M525.5,-702.75C677.03,-705.66 521.53,-1010.28 669.5,-1007.38"/>
<path fill="none" stroke="#895956" stroke-width="2" d="M525.5,-704.75C675.25,-704.75 519.75,-1009.38 669.5,-1009.38"/>
<path fill="none" stroke="#895956" stroke-width="2" d="M525.5,-706.75C673.47,-703.84 517.97,-1008.47 669.5,-1011.37"/>
<path fill="none" stroke="#000000" stroke-width="2" d="M525.5,-708.75C671.69,-702.93 516.18,-1007.56 669.5,-1013.37"/>
</g>
<!-- W1&#45;&#45;X2 -->
<g id="edge4" class="edge">
<title>W1:e&#45;&#45;X2:w</title>
<path fill="none" stroke="#000000" stroke-width="2" d="M525.5,-730.5C715.24,-736.51 486.68,-1130.13 669.5,-1124.13"/>
<path fill="none" stroke="#ffffff" stroke-width="2" d="M525.5,-732.5C713.51,-735.5 484.95,-1129.13 669.5,-1126.13"/>
<path fill="none" stroke="#ffffff" stroke-width="2" d="M525.5,-734.5C711.78,-734.5 483.22,-1128.12 669.5,-1128.12"/>
<path fill="none" stroke="#ffffff" stroke-width="2" d="M525.5,-736.5C710.05,-733.5 481.49,-1127.12 669.5,-1130.12"/>
<path fill="none" stroke="#000000" stroke-width="2" d="M525.5,-738.5C708.32,-732.49 479.76,-1126.12 669.5,-1132.12"/>
</g>
<!-- W1&#45;&#45;X2 -->
<g id="edge6" class="edge">
<title>W1:e&#45;&#45;X2:w</title>
<path fill="none" stroke="#000000" stroke-width="2" d="M525.5,-641.25C621.89,-646.3 580.82,-796.68 669.5,-791.63"/>
<path fill="none" stroke="#ffff00" stroke-width="2" d="M525.5,-643.25C619.96,-645.78 578.89,-796.15 669.5,-793.63"/>
<path fill="none" stroke="#ffff00" stroke-width="2" d="M525.5,-645.25C618.03,-645.25 576.97,-795.63 669.5,-795.62"/>
<path fill="none" stroke="#ffff00" stroke-width="2" d="M525.5,-647.25C616.11,-644.72 575.04,-795.1 669.5,-797.62"/>
<path fill="none" stroke="#000000" stroke-width="2" d="M525.5,-649.25C614.18,-644.2 573.11,-794.57 669.5,-799.62"/>
</g>
<!-- W1&#45;&#45;X2 -->
<g id="edge8" class="edge">
<title>W1:e&#45;&#45;X2:w</title>
<path fill="none" stroke="#000000" stroke-width="2" d="M525.5,-671C653.32,-676.6 549.01,-915.97 669.5,-910.38"/>
<path fill="none" stroke="#00aa00" stroke-width="2" d="M525.5,-673C651.49,-675.8 547.18,-915.17 669.5,-912.38"/>
<path fill="none" stroke="#00aa00" stroke-width="2" d="M525.5,-675C649.66,-675 545.34,-914.37 669.5,-914.38"/>
<path fill="none" stroke="#00aa00" stroke-width="2" d="M525.5,-677C647.82,-674.2 543.51,-913.58 669.5,-916.37"/>
<path fill="none" stroke="#000000" stroke-width="2" d="M525.5,-679C645.99,-673.4 541.68,-912.78 669.5,-918.37"/>
</g>
<!-- W1&#45;&#45;X2 -->
<g id="edge10" class="edge">
<title>W1:e&#45;&#45;X2:w</title>
<path fill="none" stroke="#000000" stroke-width="2" d="M525.5,-581.75C588.58,-581.86 604.53,-577.99 669.5,-577.88"/>
<path fill="none" stroke="#ff66cc" stroke-width="2" d="M525.5,-583.75C589.05,-583.81 605,-579.93 669.5,-579.88"/>
<path fill="none" stroke="#ff66cc" stroke-width="2" d="M525.5,-585.75C589.52,-585.75 605.48,-581.87 669.5,-581.88"/>
<path fill="none" stroke="#ff66cc" stroke-width="2" d="M525.5,-587.75C590,-587.69 605.95,-583.82 669.5,-583.87"/>
<path fill="none" stroke="#000000" stroke-width="2" d="M525.5,-589.75C590.47,-589.64 606.42,-585.76 669.5,-585.87"/>
</g>
<!-- W1&#45;&#45;X2 -->
<g id="edge12" class="edge">
<title>W1:e&#45;&#45;X2:w</title>
<path fill="none" stroke="#000000" stroke-width="2" d="M525.5,-611.5C603.84,-615.72 599.15,-700.85 669.5,-696.63"/>
<path fill="none" stroke="#999999" stroke-width="2" d="M525.5,-613.5C601.84,-615.61 597.15,-700.74 669.5,-698.63"/>
<path fill="none" stroke="#999999" stroke-width="2" d="M525.5,-615.5C599.85,-615.5 595.15,-700.62 669.5,-700.63"/>
<path fill="none" stroke="#999999" stroke-width="2" d="M525.5,-617.5C597.85,-615.39 593.16,-700.51 669.5,-702.62"/>
<path fill="none" stroke="#000000" stroke-width="2" d="M525.5,-619.5C595.85,-615.28 591.16,-700.4 669.5,-704.62"/>
</g>
<!-- W1&#45;&#45;X2 -->
<g id="edge14" class="edge">
<title>W1:e&#45;&#45;X2:w</title>
<path fill="none" stroke="#000000" stroke-width="2" d="M525.5,-522.25C596.25,-526.5 590.76,-439.63 669.5,-435.38"/>
<path fill="none" stroke="#ff0000" stroke-width="2" d="M525.5,-524.25C598.25,-526.38 592.76,-439.5 669.5,-437.38"/>
<path fill="none" stroke="#ff0000" stroke-width="2" d="M525.5,-526.25C600.25,-526.25 594.75,-439.38 669.5,-439.38"/>
<path fill="none" stroke="#ff0000" stroke-width="2" d="M525.5,-528.25C602.24,-526.12 596.75,-439.25 669.5,-441.37"/>
<path fill="none" stroke="#000000" stroke-width="2" d="M525.5,-530.25C604.24,-526 598.75,-439.12 669.5,-443.37"/>
</g>
<!-- W1&#45;&#45;X2 -->
<g id="edge16" class="edge">
<title>W1:e&#45;&#45;X2:w</title>
<path fill="none" stroke="#000000" stroke-width="2" d="M525.5,-552C590.03,-552.03 606.02,-554.16 669.5,-554.13"/>
<path fill="none" stroke="#0066ff" stroke-width="2" d="M525.5,-554C589.77,-554.02 605.76,-556.14 669.5,-556.13"/>
<path fill="none" stroke="#0066ff" stroke-width="2" d="M525.5,-556C589.51,-556 605.49,-558.12 669.5,-558.12"/>
<path fill="none" stroke="#0066ff" stroke-width="2" d="M525.5,-558C589.24,-557.98 605.23,-560.11 669.5,-560.12"/>
<path fill="none" stroke="#000000" stroke-width="2" d="M525.5,-560C588.98,-559.97 604.97,-562.09 669.5,-562.12"/>
</g>
<!-- W1&#45;&#45;X2 -->
<g id="edge18" class="edge">
<title>W1:e&#45;&#45;X2:w</title>
<path fill="none" stroke="#000000" stroke-width="2" d="M525.5,-462.75C646.66,-468.36 541.01,-227.23 669.5,-221.63"/>
<path fill="none" stroke="#8000ff" stroke-width="2" d="M525.5,-464.75C648.49,-467.55 542.85,-226.43 669.5,-223.63"/>
<path fill="none" stroke="#8000ff" stroke-width="2" d="M525.5,-466.75C650.32,-466.75 544.68,-225.63 669.5,-225.63"/>
<path fill="none" stroke="#8000ff" stroke-width="2" d="M525.5,-468.75C652.15,-465.95 546.51,-224.82 669.5,-227.62"/>
<path fill="none" stroke="#000000" stroke-width="2" d="M525.5,-470.75C653.99,-465.14 548.34,-224.02 669.5,-229.62"/>
</g>
<!-- W1&#45;&#45;X2 -->
<g id="edge20" class="edge">
<title>W1:e&#45;&#45;X2:w</title>
<path fill="none" stroke="#000000" stroke-width="2" d="M525.5,-492.5C614.74,-497.57 572.55,-345.44 669.5,-340.38"/>
<path fill="none" stroke="#000000" stroke-width="2" d="M525.5,-494.5C616.67,-497.03 574.47,-344.91 669.5,-342.38"/>
<path fill="none" stroke="#000000" stroke-width="2" d="M525.5,-496.5C618.6,-496.5 576.4,-344.38 669.5,-344.37"/>
<path fill="none" stroke="#000000" stroke-width="2" d="M525.5,-498.5C620.53,-495.97 578.33,-343.84 669.5,-346.37"/>
<path fill="none" stroke="#000000" stroke-width="2" d="M525.5,-500.5C622.45,-495.43 580.26,-343.31 669.5,-348.37"/>
</g>
<!-- W1&#45;&#45;X2 -->
<g id="edge22" class="edge">
<title>W1:e&#45;&#45;X2:w</title>
<path fill="none" stroke="#000000" stroke-width="2" d="M525.5,-403.25C709.06,-409.26 479.03,-13.89 669.5,-7.88"/>
<path fill="none" stroke="#ff0000" stroke-width="2" d="M525.5,-405.25C710.79,-408.26 480.76,-12.88 669.5,-9.88"/>
<path fill="none" stroke="#0066ff" stroke-width="2" d="M525.5,-407.25C712.51,-407.25 482.49,-11.87 669.5,-11.88"/>
<path fill="none" stroke="#ff0000" stroke-width="2" d="M525.5,-409.25C714.24,-406.24 484.21,-10.87 669.5,-13.87"/>
<path fill="none" stroke="#000000" stroke-width="2" d="M525.5,-411.25C715.97,-405.24 485.94,-9.86 669.5,-15.87"/>
</g>
<!-- W1&#45;&#45;X2 -->
<g id="edge24" class="edge">
<title>W1:e&#45;&#45;X2:w</title>
<path fill="none" stroke="#000000" stroke-width="2" d="M525.5,-433C672.4,-438.82 515.48,-132.45 669.5,-126.63"/>
<path fill="none" stroke="#999999" stroke-width="2" d="M525.5,-435C674.18,-437.91 517.26,-131.54 669.5,-128.63"/>
<path fill="none" stroke="#ff66cc" stroke-width="2" d="M525.5,-437C675.96,-437 519.04,-130.62 669.5,-130.62"/>
<path fill="none" stroke="#999999" stroke-width="2" d="M525.5,-439C677.74,-436.09 520.82,-129.71 669.5,-132.62"/>
<path fill="none" stroke="#000000" stroke-width="2" d="M525.5,-441C679.52,-435.18 522.6,-128.8 669.5,-134.62"/>
</g>
</g>
</svg>
