<?xml version="1.0" encoding="UTF-8" standalone="no"?>
<!DOCTYPE svg PUBLIC "-//W3C//DTD SVG 1.1//EN"
 "http://www.w3.org/Graphics/SVG/1.1/DTD/svg11.dtd">
<!-- Generated by graphviz version 12.2.1 (20241206.2353)
 -->
<!-- Pages: 1 -->
<svg width="1080pt" height="333pt"
 viewBox="0.00 0.00 1079.50 333.00" xmlns="http://www.w3.org/2000/svg" xmlns:xlink="http://www.w3.org/1999/xlink">
<g id="graph0" class="graph" transform="scale(1 1) rotate(0) translate(4 329)">
<polygon fill="#ffffff" stroke="none" points="-4,4 -4,-329 1075.5,-329 1075.5,4 -4,4"/>
<!-- X1 -->
<g id="node1" class="node">
<title>X1</title>
<polygon fill="#ffffff" stroke="black" points="286.5,-272.25 0,-272.25 0,-34.75 286.5,-34.75 286.5,-272.25"/>
<polygon fill="#ffffff" stroke="none" points="0,-34.75 0,-272.25 286.5,-272.25 286.5,-34.75 0,-34.75"/>
<polygon fill="none" stroke="black" points="0,-248.5 0,-272.25 286.5,-272.25 286.5,-248.5 0,-248.5"/>
<text text-anchor="start" x="135" y="-254.95" font-family="arial" font-size="14.00">X1</text>
<polygon fill="none" stroke="black" points="0,-224.75 0,-248.5 210.5,-248.5 210.5,-224.75 0,-224.75"/>
<text text-anchor="start" x="4" y="-231.2" font-family="arial" font-size="14.00">Stewart Connector SS&#45;37000&#45;002</text>
<polygon fill="none" stroke="black" points="210.5,-224.75 210.5,-248.5 248.5,-248.5 248.5,-224.75 210.5,-224.75"/>
<text text-anchor="start" x="214.5" y="-231.2" font-family="arial" font-size="14.00">male</text>
<polygon fill="none" stroke="black" points="248.5,-224.75 248.5,-248.5 286.5,-248.5 286.5,-224.75 248.5,-224.75"/>
<text text-anchor="start" x="252.5" y="-231.2" font-family="arial" font-size="14.00">8&#45;pin</text>
<polygon fill="none" stroke="black" points="0,-201 0,-224.75 153.38,-224.75 153.38,-201 0,-201"/>
<text text-anchor="start" x="63.19" y="-207.45" font-family="arial" font-size="14.00">DA+</text>
<polygon fill="none" stroke="black" points="153.38,-201 153.38,-224.75 286.5,-224.75 286.5,-201 153.38,-201"/>
<text text-anchor="start" x="216.19" y="-207.45" font-family="arial" font-size="14.00">1</text>
<polygon fill="none" stroke="black" points="0,-177.25 0,-201 153.38,-201 153.38,-177.25 0,-177.25"/>
<text text-anchor="start" x="65.06" y="-183.7" font-family="arial" font-size="14.00">DA&#45;</text>
<polygon fill="none" stroke="black" points="153.38,-177.25 153.38,-201 286.5,-201 286.5,-177.25 153.38,-177.25"/>
<text text-anchor="start" x="216.19" y="-183.7" font-family="arial" font-size="14.00">2</text>
<polygon fill="none" stroke="black" points="0,-153.5 0,-177.25 153.38,-177.25 153.38,-153.5 0,-153.5"/>
<text text-anchor="start" x="63.19" y="-159.95" font-family="arial" font-size="14.00">DB+</text>
<polygon fill="none" stroke="black" points="153.38,-153.5 153.38,-177.25 286.5,-177.25 286.5,-153.5 153.38,-153.5"/>
<text text-anchor="start" x="216.19" y="-159.95" font-family="arial" font-size="14.00">3</text>
<polygon fill="none" stroke="black" points="0,-129.75 0,-153.5 153.38,-153.5 153.38,-129.75 0,-129.75"/>
<text text-anchor="start" x="62.81" y="-136.2" font-family="arial" font-size="14.00">DC+</text>
<polygon fill="none" stroke="black" points="153.38,-129.75 153.38,-153.5 286.5,-153.5 286.5,-129.75 153.38,-129.75"/>
<text text-anchor="start" x="216.19" y="-136.2" font-family="arial" font-size="14.00">4</text>
<polygon fill="none" stroke="black" points="0,-106 0,-129.75 153.38,-129.75 153.38,-106 0,-106"/>
<text text-anchor="start" x="64.69" y="-112.45" font-family="arial" font-size="14.00">DC&#45;</text>
<polygon fill="none" stroke="black" points="153.38,-106 153.38,-129.75 286.5,-129.75 286.5,-106 153.38,-106"/>
<text text-anchor="start" x="216.19" y="-112.45" font-family="arial" font-size="14.00">5</text>
<polygon fill="none" stroke="black" points="0,-82.25 0,-106 153.38,-106 153.38,-82.25 0,-82.25"/>
<text text-anchor="start" x="65.06" y="-88.7" font-family="arial" font-size="14.00">DB&#45;</text>
<polygon fill="none" stroke="black" points="153.38,-82.25 153.38,-106 286.5,-106 286.5,-82.25 153.38,-82.25"/>
<text text-anchor="start" x="216.19" y="-88.7" font-family="arial" font-size="14.00">6</text>
<polygon fill="none" stroke="black" points="0,-58.5 0,-82.25 153.38,-82.25 153.38,-58.5 0,-58.5"/>
<text text-anchor="start" x="62.81" y="-64.95" font-family="arial" font-size="14.00">DD+</text>
<polygon fill="none" stroke="black" points="153.38,-58.5 153.38,-82.25 286.5,-82.25 286.5,-58.5 153.38,-58.5"/>
<text text-anchor="start" x="216.19" y="-64.95" font-family="arial" font-size="14.00">7</text>
<polygon fill="none" stroke="black" points="0,-34.75 0,-58.5 153.38,-58.5 153.38,-34.75 0,-34.75"/>
<text text-anchor="start" x="64.69" y="-41.2" font-family="arial" font-size="14.00">DD&#45;</text>
<polygon fill="none" stroke="black" points="153.38,-34.75 153.38,-58.5 286.5,-58.5 286.5,-34.75 153.38,-34.75"/>
<text text-anchor="start" x="216.19" y="-41.2" font-family="arial" font-size="14.00">8</text>
</g>
<!-- W1 -->
<g id="node3" class="node">
<title>W1</title>
<polygon fill="#ffffff" stroke="black" points="641,-325 430.5,-325 430.5,0 641,0 641,-325"/>
<polygon fill="#ffffff" stroke="none" points="430.5,0 430.5,-325 641,-325 641,0 430.5,0"/>
<polygon fill="none" stroke="black" points="430.5,-301.25 430.5,-325 641,-325 641,-301.25 430.5,-301.25"/>
<text text-anchor="start" x="525.25" y="-307.7" font-family="arial" font-size="14.00">W1</text>
<polygon fill="none" stroke="black" points="430.5,-277.5 430.5,-301.25 491.75,-301.25 491.75,-277.5 430.5,-277.5"/>
<text text-anchor="start" x="440.5" y="-283.95" font-family="arial" font-size="14.00">CAT5e</text>
<polygon fill="none" stroke="black" points="491.75,-277.5 491.75,-301.25 526,-301.25 526,-277.5 491.75,-277.5"/>
<text text-anchor="start" x="501.75" y="-283.95" font-family="arial" font-size="14.00">8x</text>
<polygon fill="none" stroke="black" points="526,-277.5 526,-301.25 597.75,-301.25 597.75,-277.5 526,-277.5"/>
<text text-anchor="start" x="536" y="-283.95" font-family="arial" font-size="14.00">24 AWG</text>
<polygon fill="none" stroke="black" points="597.75,-277.5 597.75,-301.25 641,-301.25 641,-277.5 597.75,-277.5"/>
<text text-anchor="start" x="607.75" y="-283.95" font-family="arial" font-size="14.00">1 m</text>
<text text-anchor="start" x="462.12" y="-262.2" font-family="arial" font-size="14.00"> </text>
<text text-anchor="start" x="432.5" y="-242.45" font-family="arial" font-size="14.00"> X1:1:DA+</text>
<text text-anchor="start" x="499.5" y="-242.45" font-family="arial" font-size="14.00"> </text>
<text text-anchor="start" x="508" y="-242.45" font-family="arial" font-size="14.00">1:WHGN</text>
<text text-anchor="start" x="568.25" y="-242.45" font-family="arial" font-size="14.00"> </text>
<text text-anchor="start" x="576.75" y="-242.45" font-family="arial" font-size="14.00">X2:3:DA+ </text>
<polygon fill="#000000" stroke="none" points="430.5,-236 430.5,-238 641,-238 641,-236 430.5,-236"/>
<polygon fill="#ffffff" stroke="none" points="430.5,-234 430.5,-236 641,-236 641,-234 430.5,-234"/>
<polygon fill="#00aa00" stroke="none" points="430.5,-232 430.5,-234 641,-234 641,-232 430.5,-232"/>
<polygon fill="#ffffff" stroke="none" points="430.5,-230 430.5,-232 641,-232 641,-230 430.5,-230"/>
<polygon fill="#000000" stroke="none" points="430.5,-228 430.5,-230 641,-230 641,-228 430.5,-228"/>
<text text-anchor="start" x="432.5" y="-212.7" font-family="arial" font-size="14.00"> X1:2:DA&#45;</text>
<text text-anchor="start" x="499.5" y="-212.7" font-family="arial" font-size="14.00"> </text>
<text text-anchor="start" x="519.62" y="-212.7" font-family="arial" font-size="14.00">2:GN</text>
<text text-anchor="start" x="568.25" y="-212.7" font-family="arial" font-size="14.00"> </text>
<text text-anchor="start" x="580.5" y="-212.7" font-family="arial" font-size="14.00">X2:6:DA&#45; </text>
<polygon fill="#000000" stroke="none" points="430.5,-206.25 430.5,-208.25 641,-208.25 641,-206.25 430.5,-206.25"/>
<polygon fill="#00aa00" stroke="none" points="430.5,-204.25 430.5,-206.25 641,-206.25 641,-204.25 430.5,-204.25"/>
<polygon fill="#00aa00" stroke="none" points="430.5,-202.25 430.5,-204.25 641,-204.25 641,-202.25 430.5,-202.25"/>
<polygon fill="#00aa00" stroke="none" points="430.5,-200.25 430.5,-202.25 641,-202.25 641,-200.25 430.5,-200.25"/>
<polygon fill="#000000" stroke="none" points="430.5,-198.25 430.5,-200.25 641,-200.25 641,-198.25 430.5,-198.25"/>
<text text-anchor="start" x="432.5" y="-182.95" font-family="arial" font-size="14.00"> X1:3:DB+</text>
<text text-anchor="start" x="499.5" y="-182.95" font-family="arial" font-size="14.00"> </text>
<text text-anchor="start" x="507.25" y="-182.95" font-family="arial" font-size="14.00">3:WHOG</text>
<text text-anchor="start" x="568.25" y="-182.95" font-family="arial" font-size="14.00"> </text>
<text text-anchor="start" x="576.75" y="-182.95" font-family="arial" font-size="14.00">X2:1:DB+ </text>
<polygon fill="#000000" stroke="none" points="430.5,-176.5 430.5,-178.5 641,-178.5 641,-176.5 430.5,-176.5"/>
<polygon fill="#ffffff" stroke="none" points="430.5,-174.5 430.5,-176.5 641,-176.5 641,-174.5 430.5,-174.5"/>
<polygon fill="#ff8000" stroke="none" points="430.5,-172.5 430.5,-174.5 641,-174.5 641,-172.5 430.5,-172.5"/>
<polygon fill="#ffffff" stroke="none" points="430.5,-170.5 430.5,-172.5 641,-172.5 641,-170.5 430.5,-170.5"/>
<polygon fill="#000000" stroke="none" points="430.5,-168.5 430.5,-170.5 641,-170.5 641,-168.5 430.5,-168.5"/>
<text text-anchor="start" x="432.5" y="-153.2" font-family="arial" font-size="14.00"> X1:4:DC+</text>
<text text-anchor="start" x="499.5" y="-153.2" font-family="arial" font-size="14.00"> </text>
<text text-anchor="start" x="520.75" y="-153.2" font-family="arial" font-size="14.00">4:BU</text>
<text text-anchor="start" x="568.25" y="-153.2" font-family="arial" font-size="14.00"> </text>
<text text-anchor="start" x="576" y="-153.2" font-family="arial" font-size="14.00">X2:7:DC+ </text>
<polygon fill="#000000" stroke="none" points="430.5,-146.75 430.5,-148.75 641,-148.75 641,-146.75 430.5,-146.75"/>
<polygon fill="#0066ff" stroke="none" points="430.5,-144.75 430.5,-146.75 641,-146.75 641,-144.75 430.5,-144.75"/>
<polygon fill="#0066ff" stroke="none" points="430.5,-142.75 430.5,-144.75 641,-144.75 641,-142.75 430.5,-142.75"/>
<polygon fill="#0066ff" stroke="none" points="430.5,-140.75 430.5,-142.75 641,-142.75 641,-140.75 430.5,-140.75"/>
<polygon fill="#000000" stroke="none" points="430.5,-138.75 430.5,-140.75 641,-140.75 641,-138.75 430.5,-138.75"/>
<text text-anchor="start" x="432.5" y="-123.45" font-family="arial" font-size="14.00"> X1:5:DC&#45;</text>
<text text-anchor="start" x="499.5" y="-123.45" font-family="arial" font-size="14.00"> </text>
<text text-anchor="start" x="509.12" y="-123.45" font-family="arial" font-size="14.00">5:WHBU</text>
<text text-anchor="start" x="568.25" y="-123.45" font-family="arial" font-size="14.00"> </text>
<text text-anchor="start" x="579.75" y="-123.45" font-family="arial" font-size="14.00">X2:8:DC&#45; </text>
<polygon fill="#000000" stroke="none" points="430.5,-117 430.5,-119 641,-119 641,-117 430.5,-117"/>
<polygon fill="#ffffff" stroke="none" points="430.5,-115 430.5,-117 641,-117 641,-115 430.5,-115"/>
<polygon fill="#0066ff" stroke="none" points="430.5,-113 430.5,-115 641,-115 641,-113 430.5,-113"/>
<polygon fill="#ffffff" stroke="none" points="430.5,-111 430.5,-113 641,-113 641,-111 430.5,-111"/>
<polygon fill="#000000" stroke="none" points="430.5,-109 430.5,-111 641,-111 641,-109 430.5,-109"/>
<text text-anchor="start" x="432.5" y="-93.7" font-family="arial" font-size="14.00"> X1:6:DB&#45;</text>
<text text-anchor="start" x="499.5" y="-93.7" font-family="arial" font-size="14.00"> </text>
<text text-anchor="start" x="518.88" y="-93.7" font-family="arial" font-size="14.00">6:OG</text>
<text text-anchor="start" x="568.25" y="-93.7" font-family="arial" font-size="14.00"> </text>
<text text-anchor="start" x="580.5" y="-93.7" font-family="arial" font-size="14.00">X2:2:DB&#45; </text>
<polygon fill="#000000" stroke="none" points="430.5,-87.25 430.5,-89.25 641,-89.25 641,-87.25 430.5,-87.25"/>
<polygon fill="#ff8000" stroke="none" points="430.5,-85.25 430.5,-87.25 641,-87.25 641,-85.25 430.5,-85.25"/>
<polygon fill="#ff8000" stroke="none" points="430.5,-83.25 430.5,-85.25 641,-85.25 641,-83.25 430.5,-83.25"/>
<polygon fill="#ff8000" stroke="none" points="430.5,-81.25 430.5,-83.25 641,-83.25 641,-81.25 430.5,-81.25"/>
<polygon fill="#000000" stroke="none" points="430.5,-79.25 430.5,-81.25 641,-81.25 641,-79.25 430.5,-79.25"/>
<text text-anchor="start" x="432.5" y="-63.95" font-family="arial" font-size="14.00"> X1:7:DD+</text>
<text text-anchor="start" x="499.5" y="-63.95" font-family="arial" font-size="14.00"> </text>
<text text-anchor="start" x="509.12" y="-63.95" font-family="arial" font-size="14.00">7:WHBN</text>
<text text-anchor="start" x="568.25" y="-63.95" font-family="arial" font-size="14.00"> </text>
<text text-anchor="start" x="576" y="-63.95" font-family="arial" font-size="14.00">X2:4:DD+ </text>
<polygon fill="#000000" stroke="none" points="430.5,-57.5 430.5,-59.5 641,-59.5 641,-57.5 430.5,-57.5"/>
<polygon fill="#ffffff" stroke="none" points="430.5,-55.5 430.5,-57.5 641,-57.5 641,-55.5 430.5,-55.5"/>
<polygon fill="#895956" stroke="none" points="430.5,-53.5 430.5,-55.5 641,-55.5 641,-53.5 430.5,-53.5"/>
<polygon fill="#ffffff" stroke="none" points="430.5,-51.5 430.5,-53.5 641,-53.5 641,-51.5 430.5,-51.5"/>
<polygon fill="#000000" stroke="none" points="430.5,-49.5 430.5,-51.5 641,-51.5 641,-49.5 430.5,-49.5"/>
<text text-anchor="start" x="432.5" y="-34.2" font-family="arial" font-size="14.00"> X1:8:DD&#45;</text>
<text text-anchor="start" x="499.5" y="-34.2" font-family="arial" font-size="14.00"> </text>
<text text-anchor="start" x="520.75" y="-34.2" font-family="arial" font-size="14.00">8:BN</text>
<text text-anchor="start" x="568.25" y="-34.2" font-family="arial" font-size="14.00"> </text>
<text text-anchor="start" x="579.75" y="-34.2" font-family="arial" font-size="14.00">X2:5:DD&#45; </text>
<polygon fill="#000000" stroke="none" points="430.5,-27.75 430.5,-29.75 641,-29.75 641,-27.75 430.5,-27.75"/>
<polygon fill="#895956" stroke="none" points="430.5,-25.75 430.5,-27.75 641,-27.75 641,-25.75 430.5,-25.75"/>
<polygon fill="#895956" stroke="none" points="430.5,-23.75 430.5,-25.75 641,-25.75 641,-23.75 430.5,-23.75"/>
<polygon fill="#895956" stroke="none" points="430.5,-21.75 430.5,-23.75 641,-23.75 641,-21.75 430.5,-21.75"/>
<polygon fill="#000000" stroke="none" points="430.5,-19.75 430.5,-21.75 641,-21.75 641,-19.75 430.5,-19.75"/>
<text text-anchor="start" x="462.12" y="-4.45" font-family="arial" font-size="14.00"> </text>
</g>
<!-- X1&#45;&#45;W1 -->
<g id="edge1" class="edge">
<title>X1:e&#45;&#45;W1:w</title>
<path fill="none" stroke="#000000" stroke-width="2" d="M286.5,-208.88C354.35,-210.51 369.1,-230.63 430.5,-229"/>
<path fill="none" stroke="#ffffff" stroke-width="2" d="M286.5,-210.88C352.73,-211.69 367.49,-231.82 430.5,-231"/>
<path fill="none" stroke="#00aa00" stroke-width="2" d="M286.5,-212.88C351.12,-212.88 365.88,-233 430.5,-233"/>
<path fill="none" stroke="#ffffff" stroke-width="2" d="M286.5,-214.87C349.51,-214.06 364.27,-234.18 430.5,-235"/>
<path fill="none" stroke="#000000" stroke-width="2" d="M286.5,-216.87C347.9,-215.24 362.65,-235.37 430.5,-237"/>
</g>
<!-- X1&#45;&#45;W1 -->
<g id="edge3" class="edge">
<title>X1:e&#45;&#45;W1:w</title>
<path fill="none" stroke="#000000" stroke-width="2" d="M286.5,-185.13C353.51,-186.18 368.9,-200.3 430.5,-199.25"/>
<path fill="none" stroke="#00aa00" stroke-width="2" d="M286.5,-187.13C352.16,-187.65 367.55,-201.78 430.5,-201.25"/>
<path fill="none" stroke="#00aa00" stroke-width="2" d="M286.5,-189.13C350.81,-189.13 366.19,-203.25 430.5,-203.25"/>
<path fill="none" stroke="#00aa00" stroke-width="2" d="M286.5,-191.12C349.45,-190.6 364.84,-204.72 430.5,-205.25"/>
<path fill="none" stroke="#000000" stroke-width="2" d="M286.5,-193.12C348.1,-192.07 363.49,-206.2 430.5,-207.25"/>
</g>
<!-- X1&#45;&#45;W1 -->
<g id="edge5" class="edge">
<title>X1:e&#45;&#45;W1:w</title>
<path fill="none" stroke="#000000" stroke-width="2" d="M286.5,-161.38C352.43,-161.82 368.23,-169.94 430.5,-169.5"/>
<path fill="none" stroke="#ffffff" stroke-width="2" d="M286.5,-163.38C351.52,-163.6 367.31,-171.72 430.5,-171.5"/>
<path fill="none" stroke="#ff8000" stroke-width="2" d="M286.5,-165.38C350.6,-165.38 366.4,-173.5 430.5,-173.5"/>
<path fill="none" stroke="#ffffff" stroke-width="2" d="M286.5,-167.37C349.69,-167.15 365.48,-175.28 430.5,-175.5"/>
<path fill="none" stroke="#000000" stroke-width="2" d="M286.5,-169.37C348.77,-168.93 364.57,-177.06 430.5,-177.5"/>
</g>
<!-- X1&#45;&#45;W1 -->
<g id="edge7" class="edge">
<title>X1:e&#45;&#45;W1:w</title>
<path fill="none" stroke="#000000" stroke-width="2" d="M286.5,-137.63C351.03,-137.66 367.02,-139.78 430.5,-139.75"/>
<path fill="none" stroke="#0066ff" stroke-width="2" d="M286.5,-139.63C350.77,-139.64 366.76,-141.77 430.5,-141.75"/>
<path fill="none" stroke="#0066ff" stroke-width="2" d="M286.5,-141.63C350.51,-141.63 366.49,-143.75 430.5,-143.75"/>
<path fill="none" stroke="#0066ff" stroke-width="2" d="M286.5,-143.62C350.24,-143.61 366.23,-145.73 430.5,-145.75"/>
<path fill="none" stroke="#000000" stroke-width="2" d="M286.5,-145.62C349.98,-145.59 365.97,-147.72 430.5,-147.75"/>
</g>
<!-- X1&#45;&#45;W1 -->
<g id="edge9" class="edge">
<title>X1:e&#45;&#45;W1:w</title>
<path fill="none" stroke="#000000" stroke-width="2" d="M286.5,-113.88C349.58,-113.99 365.53,-110.11 430.5,-110"/>
<path fill="none" stroke="#ffffff" stroke-width="2" d="M286.5,-115.88C350.05,-115.93 366,-112.06 430.5,-112"/>
<path fill="none" stroke="#0066ff" stroke-width="2" d="M286.5,-117.87C350.52,-117.88 366.48,-114 430.5,-114"/>
<path fill="none" stroke="#ffffff" stroke-width="2" d="M286.5,-119.87C351,-119.82 366.95,-115.94 430.5,-116"/>
<path fill="none" stroke="#000000" stroke-width="2" d="M286.5,-121.87C351.47,-121.76 367.42,-117.89 430.5,-118"/>
</g>
<!-- X1&#45;&#45;W1 -->
<g id="edge11" class="edge">
<title>X1:e&#45;&#45;W1:w</title>
<path fill="none" stroke="#000000" stroke-width="2" d="M286.5,-90.13C348.52,-90.74 364.22,-80.86 430.5,-80.25"/>
<path fill="none" stroke="#ff8000" stroke-width="2" d="M286.5,-92.13C349.59,-92.43 365.28,-82.56 430.5,-82.25"/>
<path fill="none" stroke="#ff8000" stroke-width="2" d="M286.5,-94.12C350.65,-94.12 366.35,-84.25 430.5,-84.25"/>
<path fill="none" stroke="#ff8000" stroke-width="2" d="M286.5,-96.12C351.72,-95.82 367.41,-85.94 430.5,-86.25"/>
<path fill="none" stroke="#000000" stroke-width="2" d="M286.5,-98.12C352.78,-97.51 368.48,-87.64 430.5,-88.25"/>
</g>
<!-- X1&#45;&#45;W1 -->
<g id="edge13" class="edge">
<title>X1:e&#45;&#45;W1:w</title>
<path fill="none" stroke="#000000" stroke-width="2" d="M286.5,-66.38C348,-67.61 363.23,-51.73 430.5,-50.5"/>
<path fill="none" stroke="#ffffff" stroke-width="2" d="M286.5,-68.38C349.44,-68.99 364.67,-53.12 430.5,-52.5"/>
<path fill="none" stroke="#895956" stroke-width="2" d="M286.5,-70.38C350.89,-70.38 366.11,-54.5 430.5,-54.5"/>
<path fill="none" stroke="#ffffff" stroke-width="2" d="M286.5,-72.37C352.33,-71.76 367.56,-55.88 430.5,-56.5"/>
<path fill="none" stroke="#000000" stroke-width="2" d="M286.5,-74.37C353.77,-73.14 369,-57.27 430.5,-58.5"/>
</g>
<!-- X1&#45;&#45;W1 -->
<g id="edge15" class="edge">
<title>X1:e&#45;&#45;W1:w</title>
<path fill="none" stroke="#000000" stroke-width="2" d="M286.5,-42.63C347.9,-44.41 362.43,-22.54 430.5,-20.75"/>
<path fill="none" stroke="#895956" stroke-width="2" d="M286.5,-44.63C349.57,-45.52 364.1,-23.64 430.5,-22.75"/>
<path fill="none" stroke="#895956" stroke-width="2" d="M286.5,-46.62C351.23,-46.63 365.77,-24.75 430.5,-24.75"/>
<path fill="none" stroke="#895956" stroke-width="2" d="M286.5,-48.62C352.9,-47.73 367.43,-25.86 430.5,-26.75"/>
<path fill="none" stroke="#000000" stroke-width="2" d="M286.5,-50.62C354.57,-48.84 369.1,-26.96 430.5,-28.75"/>
</g>
<!-- X2 -->
<g id="node2" class="node">
<title>X2</title>
<polygon fill="#ffffff" stroke="black" points="1071.5,-286.25 785,-286.25 785,-48.75 1071.5,-48.75 1071.5,-286.25"/>
<polygon fill="#ffffff" stroke="none" points="785,-48.75 785,-286.25 1071.5,-286.25 1071.5,-48.75 785,-48.75"/>
<polygon fill="none" stroke="black" points="785,-262.5 785,-286.25 1071.5,-286.25 1071.5,-262.5 785,-262.5"/>
<text text-anchor="start" x="920" y="-268.95" font-family="arial" font-size="14.00">X2</text>
<polygon fill="none" stroke="black" points="785,-238.75 785,-262.5 995.5,-262.5 995.5,-238.75 785,-238.75"/>
<text text-anchor="start" x="789" y="-245.2" font-family="arial" font-size="14.00">Stewart Connector SS&#45;37000&#45;002</text>
<polygon fill="none" stroke="black" points="995.5,-238.75 995.5,-262.5 1033.5,-262.5 1033.5,-238.75 995.5,-238.75"/>
<text text-anchor="start" x="999.5" y="-245.2" font-family="arial" font-size="14.00">male</text>
<polygon fill="none" stroke="black" points="1033.5,-238.75 1033.5,-262.5 1071.5,-262.5 1071.5,-238.75 1033.5,-238.75"/>
<text text-anchor="start" x="1037.5" y="-245.2" font-family="arial" font-size="14.00">8&#45;pin</text>
<polygon fill="none" stroke="black" points="785,-215 785,-238.75 918.12,-238.75 918.12,-215 785,-215"/>
<text text-anchor="start" x="847.81" y="-221.45" font-family="arial" font-size="14.00">1</text>
<polygon fill="none" stroke="black" points="918.12,-215 918.12,-238.75 1071.5,-238.75 1071.5,-215 918.12,-215"/>
<text text-anchor="start" x="981.31" y="-221.45" font-family="arial" font-size="14.00">DB+</text>
<polygon fill="none" stroke="black" points="785,-191.25 785,-215 918.12,-215 918.12,-191.25 785,-191.25"/>
<text text-anchor="start" x="847.81" y="-197.7" font-family="arial" font-size="14.00">2</text>
<polygon fill="none" stroke="black" points="918.12,-191.25 918.12,-215 1071.5,-215 1071.5,-191.25 918.12,-191.25"/>
<text text-anchor="start" x="983.19" y="-197.7" font-family="arial" font-size="14.00">DB&#45;</text>
<polygon fill="none" stroke="black" points="785,-167.5 785,-191.25 918.12,-191.25 918.12,-167.5 785,-167.5"/>
<text text-anchor="start" x="847.81" y="-173.95" font-family="arial" font-size="14.00">3</text>
<polygon fill="none" stroke="black" points="918.12,-167.5 918.12,-191.25 1071.5,-191.25 1071.5,-167.5 918.12,-167.5"/>
<text text-anchor="start" x="981.31" y="-173.95" font-family="arial" font-size="14.00">DA+</text>
<polygon fill="none" stroke="black" points="785,-143.75 785,-167.5 918.12,-167.5 918.12,-143.75 785,-143.75"/>
<text text-anchor="start" x="847.81" y="-150.2" font-family="arial" font-size="14.00">4</text>
<polygon fill="none" stroke="black" points="918.12,-143.75 918.12,-167.5 1071.5,-167.5 1071.5,-143.75 918.12,-143.75"/>
<text text-anchor="start" x="980.94" y="-150.2" font-family="arial" font-size="14.00">DD+</text>
<polygon fill="none" stroke="black" points="785,-120 785,-143.75 918.12,-143.75 918.12,-120 785,-120"/>
<text text-anchor="start" x="847.81" y="-126.45" font-family="arial" font-size="14.00">5</text>
<polygon fill="none" stroke="black" points="918.12,-120 918.12,-143.75 1071.5,-143.75 1071.5,-120 918.12,-120"/>
<text text-anchor="start" x="982.81" y="-126.45" font-family="arial" font-size="14.00">DD&#45;</text>
<polygon fill="none" stroke="black" points="785,-96.25 785,-120 918.12,-120 918.12,-96.25 785,-96.25"/>
<text text-anchor="start" x="847.81" y="-102.7" font-family="arial" font-size="14.00">6</text>
<polygon fill="none" stroke="black" points="918.12,-96.25 918.12,-120 1071.5,-120 1071.5,-96.25 918.12,-96.25"/>
<text text-anchor="start" x="983.19" y="-102.7" font-family="arial" font-size="14.00">DA&#45;</text>
<polygon fill="none" stroke="black" points="785,-72.5 785,-96.25 918.12,-96.25 918.12,-72.5 785,-72.5"/>
<text text-anchor="start" x="847.81" y="-78.95" font-family="arial" font-size="14.00">7</text>
<polygon fill="none" stroke="black" points="918.12,-72.5 918.12,-96.25 1071.5,-96.25 1071.5,-72.5 918.12,-72.5"/>
<text text-anchor="start" x="980.94" y="-78.95" font-family="arial" font-size="14.00">DC+</text>
<polygon fill="none" stroke="black" points="785,-48.75 785,-72.5 918.12,-72.5 918.12,-48.75 785,-48.75"/>
<text text-anchor="start" x="847.81" y="-55.2" font-family="arial" font-size="14.00">8</text>
<polygon fill="none" stroke="black" points="918.12,-48.75 918.12,-72.5 1071.5,-72.5 1071.5,-48.75 918.12,-48.75"/>
<text text-anchor="start" x="982.81" y="-55.2" font-family="arial" font-size="14.00">DC&#45;</text>
</g>
<!-- W1&#45;&#45;X2 -->
<g id="edge2" class="edge">
<title>W1:e&#45;&#45;X2:w</title>
<path fill="none" stroke="#000000" stroke-width="2" d="M641,-229C705.33,-232.45 712.74,-178.83 785,-175.38"/>
<path fill="none" stroke="#ffffff" stroke-width="2" d="M641,-231C707.31,-232.73 714.73,-179.1 785,-177.38"/>
<path fill="none" stroke="#00aa00" stroke-width="2" d="M641,-233C709.29,-233 716.71,-179.38 785,-179.38"/>
<path fill="none" stroke="#ffffff" stroke-width="2" d="M641,-235C711.27,-233.27 718.69,-179.65 785,-181.37"/>
<path fill="none" stroke="#000000" stroke-width="2" d="M641,-237C713.26,-233.55 720.67,-179.92 785,-183.37"/>
</g>
<!-- W1&#45;&#45;X2 -->
<g id="edge4" class="edge">
<title>W1:e&#45;&#45;X2:w</title>
<path fill="none" stroke="#000000" stroke-width="2" d="M641,-199.25C713.72,-203.64 704.32,-108.52 785,-104.13"/>
<path fill="none" stroke="#00aa00" stroke-width="2" d="M641,-201.25C715.71,-203.45 706.31,-108.32 785,-106.13"/>
<path fill="none" stroke="#00aa00" stroke-width="2" d="M641,-203.25C717.7,-203.25 708.3,-108.13 785,-108.12"/>
<path fill="none" stroke="#00aa00" stroke-width="2" d="M641,-205.25C719.69,-203.05 710.29,-107.93 785,-110.12"/>
<path fill="none" stroke="#000000" stroke-width="2" d="M641,-207.25C721.68,-202.86 712.28,-107.73 785,-112.12"/>
</g>
<!-- W1&#45;&#45;X2 -->
<g id="edge6" class="edge">
<title>W1:e&#45;&#45;X2:w</title>
<path fill="none" stroke="#000000" stroke-width="2" d="M641,-169.5C713.22,-172.94 720.71,-226.32 785,-222.88"/>
<path fill="none" stroke="#ffffff" stroke-width="2" d="M641,-171.5C711.24,-173.22 718.73,-226.6 785,-224.88"/>
<path fill="none" stroke="#ff8000" stroke-width="2" d="M641,-173.5C709.25,-173.5 716.75,-226.87 785,-226.88"/>
<path fill="none" stroke="#ffffff" stroke-width="2" d="M641,-175.5C707.27,-173.78 714.76,-227.15 785,-228.87"/>
<path fill="none" stroke="#000000" stroke-width="2" d="M641,-177.5C705.29,-174.06 712.78,-227.43 785,-230.87"/>
</g>
<!-- W1&#45;&#45;X2 -->
<g id="edge8" class="edge">
<title>W1:e&#45;&#45;X2:w</title>
<path fill="none" stroke="#000000" stroke-width="2" d="M641,-139.75C706.24,-143.38 711.79,-84 785,-80.38"/>
<path fill="none" stroke="#0066ff" stroke-width="2" d="M641,-141.75C708.24,-143.56 713.78,-84.19 785,-82.38"/>
<path fill="none" stroke="#0066ff" stroke-width="2" d="M641,-143.75C710.23,-143.75 715.77,-84.37 785,-84.38"/>
<path fill="none" stroke="#0066ff" stroke-width="2" d="M641,-145.75C712.22,-143.94 717.76,-84.56 785,-86.37"/>
<path fill="none" stroke="#000000" stroke-width="2" d="M641,-147.75C714.21,-144.12 719.76,-84.75 785,-88.37"/>
</g>
<!-- W1&#45;&#45;X2 -->
<g id="edge10" class="edge">
<title>W1:e&#45;&#45;X2:w</title>
<path fill="none" stroke="#000000" stroke-width="2" d="M641,-110C705.29,-113.44 712.78,-60.07 785,-56.63"/>
<path fill="none" stroke="#ffffff" stroke-width="2" d="M641,-112C707.27,-113.72 714.76,-60.35 785,-58.63"/>
<path fill="none" stroke="#0066ff" stroke-width="2" d="M641,-114C709.25,-114 716.75,-60.63 785,-60.62"/>
<path fill="none" stroke="#ffffff" stroke-width="2" d="M641,-116C711.24,-114.28 718.73,-60.9 785,-62.62"/>
<path fill="none" stroke="#000000" stroke-width="2" d="M641,-118C713.22,-114.56 720.71,-61.18 785,-64.62"/>
</g>
<!-- W1&#45;&#45;X2 -->
<g id="edge12" class="edge">
<title>W1:e&#45;&#45;X2:w</title>
<path fill="none" stroke="#000000" stroke-width="2" d="M641,-80.25C727.92,-84.98 705.94,-203.85 785,-199.13"/>
<path fill="none" stroke="#ff8000" stroke-width="2" d="M641,-82.25C725.96,-84.61 703.98,-203.49 785,-201.13"/>
<path fill="none" stroke="#ff8000" stroke-width="2" d="M641,-84.25C723.99,-84.25 702.01,-203.12 785,-203.13"/>
<path fill="none" stroke="#ff8000" stroke-width="2" d="M641,-86.25C722.02,-83.89 700.04,-202.76 785,-205.12"/>
<path fill="none" stroke="#000000" stroke-width="2" d="M641,-88.25C720.06,-83.52 698.08,-202.4 785,-207.12"/>
</g>
<!-- W1&#45;&#45;X2 -->
<g id="edge14" class="edge">
<title>W1:e&#45;&#45;X2:w</title>
<path fill="none" stroke="#000000" stroke-width="2" d="M641,-50.5C723.18,-54.99 710.77,-156.11 785,-151.63"/>
<path fill="none" stroke="#ffffff" stroke-width="2" d="M641,-52.5C721.19,-54.74 708.78,-155.87 785,-153.63"/>
<path fill="none" stroke="#895956" stroke-width="2" d="M641,-54.5C719.2,-54.5 706.8,-155.62 785,-155.62"/>
<path fill="none" stroke="#ffffff" stroke-width="2" d="M641,-56.5C717.22,-54.26 704.81,-155.38 785,-157.62"/>
<path fill="none" stroke="#000000" stroke-width="2" d="M641,-58.5C715.23,-54.01 702.82,-155.14 785,-159.62"/>
</g>
<!-- W1&#45;&#45;X2 -->
<g id="edge16" class="edge">
<title>W1:e&#45;&#45;X2:w</title>
<path fill="none" stroke="#000000" stroke-width="2" d="M641,-20.75C724.73,-25.32 709.19,-132.45 785,-127.88"/>
<path fill="none" stroke="#895956" stroke-width="2" d="M641,-22.75C722.75,-25.04 707.21,-132.16 785,-129.88"/>
<path fill="none" stroke="#895956" stroke-width="2" d="M641,-24.75C720.77,-24.75 705.23,-131.88 785,-131.88"/>
<path fill="none" stroke="#895956" stroke-width="2" d="M641,-26.75C718.79,-24.46 703.25,-131.59 785,-133.87"/>
<path fill="none" stroke="#000000" stroke-width="2" d="M641,-28.75C716.81,-24.18 701.27,-131.3 785,-135.87"/>
</g>
</g>
</svg>
