<?xml version="1.0" encoding="UTF-8" standalone="no"?>
<!DOCTYPE svg PUBLIC "-//W3C//DTD SVG 1.1//EN"
 "http://www.w3.org/Graphics/SVG/1.1/DTD/svg11.dtd">
<!-- Generated by graphviz version 11.0.0 (20240428.1522)
 -->
<!-- Pages: 1 -->
<svg width="1115pt" height="305pt"
 viewBox="0.00 0.00 1115.00 305.00" xmlns="http://www.w3.org/2000/svg" xmlns:xlink="http://www.w3.org/1999/xlink">
<g id="graph0" class="graph" transform="scale(1 1) rotate(0) translate(4 301)">
<polygon fill="#ffffff" stroke="none" points="-4,4 -4,-301 1111,-301 1111,4 -4,4"/>
<!-- X1 -->
<g id="node1" class="node">
<title>X1</title>
<polygon fill="#ffffff" stroke="black" points="301.5,-259 0,-259 0,-18 301.5,-18 301.5,-259"/>
<polygon fill="#ffffff" stroke="none" points="0,-18 0,-259 301.5,-259 301.5,-18 0,-18"/>
<polygon fill="none" stroke="black" points="0,-234.5 0,-259 301.5,-259 301.5,-234.5 0,-234.5"/>
<text text-anchor="start" x="141.75" y="-241.7" font-family="arial" font-size="14.00">X1</text>
<polygon fill="none" stroke="black" points="0,-210 0,-234.5 223.25,-234.5 223.25,-210 0,-210"/>
<text text-anchor="start" x="4" y="-217.2" font-family="arial" font-size="14.00">Stewart Connector SS&#45;37000&#45;002</text>
<polygon fill="none" stroke="black" points="223.25,-210 223.25,-234.5 262,-234.5 262,-210 223.25,-210"/>
<text text-anchor="start" x="227.25" y="-217.2" font-family="arial" font-size="14.00">male</text>
<polygon fill="none" stroke="black" points="262,-210 262,-234.5 301.5,-234.5 301.5,-210 262,-210"/>
<text text-anchor="start" x="266" y="-217.2" font-family="arial" font-size="14.00">8&#45;pin</text>
<polygon fill="none" stroke="black" points="0,-186 0,-210 161.25,-210 161.25,-186 0,-186"/>
<text text-anchor="start" x="66.38" y="-192.7" font-family="arial" font-size="14.00">DA+</text>
<polygon fill="none" stroke="black" points="161.25,-186 161.25,-210 301.5,-210 301.5,-186 161.25,-186"/>
<text text-anchor="start" x="227.25" y="-192.7" font-family="arial" font-size="14.00">1</text>
<polygon fill="none" stroke="black" points="0,-162 0,-186 161.25,-186 161.25,-162 0,-162"/>
<text text-anchor="start" x="68.25" y="-168.7" font-family="arial" font-size="14.00">DA&#45;</text>
<polygon fill="none" stroke="black" points="161.25,-162 161.25,-186 301.5,-186 301.5,-162 161.25,-162"/>
<text text-anchor="start" x="227.25" y="-168.7" font-family="arial" font-size="14.00">2</text>
<polygon fill="none" stroke="black" points="0,-138 0,-162 161.25,-162 161.25,-138 0,-138"/>
<text text-anchor="start" x="66.38" y="-144.7" font-family="arial" font-size="14.00">DB+</text>
<polygon fill="none" stroke="black" points="161.25,-138 161.25,-162 301.5,-162 301.5,-138 161.25,-138"/>
<text text-anchor="start" x="227.25" y="-144.7" font-family="arial" font-size="14.00">3</text>
<polygon fill="none" stroke="black" points="0,-114 0,-138 161.25,-138 161.25,-114 0,-114"/>
<text text-anchor="start" x="66" y="-120.7" font-family="arial" font-size="14.00">DC+</text>
<polygon fill="none" stroke="black" points="161.25,-114 161.25,-138 301.5,-138 301.5,-114 161.25,-114"/>
<text text-anchor="start" x="227.25" y="-120.7" font-family="arial" font-size="14.00">4</text>
<polygon fill="none" stroke="black" points="0,-90 0,-114 161.25,-114 161.25,-90 0,-90"/>
<text text-anchor="start" x="67.88" y="-96.7" font-family="arial" font-size="14.00">DC&#45;</text>
<polygon fill="none" stroke="black" points="161.25,-90 161.25,-114 301.5,-114 301.5,-90 161.25,-90"/>
<text text-anchor="start" x="227.25" y="-96.7" font-family="arial" font-size="14.00">5</text>
<polygon fill="none" stroke="black" points="0,-66 0,-90 161.25,-90 161.25,-66 0,-66"/>
<text text-anchor="start" x="68.25" y="-72.7" font-family="arial" font-size="14.00">DB&#45;</text>
<polygon fill="none" stroke="black" points="161.25,-66 161.25,-90 301.5,-90 301.5,-66 161.25,-66"/>
<text text-anchor="start" x="227.25" y="-72.7" font-family="arial" font-size="14.00">6</text>
<polygon fill="none" stroke="black" points="0,-42 0,-66 161.25,-66 161.25,-42 0,-42"/>
<text text-anchor="start" x="66" y="-48.7" font-family="arial" font-size="14.00">DD+</text>
<polygon fill="none" stroke="black" points="161.25,-42 161.25,-66 301.5,-66 301.5,-42 161.25,-42"/>
<text text-anchor="start" x="227.25" y="-48.7" font-family="arial" font-size="14.00">7</text>
<polygon fill="none" stroke="black" points="0,-18 0,-42 161.25,-42 161.25,-18 0,-18"/>
<text text-anchor="start" x="67.88" y="-24.7" font-family="arial" font-size="14.00">DD&#45;</text>
<polygon fill="none" stroke="black" points="161.25,-18 161.25,-42 301.5,-42 301.5,-18 161.25,-18"/>
<text text-anchor="start" x="227.25" y="-24.7" font-family="arial" font-size="14.00">8</text>
</g>
<!-- W1 -->
<g id="node2" class="node">
<title>W1</title>
<polygon fill="#ffffff" stroke="black" points="661.5,-297 445.5,-297 445.5,0 661.5,0 661.5,-297"/>
<polygon fill="#ffffff" stroke="none" points="445.5,0 445.5,-297 661.5,-297 661.5,0 445.5,0"/>
<polygon fill="none" stroke="black" points="445.5,-272.5 445.5,-297 661.5,-297 661.5,-272.5 445.5,-272.5"/>
<text text-anchor="start" x="542.25" y="-279.7" font-family="arial" font-size="14.00">W1</text>
<polygon fill="none" stroke="black" points="445.5,-248 445.5,-272.5 510.19,-272.5 510.19,-248 445.5,-248"/>
<text text-anchor="start" x="454.97" y="-255.2" font-family="arial" font-size="14.00">CAT5e</text>
<polygon fill="none" stroke="black" points="510.19,-248 510.19,-272.5 544.12,-272.5 544.12,-248 510.19,-248"/>
<text text-anchor="start" x="519.66" y="-255.2" font-family="arial" font-size="14.00">8x</text>
<polygon fill="none" stroke="black" points="544.12,-248 544.12,-272.5 618.56,-272.5 618.56,-248 544.12,-248"/>
<text text-anchor="start" x="553.59" y="-255.2" font-family="arial" font-size="14.00">24 AWG</text>
<polygon fill="none" stroke="black" points="618.56,-248 618.56,-272.5 661.5,-272.5 661.5,-248 618.56,-248"/>
<text text-anchor="start" x="628.03" y="-255.2" font-family="arial" font-size="14.00">1 m</text>
<text text-anchor="start" x="478.62" y="-232.7" font-family="arial" font-size="14.00"> </text>
<text text-anchor="start" x="447.5" y="-212.7" font-family="arial" font-size="14.00"> X1:1:DA+</text>
<text text-anchor="start" x="517.12" y="-212.7" font-family="arial" font-size="14.00"> </text>
<text text-anchor="start" x="525" y="-212.7" font-family="arial" font-size="14.00">1:WHGN</text>
<text text-anchor="start" x="586.12" y="-212.7" font-family="arial" font-size="14.00"> </text>
<text text-anchor="start" x="593.5" y="-212.7" font-family="arial" font-size="14.00">X2:3:DA+ </text>
<text text-anchor="start" x="447.5" y="-186.7" font-family="arial" font-size="14.00"> X1:2:DA&#45;</text>
<text text-anchor="start" x="517.12" y="-186.7" font-family="arial" font-size="14.00"> </text>
<text text-anchor="start" x="537" y="-186.7" font-family="arial" font-size="14.00">2:GN</text>
<text text-anchor="start" x="586.12" y="-186.7" font-family="arial" font-size="14.00"> </text>
<text text-anchor="start" x="597.25" y="-186.7" font-family="arial" font-size="14.00">X2:6:DA&#45; </text>
<text text-anchor="start" x="447.5" y="-160.7" font-family="arial" font-size="14.00"> X1:3:DB+</text>
<text text-anchor="start" x="517.12" y="-160.7" font-family="arial" font-size="14.00"> </text>
<text text-anchor="start" x="524.25" y="-160.7" font-family="arial" font-size="14.00">3:WHOG</text>
<text text-anchor="start" x="586.12" y="-160.7" font-family="arial" font-size="14.00"> </text>
<text text-anchor="start" x="593.5" y="-160.7" font-family="arial" font-size="14.00">X2:1:DB+ </text>
<text text-anchor="start" x="447.12" y="-134.7" font-family="arial" font-size="14.00"> X1:4:DC+</text>
<text text-anchor="start" x="517.12" y="-134.7" font-family="arial" font-size="14.00"> </text>
<text text-anchor="start" x="537.75" y="-134.7" font-family="arial" font-size="14.00">4:BU</text>
<text text-anchor="start" x="586.12" y="-134.7" font-family="arial" font-size="14.00"> </text>
<text text-anchor="start" x="593.12" y="-134.7" font-family="arial" font-size="14.00">X2:7:DC+ </text>
<text text-anchor="start" x="447.5" y="-108.7" font-family="arial" font-size="14.00"> X1:5:DC&#45;</text>
<text text-anchor="start" x="517.12" y="-108.7" font-family="arial" font-size="14.00"> </text>
<text text-anchor="start" x="525.75" y="-108.7" font-family="arial" font-size="14.00">5:WHBU</text>
<text text-anchor="start" x="586.12" y="-108.7" font-family="arial" font-size="14.00"> </text>
<text text-anchor="start" x="596.5" y="-108.7" font-family="arial" font-size="14.00">X2:8:DC&#45; </text>
<text text-anchor="start" x="447.5" y="-82.7" font-family="arial" font-size="14.00"> X1:6:DB&#45;</text>
<text text-anchor="start" x="517.12" y="-82.7" font-family="arial" font-size="14.00"> </text>
<text text-anchor="start" x="536.25" y="-82.7" font-family="arial" font-size="14.00">6:OG</text>
<text text-anchor="start" x="586.12" y="-82.7" font-family="arial" font-size="14.00"> </text>
<text text-anchor="start" x="597.25" y="-82.7" font-family="arial" font-size="14.00">X2:2:DB&#45; </text>
<text text-anchor="start" x="447.12" y="-56.7" font-family="arial" font-size="14.00"> X1:7:DD+</text>
<text text-anchor="start" x="517.12" y="-56.7" font-family="arial" font-size="14.00"> </text>
<text text-anchor="start" x="525.75" y="-56.7" font-family="arial" font-size="14.00">7:WHBN</text>
<text text-anchor="start" x="586.12" y="-56.7" font-family="arial" font-size="14.00"> </text>
<text text-anchor="start" x="593.12" y="-56.7" font-family="arial" font-size="14.00">X2:4:DD+ </text>
<text text-anchor="start" x="447.5" y="-30.7" font-family="arial" font-size="14.00"> X1:8:DD&#45;</text>
<text text-anchor="start" x="517.12" y="-30.7" font-family="arial" font-size="14.00"> </text>
<text text-anchor="start" x="537.75" y="-30.7" font-family="arial" font-size="14.00">8:BN</text>
<text text-anchor="start" x="586.12" y="-30.7" font-family="arial" font-size="14.00"> </text>
<text text-anchor="start" x="596.5" y="-30.7" font-family="arial" font-size="14.00">X2:5:DD&#45; </text>
<text text-anchor="start" x="478.62" y="-4.7" font-family="arial" font-size="14.00"> </text>
</g>
<!-- X1&#45;&#45;W1 -->
<g id="edge1" class="edge">
<title>X1:e&#45;&#45;W1:w</title>
<path fill="none" stroke="#000000" stroke-width="2" d="M301.5,-194C367.2,-194.34 383.04,-201.34 445.5,-201"/>
<path fill="none" stroke="#ffffff" stroke-width="2" d="M301.5,-196C366.39,-196.17 382.23,-203.17 445.5,-203"/>
<path fill="none" stroke="#00aa00" stroke-width="2" d="M301.5,-198C365.58,-198 381.42,-205 445.5,-205"/>
<path fill="none" stroke="#ffffff" stroke-width="2" d="M301.5,-200C364.77,-199.83 380.61,-206.83 445.5,-207"/>
<path fill="none" stroke="#000000" stroke-width="2" d="M301.5,-202C363.96,-201.66 379.8,-208.66 445.5,-209"/>
</g>
<!-- X1&#45;&#45;W1 -->
<g id="edge2" class="edge">
<title>X1:e&#45;&#45;W1:w</title>
<path fill="none" stroke="#000000" stroke-width="2" d="M301.5,-170C366.74,-170.18 382.66,-175.18 445.5,-175"/>
<path fill="none" stroke="#00aa00" stroke-width="2" d="M301.5,-172C366.14,-172.09 382.06,-177.09 445.5,-177"/>
<path fill="none" stroke="#00aa00" stroke-width="2" d="M301.5,-174C365.54,-174 381.46,-179 445.5,-179"/>
<path fill="none" stroke="#00aa00" stroke-width="2" d="M301.5,-176C364.94,-175.91 380.86,-180.91 445.5,-181"/>
<path fill="none" stroke="#000000" stroke-width="2" d="M301.5,-178C364.34,-177.82 380.26,-182.82 445.5,-183"/>
</g>
<!-- X1&#45;&#45;W1 -->
<g id="edge3" class="edge">
<title>X1:e&#45;&#45;W1:w</title>
<path fill="none" stroke="#000000" stroke-width="2" d="M301.5,-146C366.25,-146.07 382.23,-149.07 445.5,-149"/>
<path fill="none" stroke="#ffffff" stroke-width="2" d="M301.5,-148C365.88,-148.03 381.86,-151.03 445.5,-151"/>
<path fill="none" stroke="#ff8000" stroke-width="2" d="M301.5,-150C365.51,-150 381.49,-153 445.5,-153"/>
<path fill="none" stroke="#ffffff" stroke-width="2" d="M301.5,-152C365.14,-151.97 381.12,-154.97 445.5,-155"/>
<path fill="none" stroke="#000000" stroke-width="2" d="M301.5,-154C364.77,-153.93 380.75,-156.93 445.5,-157"/>
</g>
<!-- X1&#45;&#45;W1 -->
<g id="edge4" class="edge">
<title>X1:e&#45;&#45;W1:w</title>
<path fill="none" stroke="#000000" stroke-width="2" d="M301.5,-122C365.75,-122.01 381.75,-123.01 445.5,-123"/>
<path fill="none" stroke="#0066ff" stroke-width="2" d="M301.5,-124C365.62,-124 381.62,-125 445.5,-125"/>
<path fill="none" stroke="#0066ff" stroke-width="2" d="M301.5,-126C365.5,-126 381.5,-127 445.5,-127"/>
<path fill="none" stroke="#0066ff" stroke-width="2" d="M301.5,-128C365.38,-128 381.38,-129 445.5,-129"/>
<path fill="none" stroke="#000000" stroke-width="2" d="M301.5,-130C365.25,-129.99 381.25,-130.99 445.5,-131"/>
</g>
<!-- X1&#45;&#45;W1 -->
<g id="edge5" class="edge">
<title>X1:e&#45;&#45;W1:w</title>
<path fill="none" stroke="#000000" stroke-width="2" d="M301.5,-98C365.25,-98.01 381.25,-97.01 445.5,-97"/>
<path fill="none" stroke="#ffffff" stroke-width="2" d="M301.5,-100C365.38,-100 381.38,-99 445.5,-99"/>
<path fill="none" stroke="#0066ff" stroke-width="2" d="M301.5,-102C365.5,-102 381.5,-101 445.5,-101"/>
<path fill="none" stroke="#ffffff" stroke-width="2" d="M301.5,-104C365.62,-104 381.62,-103 445.5,-103"/>
<path fill="none" stroke="#000000" stroke-width="2" d="M301.5,-106C365.75,-105.99 381.75,-104.99 445.5,-105"/>
</g>
<!-- X1&#45;&#45;W1 -->
<g id="edge6" class="edge">
<title>X1:e&#45;&#45;W1:w</title>
<path fill="none" stroke="#000000" stroke-width="2" d="M301.5,-74C364.77,-74.07 380.75,-71.07 445.5,-71"/>
<path fill="none" stroke="#ff8000" stroke-width="2" d="M301.5,-76C365.14,-76.03 381.12,-73.03 445.5,-73"/>
<path fill="none" stroke="#ff8000" stroke-width="2" d="M301.5,-78C365.51,-78 381.49,-75 445.5,-75"/>
<path fill="none" stroke="#ff8000" stroke-width="2" d="M301.5,-80C365.88,-79.97 381.86,-76.97 445.5,-77"/>
<path fill="none" stroke="#000000" stroke-width="2" d="M301.5,-82C366.25,-81.93 382.23,-78.93 445.5,-79"/>
</g>
<!-- X1&#45;&#45;W1 -->
<g id="edge7" class="edge">
<title>X1:e&#45;&#45;W1:w</title>
<path fill="none" stroke="#000000" stroke-width="2" d="M301.5,-50C364.34,-50.18 380.26,-45.18 445.5,-45"/>
<path fill="none" stroke="#ffffff" stroke-width="2" d="M301.5,-52C364.94,-52.09 380.86,-47.09 445.5,-47"/>
<path fill="none" stroke="#895956" stroke-width="2" d="M301.5,-54C365.54,-54 381.46,-49 445.5,-49"/>
<path fill="none" stroke="#ffffff" stroke-width="2" d="M301.5,-56C366.14,-55.91 382.06,-50.91 445.5,-51"/>
<path fill="none" stroke="#000000" stroke-width="2" d="M301.5,-58C366.74,-57.82 382.66,-52.82 445.5,-53"/>
</g>
<!-- X1&#45;&#45;W1 -->
<g id="edge8" class="edge">
<title>X1:e&#45;&#45;W1:w</title>
<path fill="none" stroke="#000000" stroke-width="2" d="M301.5,-26C363.96,-26.34 379.8,-19.34 445.5,-19"/>
<path fill="none" stroke="#895956" stroke-width="2" d="M301.5,-28C364.77,-28.17 380.61,-21.17 445.5,-21"/>
<path fill="none" stroke="#895956" stroke-width="2" d="M301.5,-30C365.58,-30 381.42,-23 445.5,-23"/>
<path fill="none" stroke="#895956" stroke-width="2" d="M301.5,-32C366.39,-31.83 382.23,-24.83 445.5,-25"/>
<path fill="none" stroke="#000000" stroke-width="2" d="M301.5,-34C367.2,-33.66 383.04,-26.66 445.5,-27"/>
</g>
<!-- W1&#45;&#45;W1 -->
<g id="edge9" class="edge">
<title>W1:e&#45;&#45;W1:w</title>
<path fill="none" stroke="#000000" stroke-width="2" d="M661.5,-209C589.5,-209 517.5,-209 445.5,-209"/>
<path fill="none" stroke="#ffffff" stroke-width="2" d="M661.5,-207C589.5,-207 517.5,-207 445.5,-207"/>
<path fill="none" stroke="#00aa00" stroke-width="2" d="M661.5,-205C589.5,-205 517.5,-205 445.5,-205"/>
<path fill="none" stroke="#ffffff" stroke-width="2" d="M661.5,-203C589.5,-203 517.5,-203 445.5,-203"/>
<path fill="none" stroke="#000000" stroke-width="2" d="M661.5,-201C589.5,-201 517.5,-201 445.5,-201"/>
</g>
<!-- W1&#45;&#45;W1 -->
<g id="edge10" class="edge">
<title>W1:e&#45;&#45;W1:w</title>
<path fill="none" stroke="#000000" stroke-width="2" d="M661.5,-183C589.5,-183 517.5,-183 445.5,-183"/>
<path fill="none" stroke="#00aa00" stroke-width="2" d="M661.5,-181C589.5,-181 517.5,-181 445.5,-181"/>
<path fill="none" stroke="#00aa00" stroke-width="2" d="M661.5,-179C589.5,-179 517.5,-179 445.5,-179"/>
<path fill="none" stroke="#00aa00" stroke-width="2" d="M661.5,-177C589.5,-177 517.5,-177 445.5,-177"/>
<path fill="none" stroke="#000000" stroke-width="2" d="M661.5,-175C589.5,-175 517.5,-175 445.5,-175"/>
</g>
<!-- W1&#45;&#45;W1 -->
<g id="edge11" class="edge">
<title>W1:e&#45;&#45;W1:w</title>
<path fill="none" stroke="#000000" stroke-width="2" d="M661.5,-157C589.5,-157 517.5,-157 445.5,-157"/>
<path fill="none" stroke="#ffffff" stroke-width="2" d="M661.5,-155C589.5,-155 517.5,-155 445.5,-155"/>
<path fill="none" stroke="#ff8000" stroke-width="2" d="M661.5,-153C589.5,-153 517.5,-153 445.5,-153"/>
<path fill="none" stroke="#ffffff" stroke-width="2" d="M661.5,-151C589.5,-151 517.5,-151 445.5,-151"/>
<path fill="none" stroke="#000000" stroke-width="2" d="M661.5,-149C589.5,-149 517.5,-149 445.5,-149"/>
</g>
<!-- W1&#45;&#45;W1 -->
<g id="edge12" class="edge">
<title>W1:e&#45;&#45;W1:w</title>
<path fill="none" stroke="#000000" stroke-width="2" d="M661.5,-131C589.5,-131 517.5,-131 445.5,-131"/>
<path fill="none" stroke="#0066ff" stroke-width="2" d="M661.5,-129C589.5,-129 517.5,-129 445.5,-129"/>
<path fill="none" stroke="#0066ff" stroke-width="2" d="M661.5,-127C589.5,-127 517.5,-127 445.5,-127"/>
<path fill="none" stroke="#0066ff" stroke-width="2" d="M661.5,-125C589.5,-125 517.5,-125 445.5,-125"/>
<path fill="none" stroke="#000000" stroke-width="2" d="M661.5,-123C589.5,-123 517.5,-123 445.5,-123"/>
</g>
<!-- W1&#45;&#45;W1 -->
<g id="edge13" class="edge">
<title>W1:e&#45;&#45;W1:w</title>
<path fill="none" stroke="#000000" stroke-width="2" d="M661.5,-105C589.5,-105 517.5,-105 445.5,-105"/>
<path fill="none" stroke="#ffffff" stroke-width="2" d="M661.5,-103C589.5,-103 517.5,-103 445.5,-103"/>
<path fill="none" stroke="#0066ff" stroke-width="2" d="M661.5,-101C589.5,-101 517.5,-101 445.5,-101"/>
<path fill="none" stroke="#ffffff" stroke-width="2" d="M661.5,-99C589.5,-99 517.5,-99 445.5,-99"/>
<path fill="none" stroke="#000000" stroke-width="2" d="M661.5,-97C589.5,-97 517.5,-97 445.5,-97"/>
</g>
<!-- W1&#45;&#45;W1 -->
<g id="edge14" class="edge">
<title>W1:e&#45;&#45;W1:w</title>
<path fill="none" stroke="#000000" stroke-width="2" d="M661.5,-79C589.5,-79 517.5,-79 445.5,-79"/>
<path fill="none" stroke="#ff8000" stroke-width="2" d="M661.5,-77C589.5,-77 517.5,-77 445.5,-77"/>
<path fill="none" stroke="#ff8000" stroke-width="2" d="M661.5,-75C589.5,-75 517.5,-75 445.5,-75"/>
<path fill="none" stroke="#ff8000" stroke-width="2" d="M661.5,-73C589.5,-73 517.5,-73 445.5,-73"/>
<path fill="none" stroke="#000000" stroke-width="2" d="M661.5,-71C589.5,-71 517.5,-71 445.5,-71"/>
</g>
<!-- W1&#45;&#45;W1 -->
<g id="edge15" class="edge">
<title>W1:e&#45;&#45;W1:w</title>
<path fill="none" stroke="#000000" stroke-width="2" d="M661.5,-53C589.5,-53 517.5,-53 445.5,-53"/>
<path fill="none" stroke="#ffffff" stroke-width="2" d="M661.5,-51C589.5,-51 517.5,-51 445.5,-51"/>
<path fill="none" stroke="#895956" stroke-width="2" d="M661.5,-49C589.5,-49 517.5,-49 445.5,-49"/>
<path fill="none" stroke="#ffffff" stroke-width="2" d="M661.5,-47C589.5,-47 517.5,-47 445.5,-47"/>
<path fill="none" stroke="#000000" stroke-width="2" d="M661.5,-45C589.5,-45 517.5,-45 445.5,-45"/>
</g>
<!-- W1&#45;&#45;W1 -->
<g id="edge16" class="edge">
<title>W1:e&#45;&#45;W1:w</title>
<path fill="none" stroke="#000000" stroke-width="2" d="M661.5,-27C589.5,-27 517.5,-27 445.5,-27"/>
<path fill="none" stroke="#895956" stroke-width="2" d="M661.5,-25C589.5,-25 517.5,-25 445.5,-25"/>
<path fill="none" stroke="#895956" stroke-width="2" d="M661.5,-23C589.5,-23 517.5,-23 445.5,-23"/>
<path fill="none" stroke="#895956" stroke-width="2" d="M661.5,-21C589.5,-21 517.5,-21 445.5,-21"/>
<path fill="none" stroke="#000000" stroke-width="2" d="M661.5,-19C589.5,-19 517.5,-19 445.5,-19"/>
</g>
<!-- X2 -->
<g id="node3" class="node">
<title>X2</title>
<polygon fill="#ffffff" stroke="black" points="1107,-264 805.5,-264 805.5,-23 1107,-23 1107,-264"/>
<polygon fill="#ffffff" stroke="none" points="805.5,-23 805.5,-264 1107,-264 1107,-23 805.5,-23"/>
<polygon fill="none" stroke="black" points="805.5,-239.5 805.5,-264 1107,-264 1107,-239.5 805.5,-239.5"/>
<text text-anchor="start" x="947.25" y="-246.7" font-family="arial" font-size="14.00">X2</text>
<polygon fill="none" stroke="black" points="805.5,-215 805.5,-239.5 1028.75,-239.5 1028.75,-215 805.5,-215"/>
<text text-anchor="start" x="809.5" y="-222.2" font-family="arial" font-size="14.00">Stewart Connector SS&#45;37000&#45;002</text>
<polygon fill="none" stroke="black" points="1028.75,-215 1028.75,-239.5 1067.5,-239.5 1067.5,-215 1028.75,-215"/>
<text text-anchor="start" x="1032.75" y="-222.2" font-family="arial" font-size="14.00">male</text>
<polygon fill="none" stroke="black" points="1067.5,-215 1067.5,-239.5 1107,-239.5 1107,-215 1067.5,-215"/>
<text text-anchor="start" x="1071.5" y="-222.2" font-family="arial" font-size="14.00">8&#45;pin</text>
<polygon fill="none" stroke="black" points="805.5,-191 805.5,-215 945.75,-215 945.75,-191 805.5,-191"/>
<text text-anchor="start" x="871.5" y="-197.7" font-family="arial" font-size="14.00">1</text>
<polygon fill="none" stroke="black" points="945.75,-191 945.75,-215 1107,-215 1107,-191 945.75,-191"/>
<text text-anchor="start" x="1012.12" y="-197.7" font-family="arial" font-size="14.00">DB+</text>
<polygon fill="none" stroke="black" points="805.5,-167 805.5,-191 945.75,-191 945.75,-167 805.5,-167"/>
<text text-anchor="start" x="871.5" y="-173.7" font-family="arial" font-size="14.00">2</text>
<polygon fill="none" stroke="black" points="945.75,-167 945.75,-191 1107,-191 1107,-167 945.75,-167"/>
<text text-anchor="start" x="1014" y="-173.7" font-family="arial" font-size="14.00">DB&#45;</text>
<polygon fill="none" stroke="black" points="805.5,-143 805.5,-167 945.75,-167 945.75,-143 805.5,-143"/>
<text text-anchor="start" x="871.5" y="-149.7" font-family="arial" font-size="14.00">3</text>
<polygon fill="none" stroke="black" points="945.75,-143 945.75,-167 1107,-167 1107,-143 945.75,-143"/>
<text text-anchor="start" x="1012.12" y="-149.7" font-family="arial" font-size="14.00">DA+</text>
<polygon fill="none" stroke="black" points="805.5,-119 805.5,-143 945.75,-143 945.75,-119 805.5,-119"/>
<text text-anchor="start" x="871.5" y="-125.7" font-family="arial" font-size="14.00">4</text>
<polygon fill="none" stroke="black" points="945.75,-119 945.75,-143 1107,-143 1107,-119 945.75,-119"/>
<text text-anchor="start" x="1011.75" y="-125.7" font-family="arial" font-size="14.00">DD+</text>
<polygon fill="none" stroke="black" points="805.5,-95 805.5,-119 945.75,-119 945.75,-95 805.5,-95"/>
<text text-anchor="start" x="871.5" y="-101.7" font-family="arial" font-size="14.00">5</text>
<polygon fill="none" stroke="black" points="945.75,-95 945.75,-119 1107,-119 1107,-95 945.75,-95"/>
<text text-anchor="start" x="1013.62" y="-101.7" font-family="arial" font-size="14.00">DD&#45;</text>
<polygon fill="none" stroke="black" points="805.5,-71 805.5,-95 945.75,-95 945.75,-71 805.5,-71"/>
<text text-anchor="start" x="871.5" y="-77.7" font-family="arial" font-size="14.00">6</text>
<polygon fill="none" stroke="black" points="945.75,-71 945.75,-95 1107,-95 1107,-71 945.75,-71"/>
<text text-anchor="start" x="1014" y="-77.7" font-family="arial" font-size="14.00">DA&#45;</text>
<polygon fill="none" stroke="black" points="805.5,-47 805.5,-71 945.75,-71 945.75,-47 805.5,-47"/>
<text text-anchor="start" x="871.5" y="-53.7" font-family="arial" font-size="14.00">7</text>
<polygon fill="none" stroke="black" points="945.75,-47 945.75,-71 1107,-71 1107,-47 945.75,-47"/>
<text text-anchor="start" x="1011.75" y="-53.7" font-family="arial" font-size="14.00">DC+</text>
<polygon fill="none" stroke="black" points="805.5,-23 805.5,-47 945.75,-47 945.75,-23 805.5,-23"/>
<text text-anchor="start" x="871.5" y="-29.7" font-family="arial" font-size="14.00">8</text>
<polygon fill="none" stroke="black" points="945.75,-23 945.75,-47 1107,-47 1107,-23 945.75,-23"/>
<text text-anchor="start" x="1013.62" y="-29.7" font-family="arial" font-size="14.00">DC&#45;</text>
</g>
<!-- W1&#45;&#45;X2 -->
<g id="edge17" class="edge">
<title>W1:e&#45;&#45;X2:w</title>
<path fill="none" stroke="#000000" stroke-width="2" d="M661.5,-201C725.31,-204.33 733.81,-154.33 805.5,-151"/>
<path fill="none" stroke="#ffffff" stroke-width="2" d="M661.5,-203C727.28,-204.66 735.78,-154.66 805.5,-153"/>
<path fill="none" stroke="#00aa00" stroke-width="2" d="M661.5,-205C729.25,-205 737.75,-155 805.5,-155"/>
<path fill="none" stroke="#ffffff" stroke-width="2" d="M661.5,-207C731.22,-205.34 739.72,-155.34 805.5,-157"/>
<path fill="none" stroke="#000000" stroke-width="2" d="M661.5,-209C733.19,-205.67 741.69,-155.67 805.5,-159"/>
</g>
<!-- W1&#45;&#45;X2 -->
<g id="edge18" class="edge">
<title>W1:e&#45;&#45;X2:w</title>
<path fill="none" stroke="#000000" stroke-width="2" d="M661.5,-175C734.44,-179.41 724.6,-83.41 805.5,-79"/>
<path fill="none" stroke="#00aa00" stroke-width="2" d="M661.5,-177C736.43,-179.2 726.59,-83.2 805.5,-81"/>
<path fill="none" stroke="#00aa00" stroke-width="2" d="M661.5,-179C738.42,-179 728.58,-83 805.5,-83"/>
<path fill="none" stroke="#00aa00" stroke-width="2" d="M661.5,-181C740.41,-178.8 730.57,-82.8 805.5,-85"/>
<path fill="none" stroke="#000000" stroke-width="2" d="M661.5,-183C742.4,-178.59 732.56,-82.59 805.5,-87"/>
</g>
<!-- W1&#45;&#45;X2 -->
<g id="edge19" class="edge">
<title>W1:e&#45;&#45;X2:w</title>
<path fill="none" stroke="#000000" stroke-width="2" d="M661.5,-149C733.19,-152.33 741.69,-202.33 805.5,-199"/>
<path fill="none" stroke="#ffffff" stroke-width="2" d="M661.5,-151C731.22,-152.66 739.72,-202.66 805.5,-201"/>
<path fill="none" stroke="#ff8000" stroke-width="2" d="M661.5,-153C729.25,-153 737.75,-203 805.5,-203"/>
<path fill="none" stroke="#ffffff" stroke-width="2" d="M661.5,-155C727.28,-153.34 735.78,-203.34 805.5,-205"/>
<path fill="none" stroke="#000000" stroke-width="2" d="M661.5,-157C725.31,-153.67 733.81,-203.67 805.5,-207"/>
</g>
<!-- W1&#45;&#45;X2 -->
<g id="edge20" class="edge">
<title>W1:e&#45;&#45;X2:w</title>
<path fill="none" stroke="#000000" stroke-width="2" d="M661.5,-123C728.28,-126.86 730.72,-58.86 805.5,-55"/>
<path fill="none" stroke="#0066ff" stroke-width="2" d="M661.5,-125C730.28,-126.93 732.72,-58.93 805.5,-57"/>
<path fill="none" stroke="#0066ff" stroke-width="2" d="M661.5,-127C732.28,-127 734.72,-59 805.5,-59"/>
<path fill="none" stroke="#0066ff" stroke-width="2" d="M661.5,-129C734.28,-127.07 736.72,-59.07 805.5,-61"/>
<path fill="none" stroke="#000000" stroke-width="2" d="M661.5,-131C736.28,-127.14 738.72,-59.14 805.5,-63"/>
</g>
<!-- W1&#45;&#45;X2 -->
<g id="edge21" class="edge">
<title>W1:e&#45;&#45;X2:w</title>
<path fill="none" stroke="#000000" stroke-width="2" d="M661.5,-97C727.9,-100.81 731.1,-34.81 805.5,-31"/>
<path fill="none" stroke="#ffffff" stroke-width="2" d="M661.5,-99C729.9,-100.9 733.1,-34.9 805.5,-33"/>
<path fill="none" stroke="#0066ff" stroke-width="2" d="M661.5,-101C731.9,-101 735.1,-35 805.5,-35"/>
<path fill="none" stroke="#ffffff" stroke-width="2" d="M661.5,-103C733.9,-101.1 737.1,-35.1 805.5,-37"/>
<path fill="none" stroke="#000000" stroke-width="2" d="M661.5,-105C735.9,-101.19 739.1,-35.19 805.5,-39"/>
</g>
<!-- W1&#45;&#45;X2 -->
<g id="edge22" class="edge">
<title>W1:e&#45;&#45;X2:w</title>
<path fill="none" stroke="#000000" stroke-width="2" d="M661.5,-71C744.41,-75.53 730.51,-179.53 805.5,-175"/>
<path fill="none" stroke="#ff8000" stroke-width="2" d="M661.5,-73C742.43,-75.26 728.53,-179.26 805.5,-177"/>
<path fill="none" stroke="#ff8000" stroke-width="2" d="M661.5,-75C740.45,-75 726.55,-179 805.5,-179"/>
<path fill="none" stroke="#ff8000" stroke-width="2" d="M661.5,-77C738.47,-74.74 724.57,-178.74 805.5,-181"/>
<path fill="none" stroke="#000000" stroke-width="2" d="M661.5,-79C736.49,-74.47 722.59,-178.47 805.5,-183"/>
</g>
<!-- W1&#45;&#45;X2 -->
<g id="edge23" class="edge">
<title>W1:e&#45;&#45;X2:w</title>
<path fill="none" stroke="#000000" stroke-width="2" d="M661.5,-45C739.15,-49.16 735.85,-131.16 805.5,-127"/>
<path fill="none" stroke="#ffffff" stroke-width="2" d="M661.5,-47C737.15,-49.08 733.85,-131.08 805.5,-129"/>
<path fill="none" stroke="#895956" stroke-width="2" d="M661.5,-49C735.15,-49 731.85,-131 805.5,-131"/>
<path fill="none" stroke="#ffffff" stroke-width="2" d="M661.5,-51C733.15,-48.92 729.85,-130.92 805.5,-133"/>
<path fill="none" stroke="#000000" stroke-width="2" d="M661.5,-53C731.15,-48.84 727.85,-130.84 805.5,-135"/>
</g>
<!-- W1&#45;&#45;X2 -->
<g id="edge24" class="edge">
<title>W1:e&#45;&#45;X2:w</title>
<path fill="none" stroke="#000000" stroke-width="2" d="M661.5,-19C739.59,-23.2 735.41,-107.2 805.5,-103"/>
<path fill="none" stroke="#895956" stroke-width="2" d="M661.5,-21C737.59,-23.1 733.41,-107.1 805.5,-105"/>
<path fill="none" stroke="#895956" stroke-width="2" d="M661.5,-23C735.59,-23 731.41,-107 805.5,-107"/>
<path fill="none" stroke="#895956" stroke-width="2" d="M661.5,-25C733.59,-22.9 729.41,-106.9 805.5,-109"/>
<path fill="none" stroke="#000000" stroke-width="2" d="M661.5,-27C731.59,-22.8 727.41,-106.8 805.5,-111"/>
</g>
</g>
</svg>
