<?xml version="1.0" encoding="UTF-8" standalone="no"?>
<!DOCTYPE svg PUBLIC "-//W3C//DTD SVG 1.1//EN"
 "http://www.w3.org/Graphics/SVG/1.1/DTD/svg11.dtd">
<!-- Generated by graphviz version 11.0.0 (20240428.1522)
 -->
<!-- Pages: 1 -->
<svg width="972pt" height="350pt"
 viewBox="0.00 0.00 972.01 350.00" xmlns="http://www.w3.org/2000/svg" xmlns:xlink="http://www.w3.org/1999/xlink">
<g id="graph0" class="graph" transform="scale(1 1) rotate(0) translate(4 346)">
<polygon fill="#ffffff" stroke="none" points="-4,4 -4,-346 968.01,-346 968.01,4 -4,4"/>
<!-- X1 -->
<g id="node1" class="node">
<title>X1</title>
<polygon fill="#ffffff" stroke="black" points="210,-331 0,-331 0,0 210,0 210,-331"/>
<polygon fill="#ffffff" stroke="none" points="0,0 0,-331 210,-331 210,0 0,0"/>
<polygon fill="none" stroke="black" points="0,-306.5 0,-331 210,-331 210,-306.5 0,-306.5"/>
<text text-anchor="start" x="96" y="-313.7" font-family="arial" font-size="14.00">X1</text>
<polygon fill="none" stroke="black" points="0,-282 0,-306.5 104.5,-306.5 104.5,-282 0,-282"/>
<text text-anchor="start" x="7.63" y="-289.2" font-family="arial" font-size="14.00">Molex KK 254</text>
<polygon fill="none" stroke="black" points="104.5,-282 104.5,-306.5 163.25,-306.5 163.25,-282 104.5,-282"/>
<text text-anchor="start" x="112.13" y="-289.2" font-family="arial" font-size="14.00">female</text>
<polygon fill="none" stroke="black" points="163.25,-282 163.25,-306.5 210,-306.5 210,-282 163.25,-282"/>
<text text-anchor="start" x="170.88" y="-289.2" font-family="arial" font-size="14.00">7&#45;pin</text>
<polygon fill="none" stroke="black" points="0,-258 0,-282 60.25,-282 60.25,-258 0,-258"/>
<polygon fill="none" stroke="black" points="60.25,-258 60.25,-282 116.5,-282 116.5,-258 60.25,-258"/>
<text text-anchor="start" x="74.5" y="-264.7" font-family="arial" font-size="14.00">SH1</text>
<polygon fill="none" stroke="black" points="116.5,-258 116.5,-282 172.75,-282 172.75,-258 116.5,-258"/>
<text text-anchor="start" x="130.75" y="-264.7" font-family="arial" font-size="14.00">SH2</text>
<polygon fill="none" stroke="black" points="172.75,-258 172.75,-282 210,-282 210,-258 172.75,-258"/>
<polygon fill="none" stroke="black" points="0,-234 0,-258 60.25,-258 60.25,-234 0,-234"/>
<text text-anchor="start" x="14.38" y="-240.7" font-family="arial" font-size="14.00">GND</text>
<polygon fill="none" stroke="black" points="60.25,-234 60.25,-258 116.5,-258 116.5,-234 60.25,-234"/>
<polygon fill="none" stroke="black" points="116.5,-234 116.5,-258 172.75,-258 172.75,-234 116.5,-234"/>
<polygon fill="none" stroke="black" points="172.75,-234 172.75,-258 210,-258 210,-234 172.75,-234"/>
<text text-anchor="start" x="187.25" y="-240.7" font-family="arial" font-size="14.00">1</text>
<polygon fill="none" stroke="black" points="0,-210 0,-234 60.25,-234 60.25,-210 0,-210"/>
<text text-anchor="start" x="14.75" y="-216.7" font-family="arial" font-size="14.00">VCC</text>
<polygon fill="none" stroke="black" points="60.25,-210 60.25,-234 116.5,-234 116.5,-210 60.25,-210"/>
<polygon fill="none" stroke="black" points="116.5,-210 116.5,-234 172.75,-234 172.75,-210 116.5,-210"/>
<polygon fill="none" stroke="black" points="172.75,-210 172.75,-234 210,-234 210,-210 172.75,-210"/>
<text text-anchor="start" x="187.25" y="-216.7" font-family="arial" font-size="14.00">2</text>
<polygon fill="none" stroke="black" points="0,-186 0,-210 60.25,-210 60.25,-186 0,-186"/>
<text text-anchor="start" x="20" y="-192.7" font-family="arial" font-size="14.00">RX</text>
<polygon fill="none" stroke="black" points="60.25,-186 60.25,-210 116.5,-210 116.5,-186 60.25,-186"/>
<polygon fill="none" stroke="black" points="116.5,-186 116.5,-210 172.75,-210 172.75,-186 116.5,-186"/>
<polygon fill="none" stroke="black" points="172.75,-186 172.75,-210 210,-210 210,-186 172.75,-186"/>
<text text-anchor="start" x="187.25" y="-192.7" font-family="arial" font-size="14.00">3</text>
<polygon fill="none" stroke="black" points="0,-162 0,-186 60.25,-186 60.25,-162 0,-162"/>
<text text-anchor="start" x="20.75" y="-168.7" font-family="arial" font-size="14.00">TX</text>
<polygon fill="none" stroke="black" points="60.25,-162 60.25,-186 116.5,-186 116.5,-162 60.25,-162"/>
<polygon fill="none" stroke="black" points="116.5,-162 116.5,-186 172.75,-186 172.75,-162 116.5,-162"/>
<polygon fill="none" stroke="black" points="172.75,-162 172.75,-186 210,-186 210,-162 172.75,-162"/>
<text text-anchor="start" x="187.25" y="-168.7" font-family="arial" font-size="14.00">4</text>
<polygon fill="none" stroke="black" points="0,-138 0,-162 60.25,-162 60.25,-138 0,-138"/>
<text text-anchor="start" x="14.38" y="-144.7" font-family="arial" font-size="14.00">GND</text>
<polygon fill="none" stroke="black" points="60.25,-138 60.25,-162 116.5,-162 116.5,-138 60.25,-138"/>
<polygon fill="none" stroke="black" points="116.5,-138 116.5,-162 172.75,-162 172.75,-138 116.5,-138"/>
<polygon fill="none" stroke="black" points="172.75,-138 172.75,-162 210,-162 210,-138 172.75,-138"/>
<text text-anchor="start" x="187.25" y="-144.7" font-family="arial" font-size="14.00">5</text>
<polygon fill="none" stroke="black" points="0,-114 0,-138 60.25,-138 60.25,-114 0,-114"/>
<text text-anchor="start" x="14.75" y="-120.7" font-family="arial" font-size="14.00">VCC</text>
<polygon fill="none" stroke="black" points="60.25,-114 60.25,-138 116.5,-138 116.5,-114 60.25,-114"/>
<polygon fill="none" stroke="black" points="116.5,-114 116.5,-138 172.75,-138 172.75,-114 116.5,-114"/>
<polygon fill="none" stroke="black" points="172.75,-114 172.75,-138 210,-138 210,-114 172.75,-114"/>
<text text-anchor="start" x="187.25" y="-120.7" font-family="arial" font-size="14.00">6</text>
<polygon fill="none" stroke="black" points="0,-90 0,-114 60.25,-114 60.25,-90 0,-90"/>
<text text-anchor="start" x="14.38" y="-96.7" font-family="arial" font-size="14.00">GND</text>
<polygon fill="none" stroke="black" points="60.25,-90 60.25,-114 116.5,-114 116.5,-90 60.25,-90"/>
<polygon fill="none" stroke="black" points="116.5,-90 116.5,-114 172.75,-114 172.75,-90 116.5,-90"/>
<polygon fill="none" stroke="black" points="172.75,-90 172.75,-114 210,-114 210,-90 172.75,-90"/>
<text text-anchor="start" x="187.25" y="-96.7" font-family="arial" font-size="14.00">7</text>
<text text-anchor="start" x="9.75" y="-72.7" font-family="arial" font-size="14.00">42</text>
<text text-anchor="start" x="32" y="-72.7" font-family="arial" font-size="14.00">mm</text>
<text text-anchor="start" x="62" y="-72.7" font-family="arial" font-size="14.00">shortPartA</text>
<text text-anchor="start" x="61.63" y="-50.7" font-family="arial" font-size="14.00">WireViz: 42XCD42A5</text>
<text text-anchor="start" x="17.75" y="-28.7" font-family="arial" font-size="14.00">1</text>
<text text-anchor="start" x="32" y="-28.7" font-family="arial" font-size="14.00">x</text>
<text text-anchor="start" x="62" y="-28.7" font-family="arial" font-size="14.00">shortPartB</text>
<text text-anchor="start" x="61.63" y="-6.7" font-family="arial" font-size="14.00">WireViz: 42XCD42A5</text>
<polygon fill="none" stroke="black" points="0,0 0,-90 210,-90 210,0 0,0"/>
</g>
<!-- X1&#45;&#45;X1 -->
<g id="edge1" class="edge">
<title>X1:c&#45;&#45;X1:c</title>
<path fill="none" stroke="#ffffff" stroke-width="2" d="M86.38,-246C86.38,-214 86.38,-182 86.38,-150"/>
<path fill="none" stroke="#ff66cc" stroke-width="2" d="M88.38,-246C88.38,-214 88.38,-182 88.38,-150"/>
<path fill="none" stroke="#ffffff" stroke-width="2" d="M90.38,-246C90.38,-214 90.38,-182 90.38,-150"/>
</g>
<!-- X1&#45;&#45;X1 -->
<g id="edge2" class="edge">
<title>X1:c&#45;&#45;X1:c</title>
<path fill="none" stroke="#ffffff" stroke-width="2" d="M86.38,-150C86.38,-134 86.38,-118 86.38,-102"/>
<path fill="none" stroke="#ff66cc" stroke-width="2" d="M88.38,-150C88.38,-134 88.38,-118 88.38,-102"/>
<path fill="none" stroke="#ffffff" stroke-width="2" d="M90.38,-150C90.38,-134 90.38,-118 90.38,-102"/>
</g>
<!-- X1&#45;&#45;X1 -->
<g id="edge3" class="edge">
<title>X1:c&#45;&#45;X1:c</title>
<path fill="none" stroke="#ffffff" stroke-width="2" d="M142.62,-222C142.62,-190 142.62,-158 142.62,-126"/>
<path fill="none" stroke="#ff0000" stroke-width="2" d="M144.62,-222C144.62,-190 144.62,-158 144.62,-126"/>
<path fill="none" stroke="#ffffff" stroke-width="2" d="M146.62,-222C146.62,-190 146.62,-158 146.62,-126"/>
</g>
<!-- W1 -->
<g id="node2" class="node">
<title>W1</title>
<polygon fill="#ffffff" stroke="black" points="631.76,-342 354.01,-342 354.01,-103 631.76,-103 631.76,-342"/>
<polygon fill="#ffffff" stroke="none" points="354.01,-103 354.01,-342 631.76,-342 631.76,-103 354.01,-103"/>
<polygon fill="none" stroke="black" points="354.01,-317.5 354.01,-342 631.76,-342 631.76,-317.5 354.01,-317.5"/>
<text text-anchor="start" x="481.63" y="-324.7" font-family="arial" font-size="14.00">W1</text>
<polygon fill="none" stroke="black" points="354.01,-293 354.01,-317.5 398.01,-317.5 398.01,-293 354.01,-293"/>
<text text-anchor="start" x="358.01" y="-300.2" font-family="arial" font-size="14.00">Serial</text>
<polygon fill="none" stroke="black" points="398.01,-293 398.01,-317.5 421.01,-317.5 421.01,-293 398.01,-293"/>
<text text-anchor="start" x="402.01" y="-300.2" font-family="arial" font-size="14.00">4x</text>
<polygon fill="none" stroke="black" points="421.01,-293 421.01,-317.5 558.01,-317.5 558.01,-293 421.01,-293"/>
<text text-anchor="start" x="425.01" y="-300.2" font-family="arial" font-size="14.00">0.25 mm² (24 AWG)</text>
<polygon fill="none" stroke="black" points="558.01,-293 558.01,-317.5 587.76,-317.5 587.76,-293 558.01,-293"/>
<text text-anchor="start" x="562.01" y="-300.2" font-family="arial" font-size="14.00">+ S</text>
<polygon fill="none" stroke="black" points="587.76,-293 587.76,-317.5 631.76,-317.5 631.76,-293 587.76,-293"/>
<text text-anchor="start" x="591.76" y="-300.2" font-family="arial" font-size="14.00">0.2 m</text>
<text text-anchor="start" x="394.21" y="-277.7" font-family="arial" font-size="14.00"> </text>
<text text-anchor="start" x="356.01" y="-257.7" font-family="arial" font-size="14.00"> X1:1:GND</text>
<text text-anchor="start" x="445.36" y="-257.7" font-family="arial" font-size="14.00"> </text>
<text text-anchor="start" x="465.13" y="-257.7" font-family="arial" font-size="14.00">1:BUWH</text>
<text text-anchor="start" x="536.66" y="-257.7" font-family="arial" font-size="14.00"> </text>
<text text-anchor="start" x="560.76" y="-257.7" font-family="arial" font-size="14.00">X2:1:GND </text>
<text text-anchor="start" x="356.01" y="-231.7" font-family="arial" font-size="14.00"> X1:2:VCC</text>
<text text-anchor="start" x="445.36" y="-231.7" font-family="arial" font-size="14.00"> </text>
<text text-anchor="start" x="465.13" y="-231.7" font-family="arial" font-size="14.00">2:WHBU</text>
<text text-anchor="start" x="536.66" y="-231.7" font-family="arial" font-size="14.00"> </text>
<text text-anchor="start" x="561.51" y="-231.7" font-family="arial" font-size="14.00">X2:2:VCC </text>
<text text-anchor="start" x="356.01" y="-205.7" font-family="arial" font-size="14.00"> X1:3:RX</text>
<text text-anchor="start" x="445.36" y="-205.7" font-family="arial" font-size="14.00"> </text>
<text text-anchor="start" x="463.63" y="-205.7" font-family="arial" font-size="14.00">3:OGWH</text>
<text text-anchor="start" x="536.66" y="-205.7" font-family="arial" font-size="14.00"> </text>
<text text-anchor="start" x="573.51" y="-205.7" font-family="arial" font-size="14.00">X2:4:TX </text>
<text text-anchor="start" x="356.01" y="-179.7" font-family="arial" font-size="14.00"> X1:4:TX</text>
<text text-anchor="start" x="445.36" y="-179.7" font-family="arial" font-size="14.00"> </text>
<text text-anchor="start" x="463.63" y="-179.7" font-family="arial" font-size="14.00">4:WHOG</text>
<text text-anchor="start" x="536.66" y="-179.7" font-family="arial" font-size="14.00"> </text>
<text text-anchor="start" x="572.01" y="-179.7" font-family="arial" font-size="14.00">X2:3:RX </text>
<text text-anchor="start" x="394.21" y="-153.7" font-family="arial" font-size="14.00"> </text>
<text text-anchor="start" x="356.01" y="-133.7" font-family="arial" font-size="14.00"> X1:1:GND</text>
<text text-anchor="start" x="445.36" y="-133.7" font-family="arial" font-size="14.00"> </text>
<text text-anchor="start" x="473.01" y="-133.7" font-family="arial" font-size="14.00">Shield</text>
<text text-anchor="start" x="536.66" y="-133.7" font-family="arial" font-size="14.00"> </text>
<text text-anchor="start" x="626.01" y="-133.7" font-family="arial" font-size="14.00"> </text>
<text text-anchor="start" x="394.21" y="-107.7" font-family="arial" font-size="14.00"> </text>
</g>
<!-- X1&#45;&#45;W1 -->
<g id="edge4" class="edge">
<title>X1:e&#45;&#45;W1:w</title>
<path fill="none" stroke="#000000" stroke-width="2" d="M210,-242C274.99,-242.12 290.95,-246.12 354,-246"/>
<path fill="none" stroke="#0066ff" stroke-width="2" d="M210,-244C274.51,-244.06 290.47,-248.06 354,-248"/>
<path fill="none" stroke="#ffffff" stroke-width="2" d="M210,-246C274.02,-246 289.98,-250 354,-250"/>
<path fill="none" stroke="#0066ff" stroke-width="2" d="M210,-248C273.53,-247.94 289.49,-251.94 354,-252"/>
<path fill="none" stroke="#000000" stroke-width="2" d="M210,-250C273.05,-249.88 289.01,-253.88 354,-254"/>
</g>
<!-- X1&#45;&#45;W1 -->
<g id="edge5" class="edge">
<title>X1:e&#45;&#45;W1:w</title>
<path fill="none" stroke="#000000" stroke-width="2" d="M210,-218C274.51,-218.03 290.49,-220.03 354,-220"/>
<path fill="none" stroke="#ffffff" stroke-width="2" d="M210,-220C274.26,-220.02 290.24,-222.02 354,-222"/>
<path fill="none" stroke="#0066ff" stroke-width="2" d="M210,-222C274.01,-222 289.99,-224 354,-224"/>
<path fill="none" stroke="#ffffff" stroke-width="2" d="M210,-224C273.76,-223.98 289.74,-225.98 354,-226"/>
<path fill="none" stroke="#000000" stroke-width="2" d="M210,-226C273.51,-225.97 289.49,-227.97 354,-228"/>
</g>
<!-- X1&#45;&#45;W1 -->
<g id="edge6" class="edge">
<title>X1:e&#45;&#45;W1:w</title>
<path fill="none" stroke="#000000" stroke-width="2" d="M210,-194C274,-194 290,-194 354,-194"/>
<path fill="none" stroke="#ff8000" stroke-width="2" d="M210,-196C274,-196 290,-196 354,-196"/>
<path fill="none" stroke="#ffffff" stroke-width="2" d="M210,-198C274,-198 290,-198 354,-198"/>
<path fill="none" stroke="#ff8000" stroke-width="2" d="M210,-200C274,-200 290,-200 354,-200"/>
<path fill="none" stroke="#000000" stroke-width="2" d="M210,-202C274,-202 290,-202 354,-202"/>
</g>
<!-- X1&#45;&#45;W1 -->
<g id="edge7" class="edge">
<title>X1:e&#45;&#45;W1:w</title>
<path fill="none" stroke="#000000" stroke-width="2" d="M210,-170C273.51,-170.03 289.49,-168.03 354,-168"/>
<path fill="none" stroke="#ffffff" stroke-width="2" d="M210,-172C273.76,-172.02 289.74,-170.02 354,-170"/>
<path fill="none" stroke="#ff8000" stroke-width="2" d="M210,-174C274.01,-174 289.99,-172 354,-172"/>
<path fill="none" stroke="#ffffff" stroke-width="2" d="M210,-176C274.26,-175.98 290.24,-173.98 354,-174"/>
<path fill="none" stroke="#000000" stroke-width="2" d="M210,-178C274.51,-177.97 290.49,-175.97 354,-176"/>
</g>
<!-- X1&#45;&#45;W1 -->
<g id="edge8" class="edge">
<title>X1:e&#45;&#45;W1:w</title>
<path fill="none" stroke="#000000" stroke-width="2" d="M210,-246C293.31,-246 270.69,-126 354,-126"/>
</g>
<!-- W1&#45;&#45;W1 -->
<g id="edge9" class="edge">
<title>W1:e&#45;&#45;W1:w</title>
<path fill="none" stroke="#000000" stroke-width="2" d="M631.75,-254C539.17,-254 446.58,-254 354,-254"/>
<path fill="none" stroke="#0066ff" stroke-width="2" d="M631.75,-252C539.17,-252 446.58,-252 354,-252"/>
<path fill="none" stroke="#ffffff" stroke-width="2" d="M631.75,-250C539.17,-250 446.58,-250 354,-250"/>
<path fill="none" stroke="#0066ff" stroke-width="2" d="M631.75,-248C539.17,-248 446.58,-248 354,-248"/>
<path fill="none" stroke="#000000" stroke-width="2" d="M631.75,-246C539.17,-246 446.58,-246 354,-246"/>
</g>
<!-- W1&#45;&#45;W1 -->
<g id="edge10" class="edge">
<title>W1:e&#45;&#45;W1:w</title>
<path fill="none" stroke="#000000" stroke-width="2" d="M631.75,-228C539.17,-228 446.58,-228 354,-228"/>
<path fill="none" stroke="#ffffff" stroke-width="2" d="M631.75,-226C539.17,-226 446.58,-226 354,-226"/>
<path fill="none" stroke="#0066ff" stroke-width="2" d="M631.75,-224C539.17,-224 446.58,-224 354,-224"/>
<path fill="none" stroke="#ffffff" stroke-width="2" d="M631.75,-222C539.17,-222 446.58,-222 354,-222"/>
<path fill="none" stroke="#000000" stroke-width="2" d="M631.75,-220C539.17,-220 446.58,-220 354,-220"/>
</g>
<!-- W1&#45;&#45;W1 -->
<g id="edge11" class="edge">
<title>W1:e&#45;&#45;W1:w</title>
<path fill="none" stroke="#000000" stroke-width="2" d="M631.75,-202C539.17,-202 446.58,-202 354,-202"/>
<path fill="none" stroke="#ff8000" stroke-width="2" d="M631.75,-200C539.17,-200 446.58,-200 354,-200"/>
<path fill="none" stroke="#ffffff" stroke-width="2" d="M631.75,-198C539.17,-198 446.58,-198 354,-198"/>
<path fill="none" stroke="#ff8000" stroke-width="2" d="M631.75,-196C539.17,-196 446.58,-196 354,-196"/>
<path fill="none" stroke="#000000" stroke-width="2" d="M631.75,-194C539.17,-194 446.58,-194 354,-194"/>
</g>
<!-- W1&#45;&#45;W1 -->
<g id="edge12" class="edge">
<title>W1:e&#45;&#45;W1:w</title>
<path fill="none" stroke="#000000" stroke-width="2" d="M631.75,-176C539.17,-176 446.58,-176 354,-176"/>
<path fill="none" stroke="#ffffff" stroke-width="2" d="M631.75,-174C539.17,-174 446.58,-174 354,-174"/>
<path fill="none" stroke="#ff8000" stroke-width="2" d="M631.75,-172C539.17,-172 446.58,-172 354,-172"/>
<path fill="none" stroke="#ffffff" stroke-width="2" d="M631.75,-170C539.17,-170 446.58,-170 354,-170"/>
<path fill="none" stroke="#000000" stroke-width="2" d="M631.75,-168C539.17,-168 446.58,-168 354,-168"/>
</g>
<!-- W1&#45;&#45;W1 -->
<g id="edge13" class="edge">
<title>W1:e&#45;&#45;W1:w</title>
<path fill="none" stroke="#000000" stroke-width="2" d="M631.75,-126C539.17,-126 446.58,-126 354,-126"/>
</g>
<!-- X2 -->
<g id="node3" class="node">
<title>X2</title>
<polygon fill="#ffffff" stroke="black" points="964.01,-334 775.76,-334 775.76,-93 964.01,-93 964.01,-334"/>
<polygon fill="#ffffff" stroke="none" points="775.76,-93 775.76,-334 964.01,-334 964.01,-93 775.76,-93"/>
<polygon fill="none" stroke="black" points="775.76,-309.5 775.76,-334 964.01,-334 964.01,-309.5 775.76,-309.5"/>
<text text-anchor="start" x="860.88" y="-316.7" font-family="arial" font-size="14.00">X2</text>
<polygon fill="none" stroke="black" points="775.76,-285 775.76,-309.5 873.01,-309.5 873.01,-285 775.76,-285"/>
<text text-anchor="start" x="779.76" y="-292.2" font-family="arial" font-size="14.00">Molex KK 254</text>
<polygon fill="none" stroke="black" points="873.01,-285 873.01,-309.5 924.51,-309.5 924.51,-285 873.01,-285"/>
<text text-anchor="start" x="877.01" y="-292.2" font-family="arial" font-size="14.00">female</text>
<polygon fill="none" stroke="black" points="924.51,-285 924.51,-309.5 964.01,-309.5 964.01,-285 924.51,-285"/>
<text text-anchor="start" x="928.51" y="-292.2" font-family="arial" font-size="14.00">7&#45;pin</text>
<polygon fill="none" stroke="black" points="775.76,-261 775.76,-285 807.57,-285 807.57,-261 775.76,-261"/>
<polygon fill="none" stroke="black" points="807.57,-261 807.57,-285 862.38,-285 862.38,-261 807.57,-261"/>
<polygon fill="none" stroke="black" points="862.38,-261 862.38,-285 913.19,-285 913.19,-261 862.38,-261"/>
<text text-anchor="start" x="873.91" y="-267.7" font-family="arial" font-size="14.00">SH1</text>
<polygon fill="none" stroke="black" points="913.19,-261 913.19,-285 964.01,-285 964.01,-261 913.19,-261"/>
<text text-anchor="start" x="924.72" y="-267.7" font-family="arial" font-size="14.00">SH2</text>
<polygon fill="none" stroke="black" points="775.76,-237 775.76,-261 807.57,-261 807.57,-237 775.76,-237"/>
<text text-anchor="start" x="787.54" y="-243.7" font-family="arial" font-size="14.00">1</text>
<polygon fill="none" stroke="black" points="807.57,-237 807.57,-261 862.38,-261 862.38,-237 807.57,-237"/>
<text text-anchor="start" x="819.22" y="-243.7" font-family="arial" font-size="14.00">GND</text>
<polygon fill="none" stroke="black" points="862.38,-237 862.38,-261 913.19,-261 913.19,-237 862.38,-237"/>
<polygon fill="none" stroke="black" points="913.19,-237 913.19,-261 964.01,-261 964.01,-237 913.19,-237"/>
<polygon fill="none" stroke="black" points="775.76,-213 775.76,-237 807.57,-237 807.57,-213 775.76,-213"/>
<text text-anchor="start" x="787.54" y="-219.7" font-family="arial" font-size="14.00">2</text>
<polygon fill="none" stroke="black" points="807.57,-213 807.57,-237 862.38,-237 862.38,-213 807.57,-213"/>
<text text-anchor="start" x="819.6" y="-219.7" font-family="arial" font-size="14.00">VCC</text>
<polygon fill="none" stroke="black" points="862.38,-213 862.38,-237 913.19,-237 913.19,-213 862.38,-213"/>
<polygon fill="none" stroke="black" points="913.19,-213 913.19,-237 964.01,-237 964.01,-213 913.19,-213"/>
<polygon fill="none" stroke="black" points="775.76,-189 775.76,-213 807.57,-213 807.57,-189 775.76,-189"/>
<text text-anchor="start" x="787.54" y="-195.7" font-family="arial" font-size="14.00">3</text>
<polygon fill="none" stroke="black" points="807.57,-189 807.57,-213 862.38,-213 862.38,-189 807.57,-189"/>
<text text-anchor="start" x="824.85" y="-195.7" font-family="arial" font-size="14.00">RX</text>
<polygon fill="none" stroke="black" points="862.38,-189 862.38,-213 913.19,-213 913.19,-189 862.38,-189"/>
<polygon fill="none" stroke="black" points="913.19,-189 913.19,-213 964.01,-213 964.01,-189 913.19,-189"/>
<polygon fill="none" stroke="black" points="775.76,-165 775.76,-189 807.57,-189 807.57,-165 775.76,-165"/>
<text text-anchor="start" x="787.54" y="-171.7" font-family="arial" font-size="14.00">4</text>
<polygon fill="none" stroke="black" points="807.57,-165 807.57,-189 862.38,-189 862.38,-165 807.57,-165"/>
<text text-anchor="start" x="825.6" y="-171.7" font-family="arial" font-size="14.00">TX</text>
<polygon fill="none" stroke="black" points="862.38,-165 862.38,-189 913.19,-189 913.19,-165 862.38,-165"/>
<polygon fill="none" stroke="black" points="913.19,-165 913.19,-189 964.01,-189 964.01,-165 913.19,-165"/>
<polygon fill="none" stroke="black" points="775.76,-141 775.76,-165 807.57,-165 807.57,-141 775.76,-141"/>
<text text-anchor="start" x="787.54" y="-147.7" font-family="arial" font-size="14.00">5</text>
<polygon fill="none" stroke="black" points="807.57,-141 807.57,-165 862.38,-165 862.38,-141 807.57,-141"/>
<text text-anchor="start" x="819.22" y="-147.7" font-family="arial" font-size="14.00">GND</text>
<polygon fill="none" stroke="black" points="862.38,-141 862.38,-165 913.19,-165 913.19,-141 862.38,-141"/>
<polygon fill="none" stroke="black" points="913.19,-141 913.19,-165 964.01,-165 964.01,-141 913.19,-141"/>
<polygon fill="none" stroke="black" points="775.76,-117 775.76,-141 807.57,-141 807.57,-117 775.76,-117"/>
<text text-anchor="start" x="787.54" y="-123.7" font-family="arial" font-size="14.00">6</text>
<polygon fill="none" stroke="black" points="807.57,-117 807.57,-141 862.38,-141 862.38,-117 807.57,-117"/>
<text text-anchor="start" x="819.6" y="-123.7" font-family="arial" font-size="14.00">VCC</text>
<polygon fill="none" stroke="black" points="862.38,-117 862.38,-141 913.19,-141 913.19,-117 862.38,-117"/>
<polygon fill="none" stroke="black" points="913.19,-117 913.19,-141 964.01,-141 964.01,-117 913.19,-117"/>
<polygon fill="none" stroke="black" points="775.76,-93 775.76,-117 807.57,-117 807.57,-93 775.76,-93"/>
<text text-anchor="start" x="787.54" y="-99.7" font-family="arial" font-size="14.00">7</text>
<polygon fill="none" stroke="black" points="807.57,-93 807.57,-117 862.38,-117 862.38,-93 807.57,-93"/>
<text text-anchor="start" x="819.22" y="-99.7" font-family="arial" font-size="14.00">GND</text>
<polygon fill="none" stroke="black" points="862.38,-93 862.38,-117 913.19,-117 913.19,-93 862.38,-93"/>
<polygon fill="none" stroke="black" points="913.19,-93 913.19,-117 964.01,-117 964.01,-93 913.19,-93"/>
</g>
<!-- W1&#45;&#45;X2 -->
<g id="edge14" class="edge">
<title>W1:e&#45;&#45;X2:w</title>
<path fill="none" stroke="#000000" stroke-width="2" d="M631.75,-246C695.5,-246.01 711.5,-245.01 775.75,-245"/>
<path fill="none" stroke="#0066ff" stroke-width="2" d="M631.75,-248C695.63,-248 711.63,-247 775.75,-247"/>
<path fill="none" stroke="#ffffff" stroke-width="2" d="M631.75,-250C695.75,-250 711.75,-249 775.75,-249"/>
<path fill="none" stroke="#0066ff" stroke-width="2" d="M631.75,-252C695.88,-252 711.88,-251 775.75,-251"/>
<path fill="none" stroke="#000000" stroke-width="2" d="M631.75,-254C696,-253.99 712,-252.99 775.75,-253"/>
</g>
<!-- W1&#45;&#45;X2 -->
<g id="edge15" class="edge">
<title>W1:e&#45;&#45;X2:w</title>
<path fill="none" stroke="#000000" stroke-width="2" d="M631.75,-220C696,-220.01 712,-221.01 775.75,-221"/>
<path fill="none" stroke="#ffffff" stroke-width="2" d="M631.75,-222C695.88,-222 711.88,-223 775.75,-223"/>
<path fill="none" stroke="#0066ff" stroke-width="2" d="M631.75,-224C695.75,-224 711.75,-225 775.75,-225"/>
<path fill="none" stroke="#ffffff" stroke-width="2" d="M631.75,-226C695.63,-226 711.63,-227 775.75,-227"/>
<path fill="none" stroke="#000000" stroke-width="2" d="M631.75,-228C695.5,-227.99 711.5,-228.99 775.75,-229"/>
</g>
<!-- W1&#45;&#45;X2 -->
<g id="edge16" class="edge">
<title>W1:e&#45;&#45;X2:w</title>
<path fill="none" stroke="#000000" stroke-width="2" d="M631.75,-194C693.15,-195.71 707.79,-174.71 775.75,-173"/>
<path fill="none" stroke="#ff8000" stroke-width="2" d="M631.75,-196C694.79,-196.86 709.43,-175.86 775.75,-175"/>
<path fill="none" stroke="#ffffff" stroke-width="2" d="M631.75,-198C696.43,-198 711.07,-177 775.75,-177"/>
<path fill="none" stroke="#ff8000" stroke-width="2" d="M631.75,-200C698.07,-199.14 712.71,-178.14 775.75,-179"/>
<path fill="none" stroke="#000000" stroke-width="2" d="M631.75,-202C699.71,-200.29 714.35,-179.29 775.75,-181"/>
</g>
<!-- W1&#45;&#45;X2 -->
<g id="edge17" class="edge">
<title>W1:e&#45;&#45;X2:w</title>
<path fill="none" stroke="#000000" stroke-width="2" d="M631.75,-168C700.66,-170.32 714.1,-199.32 775.75,-197"/>
<path fill="none" stroke="#ffffff" stroke-width="2" d="M631.75,-170C698.85,-171.16 712.29,-200.16 775.75,-199"/>
<path fill="none" stroke="#ff8000" stroke-width="2" d="M631.75,-172C697.03,-172 710.47,-201 775.75,-201"/>
<path fill="none" stroke="#ffffff" stroke-width="2" d="M631.75,-174C695.22,-172.84 708.66,-201.84 775.75,-203"/>
<path fill="none" stroke="#000000" stroke-width="2" d="M631.75,-176C693.4,-173.68 706.84,-202.68 775.75,-205"/>
</g>
<!-- X2&#45;&#45;X2 -->
<g id="edge18" class="edge">
<title>X2:c&#45;&#45;X2:c</title>
<path fill="none" stroke="#ffffff" stroke-width="2" d="M885.78,-249C885.78,-217 885.78,-185 885.78,-153"/>
<path fill="none" stroke="#000000" stroke-width="2" d="M887.78,-249C887.78,-217 887.78,-185 887.78,-153"/>
<path fill="none" stroke="#ffffff" stroke-width="2" d="M889.78,-249C889.78,-217 889.78,-185 889.78,-153"/>
</g>
<!-- X2&#45;&#45;X2 -->
<g id="edge19" class="edge">
<title>X2:c&#45;&#45;X2:c</title>
<path fill="none" stroke="#ffffff" stroke-width="2" d="M885.78,-153C885.78,-137 885.78,-121 885.78,-105"/>
<path fill="none" stroke="#000000" stroke-width="2" d="M887.78,-153C887.78,-137 887.78,-121 887.78,-105"/>
<path fill="none" stroke="#ffffff" stroke-width="2" d="M889.78,-153C889.78,-137 889.78,-121 889.78,-105"/>
</g>
<!-- X2&#45;&#45;X2 -->
<g id="edge20" class="edge">
<title>X2:c&#45;&#45;X2:c</title>
<path fill="none" stroke="#ffffff" stroke-width="2" d="M936.59,-225C936.59,-193 936.59,-161 936.59,-129"/>
<path fill="none" stroke="#000000" stroke-width="2" d="M938.59,-225C938.59,-193 938.59,-161 938.59,-129"/>
<path fill="none" stroke="#ffffff" stroke-width="2" d="M940.59,-225C940.59,-193 940.59,-161 940.59,-129"/>
</g>
<!-- __CIRCLE__1 -->
<g id="node4" class="node">
<title>__CIRCLE__1</title>
<ellipse fill="#ff66cc" stroke="#ff66cc" cx="88.38" cy="-246" rx="6.48" ry="6.48"/>
</g>
<!-- __CIRCLE__2 -->
<g id="node5" class="node">
<title>__CIRCLE__2</title>
<ellipse fill="#ff66cc" stroke="#ff66cc" cx="88.38" cy="-150" rx="6.48" ry="6.48"/>
</g>
<!-- __CIRCLE__3 -->
<g id="node6" class="node">
<title>__CIRCLE__3</title>
<ellipse fill="#ff66cc" stroke="#ff66cc" cx="88.38" cy="-150" rx="6.48" ry="6.48"/>
</g>
<!-- __CIRCLE__4 -->
<g id="node7" class="node">
<title>__CIRCLE__4</title>
<ellipse fill="#ff66cc" stroke="#ff66cc" cx="88.38" cy="-102" rx="6.48" ry="6.48"/>
</g>
<!-- __CIRCLE__5 -->
<g id="node8" class="node">
<title>__CIRCLE__5</title>
<ellipse fill="#ff0000" stroke="#ff0000" cx="144.62" cy="-222" rx="6.48" ry="6.48"/>
</g>
<!-- __CIRCLE__6 -->
<g id="node9" class="node">
<title>__CIRCLE__6</title>
<ellipse fill="#ff0000" stroke="#ff0000" cx="144.62" cy="-126" rx="6.48" ry="6.48"/>
</g>
<!-- __CIRCLE__7 -->
<g id="node10" class="node">
<title>__CIRCLE__7</title>
<ellipse fill="#000000" stroke="#000000" cx="887.78" cy="-249" rx="6.48" ry="6.48"/>
</g>
<!-- __CIRCLE__8 -->
<g id="node11" class="node">
<title>__CIRCLE__8</title>
<ellipse fill="#000000" stroke="#000000" cx="887.78" cy="-153" rx="6.48" ry="6.48"/>
</g>
<!-- __CIRCLE__9 -->
<g id="node12" class="node">
<title>__CIRCLE__9</title>
<ellipse fill="#000000" stroke="#000000" cx="887.78" cy="-153" rx="6.48" ry="6.48"/>
</g>
<!-- __CIRCLE__10 -->
<g id="node13" class="node">
<title>__CIRCLE__10</title>
<ellipse fill="#000000" stroke="#000000" cx="887.78" cy="-105" rx="6.48" ry="6.48"/>
</g>
<!-- __CIRCLE__11 -->
<g id="node14" class="node">
<title>__CIRCLE__11</title>
<ellipse fill="#000000" stroke="#000000" cx="938.59" cy="-225" rx="6.48" ry="6.48"/>
</g>
<!-- __CIRCLE__12 -->
<g id="node15" class="node">
<title>__CIRCLE__12</title>
<ellipse fill="#000000" stroke="#000000" cx="938.59" cy="-129" rx="6.48" ry="6.48"/>
</g>
</g>
</svg>
