<?xml version="1.0" encoding="UTF-8" standalone="no"?>
<!DOCTYPE svg PUBLIC "-//W3C//DTD SVG 1.1//EN"
 "http://www.w3.org/Graphics/SVG/1.1/DTD/svg11.dtd">
<!-- Generated by graphviz version 11.0.0 (20240428.1522)
 -->
<!-- Pages: 1 -->
<svg width="660pt" height="260pt"
 viewBox="0.00 0.00 660.00 260.00" xmlns="http://www.w3.org/2000/svg" xmlns:xlink="http://www.w3.org/1999/xlink">
<g id="graph0" class="graph" transform="scale(1 1) rotate(0) translate(4 256)">
<polygon fill="#ffffff" stroke="none" points="-4,4 -4,-256 656,-256 656,4 -4,4"/>
<!-- X1 -->
<g id="node1" class="node">
<title>X1</title>
<polygon fill="#ffffff" stroke="black" points="55,-217 0,-217 0,0 55,0 55,-217"/>
<polygon fill="none" stroke="black" points="0,-192.5 0,-217 55,-217 55,-192.5 0,-192.5"/>
<text text-anchor="start" x="18.5" y="-199.7" font-family="arial" font-size="14.00">X1</text>
<polygon fill="none" stroke="black" points="0,-168 0,-192.5 55,-192.5 55,-168 0,-168"/>
<text text-anchor="start" x="11.75" y="-175.2" font-family="arial" font-size="14.00">7&#45;pin</text>
<polygon fill="none" stroke="black" points="0,-144 0,-168 39,-168 39,-144 0,-144"/>
<text text-anchor="start" x="3.75" y="-150.7" font-family="arial" font-size="14.00">GND</text>
<polygon fill="none" stroke="black" points="39,-144 39,-168 55,-168 55,-144 39,-144"/>
<text text-anchor="start" x="42.88" y="-150.7" font-family="arial" font-size="14.00">1</text>
<polygon fill="none" stroke="black" points="0,-120 0,-144 39,-144 39,-120 0,-120"/>
<text text-anchor="start" x="4.13" y="-126.7" font-family="arial" font-size="14.00">VCC</text>
<polygon fill="none" stroke="black" points="39,-120 39,-144 55,-144 55,-120 39,-120"/>
<text text-anchor="start" x="42.88" y="-126.7" font-family="arial" font-size="14.00">2</text>
<polygon fill="none" stroke="black" points="0,-96 0,-120 39,-120 39,-96 0,-96"/>
<text text-anchor="start" x="9.38" y="-102.7" font-family="arial" font-size="14.00">RX</text>
<polygon fill="none" stroke="black" points="39,-96 39,-120 55,-120 55,-96 39,-96"/>
<text text-anchor="start" x="42.88" y="-102.7" font-family="arial" font-size="14.00">3</text>
<polygon fill="none" stroke="black" points="0,-72 0,-96 39,-96 39,-72 0,-72"/>
<text text-anchor="start" x="10.13" y="-78.7" font-family="arial" font-size="14.00">TX</text>
<polygon fill="none" stroke="black" points="39,-72 39,-96 55,-96 55,-72 39,-72"/>
<text text-anchor="start" x="42.88" y="-78.7" font-family="arial" font-size="14.00">4</text>
<polygon fill="none" stroke="black" points="0,-48 0,-72 39,-72 39,-48 0,-48"/>
<text text-anchor="start" x="3.75" y="-54.7" font-family="arial" font-size="14.00">GND</text>
<polygon fill="none" stroke="black" points="39,-48 39,-72 55,-72 55,-48 39,-48"/>
<text text-anchor="start" x="42.88" y="-54.7" font-family="arial" font-size="14.00">5</text>
<polygon fill="none" stroke="black" points="0,-24 0,-48 39,-48 39,-24 0,-24"/>
<text text-anchor="start" x="4.13" y="-30.7" font-family="arial" font-size="14.00">VCC</text>
<polygon fill="none" stroke="black" points="39,-24 39,-48 55,-48 55,-24 39,-24"/>
<text text-anchor="start" x="42.88" y="-30.7" font-family="arial" font-size="14.00">6</text>
<polygon fill="none" stroke="black" points="0,0 0,-24 39,-24 39,0 0,0"/>
<text text-anchor="start" x="3.75" y="-6.7" font-family="arial" font-size="14.00">GND</text>
<polygon fill="none" stroke="black" points="39,0 39,-24 55,-24 55,0 39,0"/>
<text text-anchor="start" x="42.88" y="-6.7" font-family="arial" font-size="14.00">7</text>
</g>
<!-- W1 -->
<g id="node2" class="node">
<title>W1</title>
<polygon fill="#ffffff" stroke="black" points="383,-252 199,-252 199,-17 383,-17 383,-252"/>
<polygon fill="none" stroke="black" points="199,-227.5 199,-252 383,-252 383,-227.5 199,-227.5"/>
<text text-anchor="start" x="279.75" y="-234.7" font-family="arial" font-size="14.00">W1</text>
<polygon fill="none" stroke="black" points="199,-203 199,-227.5 287.63,-227.5 287.63,-203 199,-203"/>
<text text-anchor="start" x="235.81" y="-210.2" font-family="arial" font-size="14.00">4x</text>
<polygon fill="none" stroke="black" points="287.63,-203 287.63,-227.5 383,-227.5 383,-203 287.63,-203"/>
<text text-anchor="start" x="324.44" y="-210.2" font-family="arial" font-size="14.00">+ S</text>
<text text-anchor="start" x="231.63" y="-187.7" font-family="arial" font-size="14.00"> </text>
<text text-anchor="start" x="200.88" y="-167.7" font-family="arial" font-size="14.00">X1:1:GND</text>
<text text-anchor="start" x="270" y="-167.7" font-family="arial" font-size="14.00"> &#160;&#160;&#160;&#160;1 &#160;&#160;&#160;</text>
<text text-anchor="start" x="315.88" y="-167.7" font-family="arial" font-size="14.00">X2:1:GND</text>
<text text-anchor="start" x="201.25" y="-141.7" font-family="arial" font-size="14.00">X1:2:VCC</text>
<text text-anchor="start" x="270" y="-141.7" font-family="arial" font-size="14.00"> &#160;&#160;&#160;&#160;2 &#160;&#160;&#160;</text>
<text text-anchor="start" x="316.25" y="-141.7" font-family="arial" font-size="14.00">X2:2:VCC</text>
<text text-anchor="start" x="206.5" y="-115.7" font-family="arial" font-size="14.00">X1:3:RX</text>
<text text-anchor="start" x="270" y="-115.7" font-family="arial" font-size="14.00"> &#160;&#160;&#160;&#160;3 &#160;&#160;&#160;</text>
<text text-anchor="start" x="322.25" y="-115.7" font-family="arial" font-size="14.00">X2:4:TX</text>
<text text-anchor="start" x="207.25" y="-89.7" font-family="arial" font-size="14.00">X1:4:TX</text>
<text text-anchor="start" x="270" y="-89.7" font-family="arial" font-size="14.00"> &#160;&#160;&#160;&#160;4 &#160;&#160;&#160;</text>
<text text-anchor="start" x="321.5" y="-89.7" font-family="arial" font-size="14.00">X2:3:RX</text>
<text text-anchor="start" x="231.63" y="-63.7" font-family="arial" font-size="14.00"> </text>
<text text-anchor="start" x="200.88" y="-43.7" font-family="arial" font-size="14.00">X1:1:GND</text>
<text text-anchor="start" x="271.13" y="-43.7" font-family="arial" font-size="14.00">Shield</text>
<text text-anchor="start" x="231.63" y="-21.7" font-family="arial" font-size="14.00"> </text>
</g>
<!-- X1&#45;&#45;W1 -->
<g id="edge1" class="edge">
<title>X1:e&#45;&#45;W1:w</title>
<path fill="none" stroke="#000000" stroke-width="2" d="M55,-154C119.51,-154.06 135.47,-158.06 199,-158"/>
<path fill="none" stroke="#ffffff" stroke-width="2" d="M55,-156C119.02,-156 134.98,-160 199,-160"/>
<path fill="none" stroke="#000000" stroke-width="2" d="M55,-158C118.53,-157.94 134.49,-161.94 199,-162"/>
</g>
<!-- X1&#45;&#45;W1 -->
<g id="edge2" class="edge">
<title>X1:e&#45;&#45;W1:w</title>
<path fill="none" stroke="#000000" stroke-width="2" d="M55,-130C119.26,-130.02 135.24,-132.02 199,-132"/>
<path fill="none" stroke="#ffffff" stroke-width="2" d="M55,-132C119.01,-132 134.99,-134 199,-134"/>
<path fill="none" stroke="#000000" stroke-width="2" d="M55,-134C118.76,-133.98 134.74,-135.98 199,-136"/>
</g>
<!-- X1&#45;&#45;W1 -->
<g id="edge3" class="edge">
<title>X1:e&#45;&#45;W1:w</title>
<path fill="none" stroke="#000000" stroke-width="2" d="M55,-106C119,-106 135,-106 199,-106"/>
<path fill="none" stroke="#ffffff" stroke-width="2" d="M55,-108C119,-108 135,-108 199,-108"/>
<path fill="none" stroke="#000000" stroke-width="2" d="M55,-110C119,-110 135,-110 199,-110"/>
</g>
<!-- X1&#45;&#45;W1 -->
<g id="edge4" class="edge">
<title>X1:e&#45;&#45;W1:w</title>
<path fill="none" stroke="#000000" stroke-width="2" d="M55,-82C118.76,-82.02 134.74,-80.02 199,-80"/>
<path fill="none" stroke="#ffffff" stroke-width="2" d="M55,-84C119.01,-84 134.99,-82 199,-82"/>
<path fill="none" stroke="#000000" stroke-width="2" d="M55,-86C119.26,-85.98 135.24,-83.98 199,-84"/>
</g>
<!-- X1&#45;&#45;W1 -->
<g id="edge5" class="edge">
<title>X1:e&#45;&#45;W1:w</title>
<path fill="none" stroke="#000000" stroke-width="2" d="M55,-156C137.74,-156 116.26,-38 199,-38"/>
</g>
<!-- W1&#45;&#45;W1 -->
<g id="edge6" class="edge">
<title>W1:w&#45;&#45;W1:e</title>
<path fill="none" stroke="#000000" stroke-width="2" d="M199,-158C260.33,-158 321.67,-158 383,-158"/>
<path fill="none" stroke="#ffffff" stroke-width="2" d="M199,-160C260.33,-160 321.67,-160 383,-160"/>
<path fill="none" stroke="#000000" stroke-width="2" d="M199,-162C260.33,-162 321.67,-162 383,-162"/>
</g>
<!-- W1&#45;&#45;W1 -->
<g id="edge7" class="edge">
<title>W1:w&#45;&#45;W1:e</title>
<path fill="none" stroke="#000000" stroke-width="2" d="M199,-132C260.33,-132 321.67,-132 383,-132"/>
<path fill="none" stroke="#ffffff" stroke-width="2" d="M199,-134C260.33,-134 321.67,-134 383,-134"/>
<path fill="none" stroke="#000000" stroke-width="2" d="M199,-136C260.33,-136 321.67,-136 383,-136"/>
</g>
<!-- W1&#45;&#45;W1 -->
<g id="edge8" class="edge">
<title>W1:w&#45;&#45;W1:e</title>
<path fill="none" stroke="#000000" stroke-width="2" d="M199,-106C260.33,-106 321.67,-106 383,-106"/>
<path fill="none" stroke="#ffffff" stroke-width="2" d="M199,-108C260.33,-108 321.67,-108 383,-108"/>
<path fill="none" stroke="#000000" stroke-width="2" d="M199,-110C260.33,-110 321.67,-110 383,-110"/>
</g>
<!-- W1&#45;&#45;W1 -->
<g id="edge9" class="edge">
<title>W1:w&#45;&#45;W1:e</title>
<path fill="none" stroke="#000000" stroke-width="2" d="M199,-80C260.33,-80 321.67,-80 383,-80"/>
<path fill="none" stroke="#ffffff" stroke-width="2" d="M199,-82C260.33,-82 321.67,-82 383,-82"/>
<path fill="none" stroke="#000000" stroke-width="2" d="M199,-84C260.33,-84 321.67,-84 383,-84"/>
</g>
<!-- W1&#45;&#45;W1 -->
<g id="edge10" class="edge">
<title>W1:w&#45;&#45;W1:e</title>
<path fill="none" stroke="#000000" stroke-width="2" d="M199,-38C260.33,-38 321.67,-38 383,-38"/>
</g>
<!-- X2 -->
<g id="node3" class="node">
<title>X2</title>
<polygon fill="#ffffff" stroke="black" points="652,-244 527,-244 527,-3 652,-3 652,-244"/>
<polygon fill="none" stroke="black" points="527,-219.5 527,-244 652,-244 652,-219.5 527,-219.5"/>
<text text-anchor="start" x="580.5" y="-226.7" font-family="arial" font-size="14.00">X2</text>
<polygon fill="none" stroke="black" points="527,-195 527,-219.5 652,-219.5 652,-195 527,-195"/>
<text text-anchor="start" x="573.75" y="-202.2" font-family="arial" font-size="14.00">7&#45;pin</text>
<polygon fill="none" stroke="black" points="527,-171 527,-195 543,-195 543,-171 527,-171"/>
<polygon fill="none" stroke="black" points="543,-171 543,-195 582,-195 582,-171 543,-171"/>
<polygon fill="none" stroke="black" points="582,-171 582,-195 617,-195 617,-171 582,-171"/>
<text text-anchor="start" x="585.63" y="-177.7" font-family="arial" font-size="14.00">SH1</text>
<polygon fill="none" stroke="black" points="617,-171 617,-195 652,-195 652,-171 617,-171"/>
<text text-anchor="start" x="620.63" y="-177.7" font-family="arial" font-size="14.00">SH2</text>
<polygon fill="none" stroke="black" points="527,-147 527,-171 543,-171 543,-147 527,-147"/>
<text text-anchor="start" x="530.88" y="-153.7" font-family="arial" font-size="14.00">1</text>
<polygon fill="none" stroke="black" points="543,-147 543,-171 582,-171 582,-147 543,-147"/>
<text text-anchor="start" x="546.75" y="-153.7" font-family="arial" font-size="14.00">GND</text>
<polygon fill="none" stroke="black" points="582,-147 582,-171 617,-171 617,-147 582,-147"/>
<text text-anchor="start" x="591.63" y="-153.58" font-family="arial" font-size="14.00" fill="#000000">⬤</text>
<polygon fill="none" stroke="black" points="617,-147 617,-171 652,-171 652,-147 617,-147"/>
<polygon fill="none" stroke="black" points="527,-123 527,-147 543,-147 543,-123 527,-123"/>
<text text-anchor="start" x="530.88" y="-129.7" font-family="arial" font-size="14.00">2</text>
<polygon fill="none" stroke="black" points="543,-123 543,-147 582,-147 582,-123 543,-123"/>
<text text-anchor="start" x="547.13" y="-129.7" font-family="arial" font-size="14.00">VCC</text>
<polygon fill="none" stroke="black" points="582,-123 582,-147 617,-147 617,-123 582,-123"/>
<polygon fill="none" stroke="black" points="617,-123 617,-147 652,-147 652,-123 617,-123"/>
<text text-anchor="start" x="626.63" y="-129.58" font-family="arial" font-size="14.00" fill="#000000">⬤</text>
<polygon fill="none" stroke="black" points="527,-99 527,-123 543,-123 543,-99 527,-99"/>
<text text-anchor="start" x="530.88" y="-105.7" font-family="arial" font-size="14.00">3</text>
<polygon fill="none" stroke="black" points="543,-99 543,-123 582,-123 582,-99 543,-99"/>
<text text-anchor="start" x="552.38" y="-105.7" font-family="arial" font-size="14.00">RX</text>
<polygon fill="none" stroke="black" points="582,-99 582,-123 617,-123 617,-99 582,-99"/>
<polygon fill="none" stroke="black" points="617,-99 617,-123 652,-123 652,-99 617,-99"/>
<polygon fill="none" stroke="black" points="527,-75 527,-99 543,-99 543,-75 527,-75"/>
<text text-anchor="start" x="530.88" y="-81.7" font-family="arial" font-size="14.00">4</text>
<polygon fill="none" stroke="black" points="543,-75 543,-99 582,-99 582,-75 543,-75"/>
<text text-anchor="start" x="553.13" y="-81.7" font-family="arial" font-size="14.00">TX</text>
<polygon fill="none" stroke="black" points="582,-75 582,-99 617,-99 617,-75 582,-75"/>
<polygon fill="none" stroke="black" points="617,-75 617,-99 652,-99 652,-75 617,-75"/>
<polygon fill="none" stroke="black" points="527,-51 527,-75 543,-75 543,-51 527,-51"/>
<text text-anchor="start" x="530.88" y="-57.7" font-family="arial" font-size="14.00">5</text>
<polygon fill="none" stroke="black" points="543,-51 543,-75 582,-75 582,-51 543,-51"/>
<text text-anchor="start" x="546.75" y="-57.7" font-family="arial" font-size="14.00">GND</text>
<polygon fill="none" stroke="black" points="582,-51 582,-75 617,-75 617,-51 582,-51"/>
<text text-anchor="start" x="591.63" y="-57.58" font-family="arial" font-size="14.00" fill="#000000">⬤</text>
<polygon fill="none" stroke="black" points="617,-51 617,-75 652,-75 652,-51 617,-51"/>
<polygon fill="none" stroke="black" points="527,-27 527,-51 543,-51 543,-27 527,-27"/>
<text text-anchor="start" x="530.88" y="-33.7" font-family="arial" font-size="14.00">6</text>
<polygon fill="none" stroke="black" points="543,-27 543,-51 582,-51 582,-27 543,-27"/>
<text text-anchor="start" x="547.13" y="-33.7" font-family="arial" font-size="14.00">VCC</text>
<polygon fill="none" stroke="black" points="582,-27 582,-51 617,-51 617,-27 582,-27"/>
<polygon fill="none" stroke="black" points="617,-27 617,-51 652,-51 652,-27 617,-27"/>
<text text-anchor="start" x="626.63" y="-33.58" font-family="arial" font-size="14.00" fill="#000000">⬤</text>
<polygon fill="none" stroke="black" points="527,-3 527,-27 543,-27 543,-3 527,-3"/>
<text text-anchor="start" x="530.88" y="-9.7" font-family="arial" font-size="14.00">7</text>
<polygon fill="none" stroke="black" points="543,-3 543,-27 582,-27 582,-3 543,-3"/>
<text text-anchor="start" x="546.75" y="-9.7" font-family="arial" font-size="14.00">GND</text>
<polygon fill="none" stroke="black" points="582,-3 582,-27 617,-27 617,-3 582,-3"/>
<text text-anchor="start" x="591.63" y="-9.58" font-family="arial" font-size="14.00" fill="#000000">⬤</text>
<polygon fill="none" stroke="black" points="617,-3 617,-27 652,-27 652,-3 617,-3"/>
</g>
<!-- W1&#45;&#45;X2 -->
<g id="edge11" class="edge">
<title>W1:e&#45;&#45;X2:w</title>
<path fill="none" stroke="#000000" stroke-width="2" d="M383,-158C446.88,-158 462.88,-157 527,-157"/>
<path fill="none" stroke="#ffffff" stroke-width="2" d="M383,-160C447,-160 463,-159 527,-159"/>
<path fill="none" stroke="#000000" stroke-width="2" d="M383,-162C447.12,-162 463.12,-161 527,-161"/>
</g>
<!-- W1&#45;&#45;X2 -->
<g id="edge12" class="edge">
<title>W1:e&#45;&#45;X2:w</title>
<path fill="none" stroke="#000000" stroke-width="2" d="M383,-132C447.12,-132 463.12,-133 527,-133"/>
<path fill="none" stroke="#ffffff" stroke-width="2" d="M383,-134C447,-134 463,-135 527,-135"/>
<path fill="none" stroke="#000000" stroke-width="2" d="M383,-136C446.88,-136 462.88,-137 527,-137"/>
</g>
<!-- W1&#45;&#45;X2 -->
<g id="edge13" class="edge">
<title>W1:e&#45;&#45;X2:w</title>
<path fill="none" stroke="#000000" stroke-width="2" d="M383,-106C446.04,-106.86 460.68,-85.86 527,-85"/>
<path fill="none" stroke="#ffffff" stroke-width="2" d="M383,-108C447.68,-108 462.32,-87 527,-87"/>
<path fill="none" stroke="#000000" stroke-width="2" d="M383,-110C449.32,-109.14 463.96,-88.14 527,-89"/>
</g>
<!-- W1&#45;&#45;X2 -->
<g id="edge14" class="edge">
<title>W1:e&#45;&#45;X2:w</title>
<path fill="none" stroke="#000000" stroke-width="2" d="M383,-80C450.09,-81.16 463.53,-110.16 527,-109"/>
<path fill="none" stroke="#ffffff" stroke-width="2" d="M383,-82C448.28,-82 461.72,-111 527,-111"/>
<path fill="none" stroke="#000000" stroke-width="2" d="M383,-84C446.47,-82.84 459.91,-111.84 527,-113"/>
</g>
<!-- X2&#45;&#45;X2 -->
<g id="edge15" class="edge">
<title>X2:c&#45;&#45;X2:c</title>
<path fill="none" stroke="#000000" stroke-width="2" d="M599.5,-159C599.5,-127 599.5,-95 599.5,-63"/>
</g>
<!-- X2&#45;&#45;X2 -->
<g id="edge16" class="edge">
<title>X2:c&#45;&#45;X2:c</title>
<path fill="none" stroke="#000000" stroke-width="2" d="M599.5,-63C599.5,-47 599.5,-31 599.5,-15"/>
</g>
<!-- X2&#45;&#45;X2 -->
<g id="edge17" class="edge">
<title>X2:c&#45;&#45;X2:c</title>
<path fill="none" stroke="#000000" stroke-width="2" d="M634.5,-135C634.5,-103 634.5,-71 634.5,-39"/>
</g>
</g>
</svg>
